<svg width="271" height="130" viewBox="0 0 271 130" fill="none" xmlns="http://www.w3.org/2000/svg">
<path d="M3.52035 0.3125L3.43701 0.362498C3.47868 0.345831 3.51202 0.329167 3.52035 0.3125Z" fill="#20BB65"/>
<path d="M5.07861 3.98757C5.07861 3.98757 5.09113 3.98757 5.09947 3.9834C5.09113 3.9834 5.08278 3.9834 5.07861 3.98757Z" fill="#20BB65"/>
<path d="M0.645383 1.19166C0.61205 1.43749 0.212053 1.65415 0.46622 1.80415C0.470386 1.92081 0.612052 1.99165 0.699552 2.07082C1.04539 1.99165 0.753709 2.19996 1.05371 2.14579L0.874545 2.24167C0.974545 2.225 1.04955 2.22082 0.953713 2.27915L0.899544 2.30001C1.04954 2.27501 0.978713 2.33748 1.05788 2.32498L1.00371 2.34584L1.0412 2.37081L0.962054 2.39583C1.12872 2.3875 1.16205 2.43334 1.11205 2.50834L1.33704 2.41664C1.12454 2.61247 1.60371 2.46246 1.34121 2.6708L1.28704 2.69165C1.92037 2.56248 0.953696 3.02917 1.56203 2.91667C1.48703 2.92917 1.44954 2.9708 1.39538 2.99164C1.47871 3.01664 1.53703 3.0583 1.9787 2.87913C1.98703 2.9208 1.85372 2.96664 1.68705 3.04164C1.87872 2.96247 1.97455 2.96247 1.99538 2.98747L1.91621 3.00415L2.01621 3.06249L2.37453 2.89581C2.28703 2.98331 1.93704 3.09164 2.04121 3.0958L2.34122 2.97084C2.30789 3.05834 1.8662 3.28333 1.67037 3.43333C1.64537 3.7375 2.52454 3.6833 2.09538 4.13747L1.87453 4.24581C1.54953 4.39164 2.38703 4.09997 2.08703 4.24164L2.24954 4.20415C2.19537 4.23749 2.13703 4.27914 2.05786 4.29998C2.05786 4.32914 2.10787 4.30829 2.2162 4.28329L2.02455 4.39997C1.90788 4.56664 2.33704 4.47915 2.30371 4.61665C1.94121 4.92081 2.4287 4.98747 2.70786 5.0208C3.2787 4.98747 2.07871 5.79167 2.72455 5.73334C2.68288 5.7625 2.79121 5.73332 2.82871 5.71248L2.86205 5.9083C2.86205 5.9083 2.92871 6.13748 3.29538 6.12498C3.66204 6.11665 4.32038 5.85831 5.51622 4.92081L5.58704 4.89166C5.71621 4.72083 5.7287 4.64584 5.3412 4.74584C5.77453 4.53334 5.34954 4.64998 5.48288 4.56248L5.52036 4.54997C5.15786 4.6458 5.74537 4.3083 5.42037 4.39163C5.45787 4.37913 5.57455 4.32496 5.59121 4.33329C5.51621 4.32079 5.39539 4.30831 5.64955 4.19164C5.54122 4.12914 5.59954 3.94584 5.16621 4.06667L5.23703 4.03748C4.94537 4.12498 5.17455 4.01248 5.02038 4.03748C5.05372 4.02081 5.07037 4.01249 5.08287 4.00416C4.79537 4.08749 4.99121 3.91248 4.86205 3.93331L5.0287 3.85417L4.9537 3.79583L4.9287 3.84165C4.45787 4.03749 5.19536 3.65415 4.87036 3.73332C4.90786 3.65832 3.85372 4.05833 4.05788 3.90416C3.82872 3.975 4.42455 3.77084 4.23705 3.80834C4.47871 3.70001 4.39953 3.7583 4.58703 3.66247C4.4537 3.67497 4.80788 3.49164 4.62454 3.51664L4.81205 3.43333C4.43705 3.525 5.01203 3.21248 4.6662 3.31665C4.48287 3.32082 5.21205 3.02917 4.81205 3.12917L5.05787 2.99164C5.08704 2.9458 4.73286 3.10834 4.84536 3.025C5.00786 2.95834 4.95788 2.92913 5.12038 2.8833C5.34538 2.70413 4.69954 2.8958 5.09121 2.62497C4.76621 2.74164 4.93703 2.61249 4.6912 2.69999C4.8287 2.63749 4.67455 2.59997 4.99538 2.52497C5.02038 2.52081 5.02038 2.525 4.96621 2.55L5.15786 2.47498C5.4912 2.27498 4.92454 2.46249 4.95787 2.38749C4.90371 2.42916 4.9287 2.44165 4.7912 2.48332V2.42498L4.95787 2.36664L5.02038 2.2583L4.82871 2.35001C4.91621 2.27501 5.2412 2.12079 4.94953 2.19996C4.78703 2.24579 4.69954 2.34166 4.62454 2.33332C4.73704 2.22916 4.91205 2.07913 4.94539 1.9958C4.72872 2.09163 4.72871 2.07499 4.67454 2.07499L4.86622 1.99163C4.57455 2.03746 5.27871 1.79583 5.04121 1.82083L5.17872 1.77083L4.77037 1.92083C4.3662 2.02083 5.15787 1.725 4.61203 1.87917C4.6537 1.89167 4.19538 2.06664 4.26622 1.99997L4.4537 1.93334C4.40786 1.93334 4.32871 1.95834 4.36204 1.93334C4.46621 1.90417 4.63287 1.82916 4.5912 1.81666L4.82871 1.73747L4.47038 1.82917C4.65371 1.71251 4.38286 1.75413 4.63703 1.6333C4.63703 1.6333 4.73288 1.50415 4.44121 1.59999C4.62454 1.54165 4.67455 1.47499 4.89122 1.39999C4.68288 1.46249 4.49121 1.46667 4.69954 1.35834H4.72454C4.90787 1.175 4.36205 1.32083 4.59955 1.13749C4.37871 1.22916 4.48287 1.13746 4.19954 1.26246C3.88287 1.29163 4.72039 0.883335 3.82455 1.2C3.76205 1.17917 4.01621 1.075 4.05371 1.0375L4.10371 1.02915C4.00371 0.987488 3.98703 0.970805 3.98703 0.908305C3.8912 0.916638 3.47871 1.07083 3.55788 0.987498C3.72871 0.937498 3.69121 0.933309 3.68287 0.912476C3.71204 0.912476 3.77455 0.895829 3.87455 0.829163C3.82455 0.845829 3.79121 0.85414 3.76204 0.858307C3.77454 0.85414 3.78286 0.850008 3.8037 0.841675C3.73286 0.833341 3.68705 0.858331 3.66622 0.883331C3.64122 0.891665 3.60789 0.904159 3.56622 0.929159C3.76622 0.816659 3.52039 0.850008 3.79955 0.737508C3.69955 0.675008 3.38288 0.724963 3.24538 0.69163C3.38705 0.62913 3.52455 0.595805 3.58705 0.595805L3.51205 0.56249C3.72039 0.483323 3.64538 0.545807 3.69122 0.545807C4.00372 0.35414 3.30372 0.545823 3.58705 0.354156L3.4162 0.399984L3.4412 0.383301C3.3537 0.416634 3.22871 0.445811 3.19538 0.445811C3.37455 0.366644 3.61622 0.287494 3.59122 0.254161C3.75372 0.158327 3.47037 0.204163 3.36203 0.204163C3.33703 0.237496 3.23704 0.266638 3.16621 0.283305C3.15371 0.266638 3.33288 0.187496 3.24955 0.204163L3.49537 0.108337C3.2662 0.204171 3.2287 0.154146 3.12453 0.18748C3.3037 0.108313 3.29122 0.158337 3.43288 0.108337C3.38288 0.0458374 3.40789 0.0749613 3.35789 0.0124613C3.15789 0.041628 3.12871 0.108293 2.90371 0.166626C2.84121 0.149959 2.65787 0.179146 2.7912 0.083313L2.5787 0.174967C2.38286 0.174967 2.39538 0.125 2.59955 0C1.62038 0.0833333 0.999534 0.279156 0.6287 0.458323C0.257867 0.63749 0.128721 0.795797 0.128721 0.795797C-0.279613 1.17496 0.391221 1.04163 0.649554 1.21246L0.645383 1.19166Z" fill="#20BB65"/>
<path d="M10.4869 13.8875L10.4244 13.9666C10.4619 13.9416 10.4869 13.9125 10.4869 13.8875Z" fill="#20BB65"/>
<path d="M15.3328 20.3042C15.3328 20.3042 15.3453 20.3001 15.3536 20.2959C15.3453 20.2959 15.3369 20.2959 15.3328 20.3042Z" fill="#20BB65"/>
<path d="M8.48704 16.7625C8.48704 16.7625 8.47037 16.7625 8.46204 16.7666H8.48704V16.7625Z" fill="#20BB65"/>
<path d="M7.76191 15.2084C7.90775 15.6459 7.59943 15.9917 8.00776 16.275C8.10359 16.4792 8.32027 16.6125 8.48694 16.7625C8.83277 16.6459 8.65358 16.9917 8.96192 16.9209L8.82443 17.075C8.93277 17.05 9.0161 17.05 8.94943 17.15L8.89943 17.1792C9.05777 17.1417 9.02443 17.2542 9.10359 17.2334L9.0536 17.2667L9.11608 17.3125L9.04108 17.3501C9.23275 17.3501 9.30775 17.4292 9.30359 17.5542L9.49526 17.4083C9.39526 17.7375 9.84942 17.5084 9.69942 17.8459L9.64943 17.8792C10.3036 17.7 9.52027 18.4417 10.1536 18.2834C10.0744 18.3042 10.0619 18.3667 10.0119 18.4C10.1328 18.45 10.2369 18.5292 10.6203 18.2458C10.6619 18.3167 10.5411 18.3875 10.3994 18.5042C10.5661 18.3792 10.6786 18.3875 10.7286 18.4292L10.6453 18.4542L10.8119 18.5583L11.1036 18.2958C11.0703 18.4417 10.7328 18.6042 10.8661 18.6209L11.1244 18.425C11.1536 18.5709 10.8078 18.9292 10.6953 19.1792C10.9161 19.7 11.9286 19.6542 11.7911 20.4042L11.6119 20.5751C11.3369 20.8042 12.1119 20.3542 11.8661 20.5751L12.0286 20.5209C11.9911 20.5751 11.9577 20.6417 11.8744 20.6709C11.8994 20.7209 11.9453 20.6875 12.0536 20.65L11.9161 20.8334C11.9161 21.1084 12.3661 20.9833 12.4411 21.2125C12.2619 21.7125 12.9119 21.8459 13.2869 21.9125C13.9578 21.8834 13.1911 23.1709 13.9327 23.0959C13.9036 23.1375 14.0119 23.0917 14.0453 23.0625L14.2619 23.3876C14.2619 23.3876 14.5494 23.7626 14.9953 23.7584C15.4411 23.7542 16.0286 23.3542 16.6744 21.85L16.7369 21.8042C16.7411 21.525 16.6869 21.4042 16.2994 21.5542C16.6453 21.2209 16.2244 21.3959 16.3119 21.2584L16.3453 21.2375C15.9828 21.3875 16.4078 20.8417 16.0786 20.9709C16.1119 20.95 16.2119 20.8667 16.2369 20.8792C16.1328 20.8542 15.9744 20.8292 16.1828 20.6459C15.9911 20.5334 15.8994 20.2334 15.4744 20.4167L15.5411 20.375C15.2619 20.5125 15.4453 20.3292 15.2703 20.3625C15.2953 20.3334 15.3036 20.3167 15.3203 20.3084C15.0369 20.4375 15.1286 20.15 14.9869 20.1792L15.1286 20.0584L14.9869 19.9583L14.9953 20.0334C14.5869 20.3417 15.1619 19.7334 14.8286 19.8501C14.8078 19.7209 13.8619 20.3459 13.9828 20.0959C13.7619 20.2042 14.3161 19.8875 14.1203 19.9417C14.3244 19.7709 14.2744 19.8667 14.4244 19.7167C14.2744 19.7334 14.5494 19.4417 14.3453 19.475L14.5036 19.3417C14.1244 19.4792 14.5619 18.975 14.2244 19.1334C14.0078 19.1334 14.6494 18.6792 14.2411 18.8209L14.4244 18.6042C14.4244 18.5292 14.1286 18.7834 14.1911 18.6459C14.3328 18.5376 14.2494 18.4917 14.4036 18.4167C14.5286 18.1292 13.9078 18.4167 14.1494 17.9751C13.8536 18.1542 13.9494 17.9501 13.7286 18.0792C13.8411 17.9834 13.6244 17.9042 13.9494 17.7959C13.9744 17.7875 13.9828 17.8042 13.9369 17.8375L14.1078 17.725C14.3411 17.4 13.8161 17.6917 13.7953 17.5667C13.7619 17.6333 13.8036 17.6583 13.6744 17.7208L13.6328 17.6208L13.7828 17.5334L13.7661 17.3501L13.6119 17.4959C13.6536 17.3709 13.9244 17.1292 13.6328 17.2459C13.4744 17.3167 13.4494 17.4751 13.3453 17.4542C13.3994 17.2876 13.4828 17.0333 13.4536 16.8917C13.2703 17.0458 13.2578 17.0125 13.1953 17.0125L13.3578 16.8834C13.0453 16.9459 13.6911 16.5709 13.4286 16.6L13.5536 16.525L13.1828 16.7542C12.7786 16.9 13.4869 16.4459 12.9578 16.6709C13.0203 16.6917 12.6078 16.9625 12.6369 16.8584L12.8078 16.7542C12.7536 16.75 12.6786 16.7875 12.6953 16.7459C12.7953 16.7 12.9369 16.5834 12.8786 16.5584L13.1036 16.4375L12.7453 16.575C12.8703 16.3833 12.5786 16.4417 12.7869 16.2501C12.7869 16.2501 12.7994 16.0334 12.5244 16.1834C12.6994 16.0959 12.7036 15.9792 12.9036 15.8667C12.7036 15.9584 12.4828 15.9584 12.6369 15.7792L12.6619 15.7709C12.7411 15.475 12.2078 15.6917 12.3411 15.3834C12.1494 15.5292 12.2036 15.3792 11.9661 15.5751C11.6119 15.6042 12.2911 14.9459 11.4744 15.4417C11.3869 15.4042 11.5994 15.2333 11.6161 15.1708L11.6702 15.1584C11.5202 15.0792 11.4869 15.0459 11.4369 14.9417C11.3286 14.95 10.9577 15.1917 10.9911 15.0459C11.1536 14.975 11.1036 14.9584 11.0828 14.925C11.1203 14.9292 11.1786 14.9001 11.2453 14.7917C11.1953 14.8167 11.1619 14.825 11.1328 14.8334C11.1453 14.825 11.1536 14.8167 11.1661 14.8083C11.0786 14.7917 11.0411 14.8292 11.0369 14.8709C11.0119 14.8834 10.9869 14.9042 10.9536 14.9417C11.1036 14.7584 10.8369 14.7959 11.0828 14.6209C10.9161 14.5042 10.5786 14.5667 10.3953 14.4958C10.5161 14.3958 10.6494 14.35 10.7244 14.3542L10.6161 14.2917C10.8036 14.1667 10.7578 14.2751 10.8161 14.2792C11.0411 13.9667 10.3619 14.25 10.5494 13.9334L10.3828 14.0042L10.4036 13.9792C10.3244 14.0334 10.1994 14.0709 10.1619 14.0709C10.3119 13.9459 10.5369 13.825 10.4828 13.7667C10.6036 13.6125 10.3078 13.6708 10.1744 13.6625C10.1744 13.7167 10.0744 13.7667 10.0036 13.7875C9.97858 13.7584 10.1286 13.6334 10.0411 13.6542L10.2578 13.5084C10.0578 13.6584 9.97859 13.5667 9.87859 13.6167C10.0286 13.4917 10.0536 13.575 10.1786 13.5042C10.0744 13.3875 10.1244 13.4459 10.0203 13.325C9.80777 13.3625 9.82027 13.4709 9.6036 13.5625C9.52027 13.5292 9.32442 13.5625 9.41192 13.4084L9.23276 13.5583C9.00359 13.5375 8.98276 13.45 9.13276 13.2458C8.04943 13.3125 7.47025 13.6042 7.16191 13.8875C6.85358 14.1709 6.82441 14.4459 6.82441 14.4459C6.61608 15.0834 7.31192 14.9042 7.73692 15.2292L7.76191 15.2084Z" fill="#20BB65"/>
<path d="M24.1994 29.2456L24.1619 29.3414C24.191 29.3081 24.2077 29.2748 24.1994 29.2456Z" fill="#20BB65"/>
<path d="M30.6121 34.1414C30.6121 34.1414 30.6246 34.1331 30.6287 34.1289C30.6204 34.1289 30.6162 34.1373 30.6121 34.1414Z" fill="#20BB65"/>
<path d="M23.0703 32.5623C23.0703 32.5623 23.0578 32.5706 23.0494 32.5748L23.0744 32.5623H23.0703Z" fill="#20BB65"/>
<path d="M21.9495 31.2708C22.2078 31.6499 22.0078 32.0666 22.4786 32.225C22.6245 32.3916 22.8703 32.4625 23.0703 32.5583C23.3703 32.35 23.2911 32.7333 23.5703 32.5791L23.4786 32.7625C23.5745 32.7125 23.6536 32.6875 23.6203 32.8L23.5828 32.8416C23.7245 32.7625 23.7245 32.8791 23.7953 32.8416L23.7578 32.8875L23.8328 32.9166L23.7703 32.975C23.9536 32.9208 24.0495 32.9791 24.0786 33.0958L24.2245 32.9041C24.2203 33.2458 24.5911 32.9041 24.537 33.2708L24.4995 33.3166C25.0828 32.9666 24.5286 33.8916 25.0953 33.5666C25.0245 33.6083 25.0286 33.6708 24.9911 33.7166C25.1245 33.7333 25.2411 33.7791 25.5328 33.4041C25.5953 33.4583 25.4953 33.5624 25.3911 33.7124C25.5203 33.5458 25.6286 33.525 25.687 33.55L25.6161 33.5958L25.8036 33.65L26.0161 33.3166C26.0245 33.4666 25.7411 33.7125 25.8745 33.6916L26.0703 33.4333C26.137 33.5666 25.8995 34.0042 25.8578 34.275C26.2078 34.7167 27.1703 34.4 27.237 35.1583L27.112 35.3708C26.9078 35.6667 27.537 35.025 27.3578 35.3041L27.4995 35.2083C27.4745 35.2708 27.462 35.3458 27.3911 35.3916C27.4286 35.4333 27.462 35.3916 27.5578 35.3249L27.4745 35.5374C27.5495 35.8041 27.9453 35.5625 28.0786 35.7666C28.037 36.2916 28.6953 36.25 29.0745 36.2208C29.712 36.0166 29.3036 37.4625 29.9995 37.1958C29.9828 37.2458 30.0745 37.1708 30.0995 37.1375L30.3911 37.3958C30.3911 37.3958 30.762 37.6833 31.1911 37.5624C31.6203 37.4416 32.0911 36.9083 32.3286 35.2916L32.3786 35.2333C32.312 34.9625 32.2286 34.8583 31.8911 35.1041C32.1411 34.6916 31.7786 34.9666 31.8245 34.8124L31.8495 34.7833C31.537 35.0208 31.8078 34.3833 31.5245 34.5917C31.5495 34.5625 31.6245 34.4541 31.6536 34.4625C31.5453 34.4625 31.387 34.4833 31.5411 34.25C31.3286 34.1916 31.162 33.9208 30.7953 34.2125L30.8453 34.1541C30.612 34.3583 30.737 34.1333 30.5828 34.2125C30.5995 34.1791 30.6036 34.1625 30.6161 34.15C30.3786 34.3458 30.3911 34.05 30.262 34.1125L30.3661 33.9583L30.2036 33.9L30.2328 33.9667C29.9203 34.3708 30.312 33.6333 30.0245 33.8333C29.9703 33.7166 29.2245 34.5624 29.2703 34.2916C29.087 34.4541 29.537 34.0041 29.362 34.1041C29.5161 33.8875 29.4911 33.9916 29.5953 33.8041C29.4536 33.8583 29.6453 33.5041 29.4578 33.5916L29.5745 33.4208C29.2453 33.65 29.5328 33.0541 29.2495 33.2958C29.037 33.3541 29.537 32.7458 29.1828 32.9874L29.3036 32.7291C29.2828 32.6583 29.0661 32.9791 29.0911 32.8333C29.1995 32.6916 29.1078 32.6708 29.237 32.5583C29.2786 32.2458 28.7578 32.6917 28.8745 32.1958C28.6328 32.4458 28.6745 32.2208 28.4953 32.4083C28.5786 32.2833 28.3495 32.2708 28.6328 32.075C28.6578 32.0583 28.6661 32.075 28.6328 32.1208L28.7661 31.9666C28.9036 31.5916 28.4745 32.0124 28.4203 31.8958C28.4078 31.9708 28.4536 31.9833 28.3453 32.075L28.2786 31.9916L28.3995 31.8666L28.337 31.6916L28.2245 31.875C28.2286 31.7416 28.4245 31.4374 28.1745 31.6249C28.0411 31.7333 28.0578 31.8958 27.9536 31.9C27.9578 31.725 27.9703 31.4583 27.9078 31.3291C27.7703 31.525 27.7495 31.5 27.6911 31.5167L27.8161 31.35C27.5328 31.4958 28.0536 30.9583 27.8078 31.0541L27.9036 30.9458L27.612 31.2666C27.262 31.5166 27.8245 30.8875 27.3703 31.2458C27.437 31.25 27.112 31.625 27.112 31.5125L27.2495 31.3666C27.1953 31.3791 27.1328 31.4375 27.137 31.3875C27.2203 31.3166 27.3245 31.1666 27.262 31.1583L27.4453 30.9833L27.137 31.2124C27.2078 30.9958 26.9411 31.1291 27.0911 30.8875C27.0911 30.8875 27.0411 30.675 26.8203 30.8917C26.9661 30.7625 26.937 30.6458 27.0995 30.4874C26.9286 30.6291 26.7161 30.6917 26.8203 30.475L26.8453 30.4625C26.8453 30.1583 26.387 30.5083 26.4286 30.1749C26.2828 30.3666 26.2953 30.2083 26.1203 30.4625C25.787 30.5875 26.2578 29.7708 25.6078 30.4666C25.512 30.4541 25.6745 30.2333 25.6703 30.1666L25.7161 30.1416C25.5495 30.1041 25.5078 30.0833 25.4328 29.9958C25.3286 30.0333 25.0411 30.3666 25.0328 30.2208C25.1703 30.1083 25.1161 30.1041 25.087 30.0791C25.1245 30.075 25.1703 30.0292 25.2078 29.9042C25.1661 29.9417 25.137 29.9583 25.112 29.975C25.1203 29.9625 25.1245 29.9541 25.137 29.9416C25.0495 29.95 25.0203 29.9958 25.0286 30.0375C25.012 30.0583 24.9911 30.0833 24.9661 30.1291C25.062 29.9125 24.812 30.0208 24.9995 29.7833C24.8078 29.7125 24.4995 29.8667 24.3036 29.85C24.3911 29.7208 24.5078 29.6375 24.5828 29.6208L24.4578 29.5917C24.6036 29.4208 24.5911 29.5375 24.6453 29.525C24.7745 29.1625 24.1995 29.6208 24.2953 29.2666L24.1578 29.3792L24.1703 29.35C24.112 29.4208 23.9995 29.4958 23.962 29.5041C24.0703 29.3416 24.2536 29.1625 24.187 29.1208C24.262 28.9375 23.9911 29.0791 23.862 29.1041C23.8745 29.1583 23.7911 29.2291 23.7328 29.2708C23.6995 29.25 23.8078 29.0874 23.7328 29.1333L23.8995 28.9333C23.7495 29.1291 23.6495 29.0666 23.5661 29.1416C23.6745 28.9791 23.7203 29.0541 23.8245 28.95C23.6911 28.8666 23.7578 28.9083 23.6203 28.825C23.4286 28.9208 23.4703 29.0208 23.287 29.1708C23.1953 29.1625 23.0203 29.2499 23.062 29.0749L22.9286 29.2666C22.7036 29.3125 22.6578 29.2333 22.7411 28.9958C21.7203 29.3625 21.2453 29.8042 21.0286 30.1625C20.812 30.5208 20.8578 30.7916 20.8578 30.7916C20.837 31.4624 21.4495 31.0958 21.9495 31.2875V31.2708Z" fill="#20BB65"/>
<path d="M41.4329 40.6665L41.4163 40.7665C41.4371 40.7248 41.4454 40.6873 41.4329 40.6665Z" fill="#20BB65"/>
<path d="M48.787 44.0416C48.787 44.0416 48.7953 44.0332 48.8036 44.0249C48.7953 44.0291 48.7912 44.0374 48.787 44.0416Z" fill="#20BB65"/>
<path d="M41.087 44.1497C41.087 44.1497 41.0745 44.158 41.0703 44.1663L41.0912 44.1497H41.087Z" fill="#20BB65"/>
<path d="M39.7036 43.154C40.0411 43.4624 39.9411 43.9165 40.4327 43.9624C40.6119 44.0915 40.8661 44.104 41.0827 44.1499C41.3286 43.879 41.3369 44.2707 41.5744 44.0582L41.5286 44.2582C41.6119 44.1874 41.6827 44.1457 41.6744 44.2582L41.6452 44.3082C41.7661 44.1999 41.7911 44.3082 41.8494 44.2582L41.8202 44.3082L41.8994 44.3165L41.8494 44.3873C42.0161 44.2915 42.1202 44.329 42.1744 44.4373L42.2744 44.2165C42.3452 44.5499 42.6286 44.1332 42.6619 44.504L42.6327 44.554C43.1202 44.079 42.7869 45.1082 43.2661 44.6665C43.2077 44.7207 43.2244 44.7832 43.1994 44.8374C43.3327 44.8249 43.4536 44.8415 43.6577 44.4124C43.7286 44.454 43.6577 44.5749 43.5869 44.7457C43.6744 44.5582 43.7744 44.5082 43.8411 44.5249L43.7786 44.5874L43.9744 44.5998L44.1077 44.229C44.1494 44.3707 43.9286 44.6749 44.0536 44.6249L44.1911 44.3291C44.2869 44.4416 44.1494 44.9249 44.1661 45.1957C44.6036 45.5499 45.4702 45.029 45.6994 45.7582L45.6202 45.9915C45.4869 46.3207 45.9619 45.5624 45.8452 45.8749L45.9661 45.7498C45.9536 45.8165 45.9577 45.8915 45.8994 45.954C45.9452 45.9873 45.9702 45.9373 46.0494 45.854L46.0119 46.079C46.1411 46.3249 46.4786 46.004 46.6494 46.1707C46.7202 46.6957 47.3536 46.5124 47.7161 46.3999C48.2994 46.0665 48.1994 47.5623 48.8244 47.1582C48.8161 47.2082 48.8952 47.1165 48.9077 47.079L49.2452 47.2707C49.2452 47.2707 49.6661 47.4749 50.0619 47.2707C50.4577 47.0665 50.8077 46.4457 50.7077 44.8123L50.7452 44.7457C50.6244 44.4957 50.5202 44.4082 50.2411 44.7165C50.3994 44.2624 50.1036 44.6082 50.1161 44.4457L50.1369 44.4124C49.8827 44.7082 50.0119 44.0332 49.7744 44.2915C49.7911 44.2582 49.8452 44.1374 49.8744 44.1415C49.7702 44.1624 49.6202 44.2165 49.7161 43.9582C49.4952 43.9457 49.2744 43.7165 48.9786 44.0748L49.0161 44.0082C48.8286 44.2582 48.9077 44.0082 48.7702 44.1207C48.7786 44.0832 48.7827 44.0665 48.7869 44.0499C48.5952 44.2915 48.5452 43.9999 48.4327 44.0874L48.4994 43.9165L48.3286 43.8915L48.3702 43.954C48.1494 44.4165 48.3786 43.6123 48.1369 43.8665C48.0577 43.7623 47.5077 44.7499 47.4952 44.4749C47.3494 44.6707 47.6952 44.1374 47.5452 44.2749C47.6494 44.029 47.6494 44.1374 47.7119 43.9332C47.5869 44.0165 47.6952 43.629 47.5286 43.754L47.6077 43.5623C47.3369 43.8582 47.4869 43.2123 47.2619 43.5082C47.0661 43.6082 47.4244 42.9082 47.1327 43.2207L47.1952 42.9415C47.1577 42.8749 47.0161 43.2373 47.0119 43.0873C47.0869 42.929 46.9911 42.9249 47.0952 42.7874C47.0702 42.4749 46.6536 43.0207 46.6619 42.5123C46.4827 42.8082 46.4744 42.579 46.3369 42.804C46.3952 42.6665 46.1619 42.6999 46.3994 42.4499C46.4202 42.429 46.4327 42.4415 46.4077 42.4957L46.5036 42.3165C46.5577 41.9207 46.2286 42.4249 46.1494 42.3249C46.1494 42.3999 46.1994 42.404 46.1161 42.5165L46.0327 42.4499L46.1244 42.304L46.0244 42.1498L45.9577 42.354C45.9327 42.2248 46.0577 41.8832 45.8536 42.1207C45.7494 42.2582 45.7994 42.4124 45.6994 42.4374C45.6661 42.2624 45.6161 41.9998 45.5244 41.8873C45.4369 42.1082 45.4077 42.0874 45.3536 42.1165L45.4369 41.9249C45.1911 42.129 45.5827 41.4874 45.3619 41.6415L45.4327 41.5166L45.2161 41.8957C44.9286 42.2165 45.3369 41.479 44.9744 41.929C45.0369 41.9207 44.8036 42.3541 44.7827 42.2457L44.8827 42.0707C44.8327 42.0915 44.7827 42.1624 44.7786 42.1165C44.8452 42.029 44.9119 41.8582 44.8494 41.8665L44.9869 41.654L44.7369 41.9415C44.7577 41.7123 44.5286 41.904 44.6161 41.6332C44.6161 41.6332 44.5202 41.4332 44.3536 41.6957C44.4661 41.5374 44.4119 41.429 44.5327 41.2374C44.3994 41.4165 44.2036 41.5207 44.2577 41.2874L44.2786 41.2665C44.2077 40.9707 43.8411 41.4165 43.8077 41.079C43.7119 41.2999 43.6827 41.1415 43.5702 41.429C43.2744 41.6248 43.5494 40.7207 43.0744 41.5499C42.9786 41.5582 43.0869 41.3082 43.0702 41.2457L43.1119 41.2082C42.9411 41.2082 42.8952 41.1999 42.8036 41.129C42.7119 41.1874 42.5077 41.579 42.4619 41.4374C42.5702 41.2957 42.5161 41.304 42.4827 41.2874C42.5161 41.2749 42.5536 41.2207 42.5619 41.0915C42.5327 41.1374 42.5077 41.1624 42.4869 41.1832C42.4911 41.1707 42.4952 41.1582 42.5036 41.1457C42.4202 41.1707 42.4036 41.2248 42.4202 41.2623C42.4077 41.2873 42.3952 41.3165 42.3786 41.3665C42.4202 41.1332 42.2077 41.2957 42.3327 41.0249C42.1286 40.9999 41.8661 41.2165 41.6702 41.2499C41.7244 41.104 41.8202 40.9957 41.8869 40.9665H41.7577C41.8619 40.7665 41.8744 40.879 41.9244 40.8582C41.9661 40.4749 41.5119 41.0541 41.5202 40.6832L41.4119 40.8249V40.7957C41.3744 40.879 41.2869 40.9749 41.2494 40.9915C41.3202 40.8082 41.4536 40.5915 41.3786 40.5665C41.4077 40.3707 41.1786 40.5665 41.0577 40.6249C41.0827 40.6749 41.0202 40.7624 40.9702 40.8165C40.9327 40.804 40.9994 40.6207 40.9369 40.6832L41.0536 40.4499C40.9536 40.6749 40.8411 40.6415 40.7786 40.729C40.8494 40.5457 40.9119 40.6082 40.9869 40.4832C40.8369 40.4332 40.9119 40.4582 40.7619 40.4082C40.5952 40.5457 40.6619 40.6374 40.5202 40.8207C40.4286 40.8332 40.2786 40.9582 40.2786 40.779L40.1952 40.9957C39.9869 41.0916 39.9244 41.0249 39.9494 40.7749C39.0411 41.3665 38.6827 41.9123 38.5577 42.3082C38.4327 42.7082 38.5369 42.9582 38.5369 42.9582C38.6702 43.6124 39.1827 43.1124 39.7077 43.1832L39.7036 43.154Z" fill="#20BB65"/>
<path d="M60.7162 48.3042V48.4042C60.7329 48.3625 60.7329 48.3209 60.7162 48.3042Z" fill="#20BB65"/>
<path d="M68.5745 50.3085C68.5745 50.3085 68.5828 50.2959 68.587 50.2876C68.5786 50.2959 68.5786 50.3001 68.5745 50.3085Z" fill="#20BB65"/>
<path d="M61.0203 51.7959C61.0203 51.7959 61.012 51.8084 61.0037 51.8168L61.0203 51.7959Z" fill="#20BB65"/>
<path d="M59.4829 51.0708C59.8704 51.3083 59.8579 51.775 60.3454 51.725C60.5454 51.8209 60.7954 51.7833 61.0162 51.7917C61.2079 51.4792 61.2871 51.8625 61.4829 51.6084L61.4746 51.8125C61.5412 51.725 61.6079 51.675 61.6162 51.7875L61.5996 51.8417C61.6996 51.7125 61.7412 51.8167 61.7912 51.7542L61.7746 51.8084H61.8537L61.8204 51.8792C61.9662 51.7542 62.0746 51.7709 62.1496 51.8667L62.2037 51.6292C62.3329 51.9458 62.537 51.4792 62.6329 51.8417L62.6162 51.8958C63.0121 51.3417 62.8662 52.4125 63.2579 51.8917C63.2079 51.9583 63.2371 52.0167 63.2204 52.0709C63.3454 52.0334 63.4704 52.0292 63.5954 51.5709C63.6745 51.6 63.6204 51.7334 63.5871 51.9125C63.6412 51.7125 63.7287 51.6459 63.7954 51.65L63.7454 51.7209L63.9412 51.7L64.0037 51.3125C64.0704 51.4458 63.9079 51.7834 64.0204 51.7125L64.0996 51.3959C64.2121 51.4917 64.1662 51.9875 64.2329 52.2542C64.7246 52.525 65.4871 51.8583 65.8371 52.5333L65.7996 52.775C65.7246 53.125 66.0579 52.2917 65.9996 52.6208L66.0954 52.475C66.0954 52.5417 66.1121 52.6167 66.0662 52.6875C66.1162 52.7125 66.1287 52.6583 66.1954 52.5625V52.7917C66.3662 53.0083 66.6454 52.6333 66.8412 52.7708C66.9996 53.275 67.5912 52.9834 67.9287 52.8084C68.4454 52.3792 68.6037 53.8708 69.1454 53.3625C69.1454 53.4167 69.2079 53.3125 69.2162 53.2709L69.5829 53.4C69.5829 53.4 70.0329 53.5292 70.3829 53.2583C70.7371 52.9875 70.9787 52.3167 70.5954 50.725L70.6204 50.65C70.4579 50.4208 70.3412 50.3542 70.1204 50.7083C70.1996 50.2333 69.9662 50.625 69.9495 50.4625L69.9621 50.425C69.7621 50.7584 69.7746 50.0709 69.5871 50.3667C69.5996 50.3292 69.6287 50.2042 69.6579 50.2C69.5579 50.2417 69.4162 50.3167 69.4704 50.0459C69.2496 50.0709 68.9912 49.8833 68.7621 50.2875L68.7871 50.2125C68.6454 50.4875 68.6787 50.2334 68.5621 50.3625C68.5621 50.325 68.5621 50.3042 68.5662 50.2917C68.4204 50.5625 68.3162 50.2833 68.2204 50.3917L68.2579 50.2084H68.0871L68.1371 50.2667C68.0037 50.7584 68.087 49.925 67.8912 50.2208C67.7954 50.1333 67.4287 51.2 67.3662 50.9292C67.2579 51.15 67.5037 50.5625 67.3787 50.7209C67.4371 50.4625 67.4537 50.5667 67.4829 50.3542C67.3746 50.4584 67.4121 50.0584 67.2746 50.2125L67.3162 50.0084C67.0996 50.3459 67.1371 49.6833 66.9662 50.0167C66.7912 50.15 67.0204 49.3958 66.7871 49.7583L66.7995 49.475C66.7495 49.4167 66.6745 49.8 66.6412 49.65C66.687 49.4792 66.5912 49.4917 66.6704 49.3375C66.5871 49.0333 66.2746 49.6458 66.1912 49.1417C66.0662 49.4667 66.0162 49.2417 65.9246 49.4834C65.9537 49.3375 65.7329 49.4125 65.9246 49.125C65.9412 49.1 65.9579 49.1125 65.9412 49.1667L66.0037 48.9708C65.9871 48.5708 65.7495 49.125 65.6537 49.0417C65.6704 49.1167 65.7162 49.1083 65.6537 49.2375L65.5579 49.1833L65.6204 49.0208L65.4912 48.8833L65.4579 49.0958C65.4121 48.9708 65.4746 48.6125 65.3162 48.8875C65.2371 49.0417 65.3162 49.1833 65.2204 49.2292C65.1579 49.0625 65.062 48.8125 64.9495 48.7208C64.9037 48.9542 64.8704 48.9375 64.8204 48.975L64.8704 48.775C64.662 49.0208 64.9371 48.3208 64.7454 48.5083L64.7954 48.3709L64.6496 48.7833C64.4246 49.15 64.6912 48.35 64.4162 48.8584C64.4787 48.8375 64.3246 49.3084 64.2829 49.2042L64.3495 49.0167C64.3037 49.05 64.2704 49.125 64.2537 49.0792C64.3037 48.9792 64.3412 48.8 64.2787 48.8208L64.3787 48.5875L64.1829 48.9167C64.1621 48.6875 63.9704 48.9167 64.0079 48.6334C64.0079 48.6334 63.8787 48.4542 63.7579 48.7459C63.8412 48.5709 63.7662 48.475 63.8537 48.2625C63.7537 48.4625 63.5829 48.6 63.5912 48.3625L63.6079 48.3417C63.4829 48.0625 63.2037 48.5667 63.1079 48.2417C63.0537 48.475 62.9996 48.325 62.9371 48.6292C62.6787 48.875 62.7871 47.9375 62.4704 48.8375C62.3787 48.8667 62.4371 48.5959 62.4079 48.5375L62.4412 48.4959C62.2704 48.5292 62.2246 48.525 62.1204 48.475C62.0412 48.55 61.9121 48.9709 61.8412 48.8417C61.9204 48.6834 61.8704 48.7 61.8329 48.6917C61.8662 48.6709 61.887 48.6125 61.8745 48.4834C61.8537 48.5334 61.8329 48.5625 61.8162 48.5875C61.8162 48.575 61.8204 48.5625 61.8287 48.5459C61.7496 48.5875 61.7454 48.6417 61.7662 48.675C61.7579 48.7 61.7495 48.7333 61.7454 48.7833C61.7454 48.5458 61.5621 48.7458 61.6371 48.4542C61.4329 48.4667 61.2121 48.7292 61.0246 48.7959C61.0496 48.6417 61.1246 48.5209 61.1871 48.475L61.0621 48.4959C61.1246 48.2834 61.1621 48.3917 61.2079 48.3583C61.1787 47.975 60.8371 48.625 60.7787 48.2625L60.6954 48.4209V48.3917C60.6704 48.4834 60.5996 48.5917 60.5662 48.6167C60.5996 48.425 60.6954 48.1875 60.6162 48.175C60.6079 47.9792 60.4204 48.2167 60.312 48.2917C60.3454 48.3375 60.2995 48.4334 60.262 48.4959C60.2204 48.4917 60.2579 48.3 60.2037 48.3709L60.2746 48.1167C60.2204 48.3584 60.0995 48.3417 60.0537 48.4417C60.087 48.25 60.1621 48.3 60.2121 48.1625L59.9745 48.1292C59.837 48.2959 59.9162 48.3709 59.8121 48.5792C59.7246 48.6084 59.6037 48.7625 59.5662 48.5834L59.5246 48.8125C59.3371 48.9458 59.2662 48.8959 59.2412 48.6417C58.4621 49.3959 58.2121 49.9959 58.1662 50.4125C58.1162 50.8292 58.2704 51.0542 58.2704 51.0542C58.5204 51.6708 58.9287 51.0875 59.4579 51.0542L59.4829 51.0708Z" fill="#20BB65"/>
<path d="M81.066 52.5251L81.0869 52.6251C81.091 52.5793 81.0869 52.5418 81.066 52.5251Z" fill="#20BB65"/>
<path d="M89.1455 53.2586C89.1455 53.2586 89.1497 53.2461 89.1538 53.2378C89.1497 53.2461 89.1455 53.2503 89.1455 53.2586Z" fill="#20BB65"/>
<path d="M81.9247 55.9209C81.9247 55.9209 81.9164 55.9334 81.9122 55.9459L81.9247 55.9209Z" fill="#20BB65"/>
<path d="M80.2954 55.4542C80.7162 55.625 80.7746 56.0875 81.2496 55.9625C81.4621 56.025 81.7038 55.95 81.9204 55.9208C82.0621 55.5833 82.1996 55.9458 82.3496 55.6667L82.3746 55.8708C82.4246 55.775 82.4829 55.7125 82.5121 55.825L82.5037 55.8834C82.5829 55.7417 82.6413 55.8375 82.6788 55.7667L82.6704 55.825L82.7454 55.8083L82.7246 55.8875C82.8496 55.7417 82.9579 55.7417 83.0496 55.825L83.0663 55.5833C83.2454 55.875 83.3704 55.3833 83.5246 55.7208L83.5162 55.7792C83.8162 55.1709 83.8454 56.25 84.1496 55.6708C84.1121 55.7417 84.1496 55.7958 84.1412 55.8542C84.2579 55.7958 84.3829 55.7708 84.4329 55.3C84.5121 55.3167 84.4829 55.4541 84.4787 55.6375C84.4996 55.4291 84.5787 55.35 84.6412 55.3458L84.6038 55.425L84.7912 55.3709V54.975C84.8787 55.0958 84.7704 55.4542 84.8746 55.3667L84.9037 55.0417C85.0287 55.1167 85.0621 55.6167 85.1704 55.8667C85.6996 56.0542 86.3454 55.2792 86.7996 55.8875V56.1333C86.7829 56.4917 86.9829 55.6167 86.9746 55.9459L87.0454 55.7875C87.0579 55.8542 87.0871 55.925 87.0496 56C87.1038 56.0166 87.1079 55.9583 87.1538 55.8542L87.1954 56.0792C87.3954 56.2667 87.6079 55.8542 87.8246 55.9583C88.0621 56.4292 88.5996 56.05 88.9038 55.825C89.3454 55.3208 89.7371 56.7667 90.1954 56.1792C90.2079 56.2292 90.2496 56.1167 90.2496 56.0792L90.6329 56.15C90.6329 56.15 91.0996 56.2084 91.4038 55.8875C91.7079 55.5667 91.8454 54.8667 91.2204 53.3542L91.2329 53.2792C91.0371 53.0792 90.9079 53.0333 90.7454 53.4167C90.7454 52.9375 90.5788 53.3583 90.5371 53.2L90.5454 53.1625C90.3996 53.525 90.3037 52.8417 90.1662 53.1625C90.1746 53.125 90.1829 52.9917 90.2121 52.9875C90.1204 53.0417 89.9954 53.1417 90.0037 52.8625C89.7912 52.9209 89.5038 52.7792 89.3413 53.2125L89.3537 53.1375C89.2579 53.4333 89.2496 53.175 89.1537 53.3208C89.1537 53.2833 89.1454 53.2667 89.1496 53.25C89.0454 53.5417 88.9038 53.2792 88.8246 53.4042L88.8329 53.2167L88.6621 53.25L88.7204 53.2916C88.6663 53.8 88.6162 52.9625 88.4704 53.2834C88.3621 53.2125 88.1663 54.325 88.0663 54.0667C87.9913 54.3 88.1454 53.6834 88.0454 53.8584C88.0621 53.5917 88.0954 53.6958 88.0913 53.4833C87.9996 53.6042 87.9746 53.2042 87.8621 53.375L87.8746 53.1667C87.7121 53.5333 87.6454 52.875 87.5287 53.2292C87.3787 53.3875 87.4829 52.6083 87.3121 53L87.2787 52.7167C87.2204 52.6667 87.2079 53.0542 87.1496 52.9167C87.1663 52.7417 87.0746 52.7709 87.1288 52.6042C86.9996 52.3167 86.7871 52.9708 86.6246 52.4875C86.5537 52.825 86.4704 52.6125 86.4162 52.8667C86.4246 52.7167 86.2162 52.825 86.3579 52.5125C86.3704 52.4875 86.3871 52.4917 86.3788 52.55L86.4079 52.35C86.3287 51.9584 86.1829 52.5417 86.0746 52.475C86.1037 52.5458 86.1496 52.5333 86.1079 52.6666L86.0038 52.6292L86.0412 52.4583L85.8954 52.3459V52.5584C85.8329 52.4417 85.8371 52.0792 85.7246 52.375C85.6704 52.5375 85.7704 52.6667 85.6829 52.725C85.5954 52.5708 85.4621 52.3417 85.3371 52.2667C85.3288 52.5042 85.2913 52.4917 85.2538 52.5375L85.2704 52.3292C85.1037 52.6042 85.2621 51.8709 85.1037 52.0834L85.1288 51.9417L85.0496 52.3708C84.8871 52.7667 85.0246 51.9375 84.8329 52.4833C84.8913 52.4542 84.8163 52.9417 84.7538 52.8458L84.7912 52.65C84.7496 52.6875 84.7288 52.7708 84.7079 52.725C84.7413 52.6208 84.7496 52.4375 84.6912 52.4667L84.7538 52.2208L84.6162 52.5792C84.5579 52.3583 84.4038 52.6125 84.3996 52.3292C84.3996 52.3292 84.2412 52.175 84.1704 52.4792C84.2246 52.2917 84.1371 52.2084 84.1871 51.9875C84.1204 52.2 83.9704 52.3625 83.9412 52.125L83.9538 52.1C83.7871 51.8458 83.5871 52.3875 83.4454 52.0834C83.4287 52.325 83.3496 52.1833 83.3412 52.4917C83.1287 52.775 83.0829 51.8333 82.9121 52.7708C82.8246 52.8125 82.8413 52.5375 82.8038 52.4833L82.8288 52.4375C82.6663 52.4958 82.6204 52.5 82.5079 52.4667C82.4412 52.5542 82.3787 52.9917 82.2912 52.8709C82.3454 52.7 82.2996 52.7292 82.2621 52.725C82.2913 52.7 82.3037 52.6375 82.2662 52.5125C82.2537 52.5666 82.2371 52.5958 82.2246 52.625C82.2246 52.6125 82.2246 52.6 82.2246 52.5833C82.1537 52.6375 82.1579 52.6916 82.1871 52.7208C82.1829 52.7458 82.1829 52.7833 82.1871 52.8292C82.1454 52.5958 81.9996 52.8208 82.0288 52.5208C81.8288 52.5667 81.6538 52.8625 81.4788 52.9583C81.4788 52.8 81.5329 52.6708 81.5871 52.6166L81.4662 52.6584C81.4954 52.4375 81.5454 52.5375 81.5871 52.5C81.4954 52.125 81.2662 52.825 81.1496 52.475L81.0954 52.6458V52.6166C81.0787 52.7083 81.0287 52.8292 80.9996 52.8583C80.9996 52.6625 81.0579 52.4125 80.9788 52.4167C80.9413 52.225 80.7913 52.4875 80.6954 52.5792C80.7329 52.6167 80.7079 52.7208 80.6787 52.7875C80.6371 52.7875 80.6412 52.5917 80.5996 52.6708L80.6287 52.4083C80.6121 52.6541 80.4913 52.6584 80.4621 52.7625C80.4621 52.5667 80.5454 52.6041 80.5746 52.4583H80.3329C80.2246 52.65 80.3162 52.7125 80.2454 52.9333C80.1662 52.975 80.0662 53.1458 80.0037 52.9791V53.2125C79.8371 53.375 79.7579 53.3333 79.6954 53.0875C79.0496 53.9583 78.8996 54.5917 78.9204 55.0084C78.9413 55.425 79.1246 55.625 79.1246 55.625C79.4704 56.1917 79.7787 55.55 80.2954 55.4333V55.4542Z" fill="#20BB65"/>
<path d="M101.829 53.4958L101.862 53.5917C101.862 53.5458 101.85 53.5083 101.829 53.4958Z" fill="#20BB65"/>
<path d="M109.917 52.9249C109.917 52.9249 109.917 52.9124 109.921 52.9041C109.917 52.9124 109.917 52.9207 109.917 52.9249Z" fill="#20BB65"/>
<path d="M103.216 56.7124C103.216 56.7124 103.212 56.729 103.208 56.7374L103.216 56.7124Z" fill="#20BB65"/>
<path d="M101.529 56.5084C101.97 56.6126 102.104 57.0584 102.554 56.8584C102.775 56.8876 103 56.7709 103.212 56.7084C103.3 56.3542 103.491 56.6917 103.595 56.3917L103.65 56.5876C103.687 56.4834 103.733 56.4125 103.779 56.5209V56.5792C103.833 56.425 103.908 56.5126 103.933 56.4334V56.4917L104.008 56.4626L104 56.5459C104.1 56.3792 104.208 56.3667 104.308 56.4334L104.287 56.1917C104.508 56.4501 104.558 55.9459 104.762 56.2543V56.3125C104.962 55.6625 105.162 56.725 105.37 56.1042C105.345 56.1834 105.391 56.2292 105.391 56.2876C105.5 56.2126 105.616 56.1667 105.591 55.6959C105.675 55.6959 105.666 55.8417 105.687 56.0209C105.675 55.8126 105.737 55.7209 105.8 55.7042L105.775 55.7876L105.954 55.7042L105.891 55.3126C105.995 55.4209 105.945 55.7875 106.033 55.6875L106.012 55.3626C106.15 55.4167 106.262 55.9042 106.408 56.1376C106.958 56.2376 107.474 55.3667 108.02 55.8959L108.062 56.1376C108.1 56.4917 108.158 55.6001 108.204 55.9251L108.25 55.7584C108.27 55.8209 108.312 55.8876 108.291 55.9667C108.345 55.9751 108.341 55.9167 108.37 55.8084L108.445 56.0251C108.675 56.1792 108.816 55.7376 109.05 55.8042C109.358 56.2292 109.829 55.7709 110.095 55.4959C110.45 54.9251 111.075 56.2875 111.429 55.6375C111.45 55.6875 111.47 55.5709 111.466 55.5293L111.854 55.5375C111.854 55.5375 112.325 55.5167 112.57 55.1501C112.82 54.7834 112.833 54.0709 111.97 52.6834V52.6042C111.745 52.4417 111.612 52.4126 111.516 52.8209C111.441 52.3459 111.341 52.7917 111.279 52.6417V52.6042C111.195 52.9834 110.987 52.3292 110.904 52.6709C110.904 52.6334 110.891 52.5001 110.92 52.4917C110.841 52.5626 110.733 52.6793 110.695 52.4043C110.495 52.5001 110.191 52.4042 110.1 52.8584V52.7792C110.054 53.0875 110.008 52.8334 109.937 52.9959C109.929 52.9584 109.92 52.9418 109.92 52.9251C109.866 53.2293 109.683 52.9959 109.625 53.1293L109.604 52.9459L109.441 53.0042L109.508 53.0375C109.537 53.5459 109.35 52.7292 109.262 53.0709C109.145 53.0167 109.133 54.1501 108.991 53.9084C108.958 54.1501 109.004 53.5167 108.937 53.7084C108.912 53.4417 108.962 53.5376 108.92 53.3292C108.85 53.4626 108.762 53.0709 108.675 53.2584L108.654 53.0542C108.554 53.4417 108.379 52.8042 108.325 53.1709C108.204 53.3542 108.179 52.5667 108.075 52.9834L107.995 52.7084C107.933 52.6667 107.979 53.0543 107.904 52.9251C107.891 52.7501 107.808 52.7917 107.833 52.6209C107.658 52.3584 107.554 53.0376 107.32 52.5876C107.304 52.9334 107.187 52.7376 107.175 52.9959C107.158 52.8459 106.97 52.9876 107.058 52.6542C107.066 52.6251 107.083 52.6292 107.087 52.6876V52.4834C106.941 52.1084 106.895 52.7084 106.775 52.6584C106.812 52.7251 106.858 52.7001 106.837 52.8459L106.729 52.825L106.737 52.6542L106.575 52.5667L106.612 52.775C106.529 52.6709 106.475 52.3125 106.412 52.6209C106.383 52.7917 106.504 52.9001 106.429 52.9751C106.316 52.8376 106.15 52.6292 106.012 52.5751C106.041 52.8126 106.004 52.8042 105.97 52.8584L105.954 52.6501C105.833 52.9459 105.875 52.2001 105.75 52.4376V52.2917L105.745 52.725C105.65 53.1417 105.65 52.3001 105.55 52.8709C105.604 52.8334 105.604 53.325 105.533 53.2417V53.0417C105.504 53.0876 105.495 53.1709 105.466 53.1293C105.483 53.0209 105.458 52.8375 105.408 52.875L105.429 52.6209L105.35 52.9959C105.258 52.7876 105.145 53.0626 105.095 52.7834C105.095 52.7834 104.916 52.6542 104.895 52.9667C104.92 52.7709 104.82 52.7042 104.833 52.4792C104.8 52.7001 104.679 52.8834 104.616 52.6542L104.625 52.6292C104.416 52.4042 104.312 52.9709 104.12 52.6917C104.141 52.9334 104.041 52.8042 104.079 53.1126C103.912 53.4251 103.72 52.5042 103.7 53.4584C103.62 53.5126 103.591 53.2417 103.545 53.1917L103.562 53.1417C103.412 53.225 103.366 53.2376 103.25 53.2209C103.195 53.3167 103.208 53.7584 103.1 53.6543C103.125 53.4793 103.083 53.5126 103.045 53.5126C103.07 53.4834 103.075 53.4209 103.016 53.3042C103.012 53.3584 103.004 53.3917 102.991 53.4209C102.991 53.4084 102.991 53.3959 102.991 53.3792C102.929 53.4459 102.941 53.5001 102.975 53.5209C102.975 53.5459 102.975 53.5834 102.991 53.6292C102.916 53.4042 102.808 53.6542 102.787 53.35C102.595 53.4292 102.47 53.7459 102.316 53.8667C102.291 53.7125 102.325 53.5751 102.37 53.5126L102.258 53.5751C102.25 53.3501 102.32 53.4459 102.354 53.4C102.204 53.0417 102.087 53.7709 101.916 53.4459L101.891 53.6251L101.883 53.5959C101.883 53.6876 101.854 53.8167 101.833 53.8501C101.804 53.6584 101.82 53.4001 101.741 53.4167C101.675 53.2334 101.566 53.5167 101.487 53.6251C101.533 53.6584 101.52 53.7667 101.504 53.8334C101.466 53.8417 101.437 53.6459 101.408 53.7334L101.395 53.4709C101.416 53.7167 101.3 53.7417 101.287 53.8501C101.258 53.6542 101.345 53.6792 101.35 53.5334C101.191 53.5626 101.27 53.5459 101.112 53.5751C101.033 53.7751 101.133 53.8209 101.1 54.0542C101.025 54.1084 100.958 54.2917 100.866 54.1376L100.9 54.3709C100.762 54.5542 100.679 54.5292 100.579 54.2959C100.075 55.2584 100.029 55.9042 100.112 56.3167C100.195 56.725 100.412 56.8959 100.412 56.8959C100.845 57.4042 101.045 56.7167 101.541 56.5209L101.529 56.5084Z" fill="#20BB65"/>
<path d="M122.428 50.9832L122.482 51.0706C122.474 51.029 122.457 50.9915 122.428 50.9832Z" fill="#20BB65"/>
<path d="M130.466 49.3041C130.466 49.3041 130.466 49.2915 130.466 49.2832C130.466 49.2915 130.462 49.2999 130.466 49.3041Z" fill="#20BB65"/>
<path d="M122.683 53.9958C123.129 54.025 123.337 54.4417 123.737 54.175C123.954 54.1667 124.154 54.0208 124.345 53.925C124.37 53.5625 124.612 53.8667 124.666 53.5542L124.754 53.7417C124.77 53.6334 124.804 53.5584 124.866 53.6542L124.874 53.7125C124.904 53.5542 124.987 53.6292 124.999 53.5459L125.008 53.6042L125.074 53.5625V53.6459C125.149 53.4667 125.254 53.4375 125.362 53.4875L125.304 53.2542C125.558 53.4792 125.529 52.9708 125.774 53.25L125.783 53.3083C125.879 52.6375 126.233 53.6584 126.345 53.0209C126.333 53.1 126.383 53.1417 126.391 53.2C126.487 53.1083 126.595 53.05 126.499 52.5875C126.579 52.5792 126.595 52.7208 126.641 52.8958C126.599 52.6917 126.649 52.5917 126.708 52.5667L126.695 52.65L126.858 52.5459L126.745 52.1667C126.862 52.2583 126.866 52.6292 126.937 52.5208L126.87 52.2042C127.012 52.2417 127.187 52.7084 127.362 52.9167C127.912 52.9459 128.304 52.0167 128.904 52.4792L128.974 52.7167C129.054 53.0667 129.004 52.1709 129.087 52.4917L129.112 52.3208C129.141 52.3792 129.187 52.4417 129.174 52.525C129.229 52.525 129.22 52.4708 129.237 52.3583L129.337 52.5667C129.579 52.6958 129.666 52.2375 129.899 52.2792C130.249 52.6708 130.658 52.1625 130.891 51.8667C131.187 51.2625 131.92 52.5625 132.208 51.8792C132.233 51.925 132.241 51.8084 132.237 51.7667L132.62 51.7417C132.62 51.7417 134.449 51.5083 132.52 48.8792V48.8C132.274 48.6542 132.137 48.6417 132.07 49.0542C131.958 48.5875 131.891 49.0417 131.816 48.8958V48.8584C131.758 49.2459 131.495 48.6084 131.441 48.9584C131.441 48.9209 131.416 48.7917 131.441 48.775C131.366 48.8542 131.266 48.9833 131.204 48.7083C131.008 48.825 130.691 48.7542 130.641 49.2209V49.1417C130.616 49.4542 130.545 49.2042 130.491 49.375C130.479 49.3417 130.47 49.3208 130.466 49.3083C130.441 49.6167 130.233 49.4042 130.191 49.5417L130.149 49.3625L129.991 49.4375L130.062 49.4625C130.141 49.9667 129.874 49.175 129.82 49.525C129.695 49.4834 129.799 50.6125 129.633 50.3917C129.624 50.6375 129.608 50 129.558 50.2C129.504 49.9417 129.566 50.0292 129.499 49.825C129.441 49.9667 129.312 49.5875 129.245 49.7834L129.199 49.5792C129.141 49.9792 128.895 49.3625 128.883 49.7334C128.779 49.9292 128.67 49.15 128.608 49.575L128.495 49.3125C128.424 49.2792 128.52 49.6584 128.424 49.5375C128.395 49.3625 128.312 49.4167 128.316 49.2458C128.108 49.0042 128.087 49.6917 127.791 49.275C127.816 49.6209 127.674 49.4417 127.695 49.7C127.662 49.5542 127.487 49.7167 127.537 49.375C127.541 49.3459 127.558 49.35 127.57 49.4042L127.541 49.2C127.349 48.8458 127.374 49.45 127.249 49.4167C127.295 49.475 127.337 49.45 127.337 49.5917H127.224L127.212 49.4125L127.037 49.3458L127.099 49.55C126.999 49.4583 126.899 49.1084 126.874 49.425C126.87 49.5959 127.004 49.6917 126.937 49.7708C126.804 49.65 126.608 49.4667 126.466 49.4334C126.529 49.6667 126.491 49.6625 126.466 49.7167L126.42 49.5125C126.341 49.825 126.279 49.075 126.187 49.3292L126.17 49.1833L126.22 49.6167C126.179 50.0458 126.066 49.2084 126.041 49.7875C126.087 49.7417 126.158 50.2292 126.074 50.1542L126.049 49.9542C126.02 50.0042 126.024 50.0875 125.991 50.0542C125.991 49.9459 125.945 49.7667 125.895 49.8125L125.883 49.5583L125.854 49.9417C125.729 49.7459 125.658 50.0375 125.57 49.7667C125.57 49.7667 125.37 49.6667 125.395 49.9792C125.391 49.7833 125.283 49.7333 125.262 49.5042C125.262 49.725 125.166 49.9292 125.066 49.7125V49.6834C124.829 49.4917 124.804 50.0667 124.57 49.8208C124.629 50.0542 124.508 49.9458 124.595 50.2417C124.479 50.575 124.137 49.6958 124.27 50.6417C124.199 50.7083 124.129 50.4417 124.074 50.4042L124.083 50.35C123.945 50.4583 123.904 50.475 123.783 50.4792C123.745 50.5833 123.829 51.0167 123.704 50.9334C123.704 50.7542 123.666 50.7958 123.629 50.8042C123.645 50.7708 123.641 50.7083 123.566 50.6042C123.57 50.6583 123.566 50.6959 123.566 50.725C123.566 50.7125 123.558 50.7 123.558 50.6834C123.508 50.7584 123.529 50.8084 123.566 50.825C123.566 50.85 123.579 50.8834 123.599 50.9292C123.487 50.7209 123.42 50.9833 123.349 50.6875C123.174 50.7958 123.099 51.1292 122.966 51.275C122.916 51.125 122.924 50.9833 122.958 50.9167L122.858 50.9959C122.812 50.7792 122.895 50.8583 122.92 50.8042C122.708 50.4792 122.72 51.2125 122.491 50.9208V51.1L122.479 51.075C122.499 51.1667 122.491 51.2958 122.474 51.3333C122.412 51.1458 122.383 50.8958 122.304 50.9208C122.204 50.75 122.149 51.05 122.091 51.1667C122.141 51.1917 122.149 51.3 122.145 51.3708C122.108 51.3833 122.045 51.2 122.033 51.2875L121.974 51.0334C122.041 51.2709 121.929 51.3167 121.937 51.425C121.874 51.2375 121.962 51.25 121.937 51.1042C121.787 51.1625 121.862 51.1333 121.712 51.1875C121.67 51.4 121.779 51.4292 121.787 51.6625C121.724 51.7292 121.691 51.9208 121.574 51.7833L121.649 52.0042C121.549 52.2083 121.462 52.2 121.32 51.9917C120.999 53.0292 121.07 53.675 121.229 54.0625C121.387 54.45 121.629 54.575 121.629 54.575C122.145 54.9917 122.224 54.2834 122.674 54.0042L122.683 53.9958Z" fill="#20BB65"/>
<path d="M143.116 47.0461L143.162 47.1378C143.153 47.092 143.141 47.0586 143.116 47.0461Z" fill="#20BB65"/>
<path d="M151.233 45.7752C151.233 45.7752 151.233 45.7627 151.237 45.7544C151.233 45.7627 151.233 45.7711 151.233 45.7752Z" fill="#20BB65"/>
<path d="M144.883 50.0793C144.883 50.0793 144.883 50.096 144.879 50.1044V50.0793H144.883Z" fill="#20BB65"/>
<path d="M143.216 50.0668C143.662 50.1168 143.845 50.5459 144.258 50.3001C144.475 50.3043 144.683 50.1668 144.879 50.0834C144.92 49.7209 145.15 50.0376 145.216 49.7293L145.291 49.9209C145.316 49.8168 145.35 49.7418 145.408 49.8418L145.416 49.9001C145.454 49.7418 145.533 49.821 145.55 49.7418L145.558 49.8001L145.625 49.7626V49.846C145.704 49.671 145.808 49.6459 145.916 49.7043L145.87 49.4668C146.112 49.7043 146.112 49.196 146.341 49.4876L146.35 49.5459C146.483 48.8793 146.779 49.9209 146.925 49.2876C146.908 49.3668 146.958 49.4084 146.962 49.4668C147.062 49.3834 147.17 49.3293 147.1 48.8585C147.179 48.8543 147.187 48.996 147.225 49.1751C147.191 48.971 147.25 48.8751 147.308 48.8501L147.291 48.9334L147.458 48.8376L147.362 48.4543C147.475 48.5501 147.458 48.9251 147.533 48.8168L147.483 48.496C147.625 48.5376 147.775 49.0168 147.937 49.2334C148.483 49.2918 148.925 48.3834 149.5 48.8751L149.558 49.1126C149.62 49.4668 149.616 48.5668 149.683 48.8918L149.716 48.7209C149.741 48.7834 149.787 48.8459 149.766 48.9293C149.82 48.9334 149.812 48.8751 149.837 48.7626L149.925 48.9751C150.158 49.1126 150.27 48.6626 150.504 48.7168C150.829 49.1251 151.266 48.6376 151.516 48.3543C151.841 47.7668 152.504 49.1043 152.829 48.4376C152.85 48.4876 152.866 48.3668 152.862 48.3251L153.245 48.3168C153.245 48.3168 155.083 48.1751 153.304 45.4501V45.371C153.07 45.2126 152.933 45.1918 152.845 45.6043C152.758 45.1334 152.67 45.5793 152.6 45.4334V45.3959C152.525 45.7793 152.295 45.1292 152.22 45.4792C152.22 45.4417 152.204 45.3084 152.233 45.2959C152.154 45.3709 152.045 45.4918 152 45.2168C151.8 45.321 151.483 45.2376 151.412 45.7001V45.621C151.375 45.9293 151.316 45.6793 151.254 45.8459C151.245 45.8084 151.237 45.7918 151.233 45.7793C151.191 46.0876 150.995 45.8626 150.945 46.0001L150.916 45.8168L150.754 45.8835L150.82 45.9126C150.87 46.4209 150.65 45.6168 150.575 45.9626C150.454 45.9168 150.495 47.0459 150.341 46.8168C150.32 47.0626 150.337 46.4251 150.279 46.621C150.237 46.3585 150.295 46.4501 150.241 46.2418C150.179 46.3793 150.066 45.9918 149.991 46.1876L149.958 45.9834C149.879 46.3793 149.666 45.7501 149.633 46.1209C149.52 46.3126 149.454 45.5251 149.366 45.9501L149.27 45.6793C149.204 45.6418 149.275 46.0251 149.187 45.9001C149.166 45.7251 149.083 45.7751 149.095 45.6001C148.9 45.3501 148.841 46.0334 148.57 45.6001C148.579 45.9459 148.445 45.7584 148.45 46.0209C148.42 45.8751 148.241 46.0292 148.308 45.6876C148.312 45.6584 148.333 45.6626 148.341 45.7209L148.325 45.5168C148.154 45.1543 148.145 45.7584 148.025 45.7168C148.066 45.7793 148.112 45.7542 148.1 45.8959L147.991 45.8835V45.7084L147.816 45.6335L147.87 45.8418C147.779 45.746 147.695 45.3918 147.654 45.7043C147.641 45.8751 147.77 45.9751 147.7 46.0543C147.575 45.9251 147.387 45.7334 147.245 45.6918C147.295 45.9251 147.258 45.9209 147.229 45.9751L147.195 45.7709C147.1 46.0751 147.075 45.3293 146.97 45.5751L146.962 45.4293L146.991 45.8626C146.929 46.2876 146.858 45.4459 146.804 46.0251C146.854 45.9834 146.9 46.4751 146.816 46.3959L146.804 46.196C146.775 46.2418 146.775 46.3293 146.741 46.2918C146.745 46.1834 146.708 46.0001 146.658 46.046V45.7917L146.608 46.1709C146.495 45.9709 146.408 46.2584 146.333 45.9834C146.333 45.9834 146.137 45.8751 146.145 46.1834C146.15 45.9876 146.045 45.9293 146.037 45.7043C146.025 45.9251 145.92 46.1209 145.833 45.9001V45.8709C145.608 45.6668 145.554 46.2418 145.333 45.9834C145.379 46.2209 145.266 46.1043 145.333 46.4043C145.2 46.7335 144.904 45.8376 144.987 46.7876C144.912 46.8501 144.854 46.5834 144.804 46.5418L144.816 46.4876C144.675 46.5876 144.629 46.6043 144.512 46.6001C144.47 46.7001 144.529 47.1376 144.412 47.0501C144.416 46.8709 144.379 46.9084 144.341 46.9168C144.362 46.8876 144.358 46.8209 144.291 46.7126C144.291 46.7668 144.287 46.8001 144.283 46.8293C144.283 46.8168 144.275 46.8043 144.275 46.7876C144.22 46.8584 144.241 46.9126 144.275 46.9293C144.275 46.9543 144.287 46.9876 144.304 47.0376C144.2 46.8251 144.12 47.0793 144.062 46.7834C143.879 46.8834 143.791 47.2126 143.65 47.3501C143.608 47.2001 143.62 47.0584 143.658 46.9918L143.554 47.0668C143.52 46.8459 143.6 46.9293 143.625 46.8793C143.429 46.5418 143.404 47.2793 143.191 46.9751V47.1543L143.175 47.1251C143.191 47.2168 143.175 47.3501 143.158 47.3834C143.104 47.1959 143.087 46.9418 143.008 46.9626C142.916 46.7876 142.845 47.0834 142.783 47.2001C142.833 47.2251 142.837 47.3335 142.829 47.4043C142.791 47.4168 142.737 47.2293 142.72 47.3168L142.675 47.0584C142.729 47.3001 142.616 47.3376 142.616 47.446C142.562 47.2585 142.65 47.2709 142.637 47.1251C142.483 47.1751 142.558 47.1501 142.408 47.196C142.358 47.4043 142.462 47.4376 142.462 47.6709C142.395 47.7334 142.354 47.9251 142.241 47.7834L142.308 48.0084C142.2 48.2084 142.112 48.196 141.979 47.9751C141.258 50.0043 142.191 50.5668 142.191 50.5668C142.683 51.0126 142.779 50.3126 143.237 50.0585L143.216 50.0668Z" fill="#20BB65"/>
<path d="M163.995 44.2249L164.037 44.3165C164.033 44.2707 164.02 44.2332 163.995 44.2249Z" fill="#20BB65"/>
<path d="M172.191 43.4874C172.191 43.4874 172.191 43.4749 172.195 43.4666C172.191 43.4749 172.191 43.4832 172.191 43.4874Z" fill="#20BB65"/>
<path d="M165.566 47.354C165.566 47.354 165.566 47.3707 165.562 47.379L165.57 47.354H165.566Z" fill="#20BB65"/>
<path d="M163.908 47.2541C164.349 47.3249 164.508 47.7666 164.933 47.5375C165.149 47.5541 165.362 47.4291 165.566 47.3541C165.628 46.9958 165.837 47.325 165.924 47.0166L165.987 47.2125C166.016 47.1083 166.058 47.0375 166.108 47.1375V47.1958C166.158 47.0375 166.233 47.1249 166.253 47.0458V47.1041L166.329 47.0708V47.1541C166.412 46.9833 166.52 46.9625 166.62 47.0291L166.591 46.7874C166.82 47.0374 166.845 46.5333 167.058 46.8333V46.8916C167.233 46.2333 167.466 47.2916 167.649 46.6666C167.624 46.7458 167.674 46.7875 167.674 46.85C167.779 46.7708 167.891 46.725 167.853 46.25C167.933 46.25 167.933 46.3916 167.958 46.5749C167.941 46.3666 167.999 46.275 168.062 46.2583L168.041 46.3416L168.216 46.2542L168.145 45.8666C168.249 45.9708 168.212 46.3416 168.295 46.2375L168.266 45.9125C168.404 45.9666 168.524 46.4499 168.67 46.6791C169.208 46.7749 169.712 45.9 170.249 46.4333L170.291 46.675C170.329 47.0292 170.387 46.1375 170.429 46.4667L170.474 46.3C170.495 46.3625 170.537 46.4291 170.512 46.5083C170.566 46.5166 170.562 46.4583 170.591 46.35L170.666 46.5667C170.887 46.7208 171.033 46.2791 171.258 46.35C171.554 46.7833 172.02 46.3291 172.291 46.0666C172.658 45.5041 173.224 46.8917 173.595 46.2542C173.612 46.3042 173.641 46.1875 173.637 46.1458L174.016 46.1708C174.016 46.1708 175.862 46.1916 174.279 43.325V43.2458C174.062 43.0708 173.929 43.0375 173.808 43.4375C173.754 42.9583 173.633 43.3999 173.574 43.2458V43.2083C173.474 43.5833 173.295 42.9208 173.191 43.2583C173.191 43.2208 173.191 43.0875 173.216 43.0792C173.128 43.1458 173.016 43.2624 172.991 42.9833C172.783 43.0708 172.474 42.9625 172.37 43.4166V43.3375C172.316 43.6417 172.274 43.3875 172.199 43.55C172.191 43.5125 172.183 43.4958 172.183 43.4791C172.12 43.7833 171.937 43.5416 171.878 43.675L171.862 43.4916L171.695 43.5458L171.762 43.5791C171.778 44.0916 171.612 43.2708 171.512 43.6083C171.391 43.5541 171.358 44.6833 171.22 44.4416C171.183 44.6833 171.241 44.05 171.17 44.2416C171.149 43.975 171.195 44.0708 171.158 43.8625C171.083 43.9958 170.999 43.6 170.912 43.7875L170.891 43.5791C170.787 43.9666 170.616 43.325 170.554 43.6916C170.429 43.8708 170.412 43.0833 170.299 43.4999L170.22 43.225C170.154 43.1833 170.204 43.5708 170.124 43.4417C170.116 43.2667 170.028 43.3083 170.053 43.1374C169.878 42.8749 169.77 43.5541 169.528 43.1041C169.512 43.45 169.391 43.2541 169.378 43.5125C169.362 43.3625 169.17 43.5041 169.258 43.1708C169.266 43.1416 169.283 43.1458 169.287 43.2041V43C169.137 42.625 169.091 43.2291 168.97 43.1791C169.012 43.2416 169.054 43.2208 169.037 43.3625L168.929 43.3458L168.937 43.1708L168.77 43.0833L168.812 43.2916C168.724 43.1874 168.666 42.8333 168.604 43.1374C168.579 43.3083 168.699 43.4166 168.624 43.4875C168.508 43.35 168.333 43.15 168.195 43.0958C168.229 43.3333 168.195 43.3291 168.158 43.3791L168.137 43.1708C168.02 43.4708 168.045 42.7208 167.924 42.9625V42.8167V43.2499C167.833 43.6708 167.82 42.8249 167.729 43.3999C167.783 43.3583 167.795 43.8541 167.72 43.7708V43.5708C167.687 43.6166 167.683 43.6999 167.653 43.6624C167.666 43.5541 167.641 43.3708 167.587 43.4083L167.603 43.1541L167.529 43.5291C167.429 43.3208 167.324 43.6 167.266 43.325C167.266 43.325 167.079 43.2041 167.066 43.5125C167.083 43.3166 166.983 43.2542 166.987 43.025C166.962 43.2458 166.845 43.4333 166.77 43.2083L166.779 43.1833C166.558 42.9667 166.47 43.5375 166.266 43.2666C166.295 43.5041 166.191 43.3833 166.241 43.6875C166.087 44.0083 165.849 43.0958 165.87 44.05C165.791 44.1083 165.749 43.8375 165.704 43.7916L165.72 43.7416C165.57 43.8333 165.528 43.8458 165.408 43.8375C165.358 43.9375 165.391 44.375 165.279 44.2792C165.295 44.1 165.258 44.1375 165.216 44.1416C165.237 44.1125 165.241 44.0458 165.179 43.9333C165.179 43.9875 165.17 44.0208 165.162 44.05C165.162 44.0375 165.158 44.025 165.158 44.0083C165.099 44.075 165.116 44.1291 165.149 44.15C165.149 44.175 165.158 44.2125 165.17 44.2583C165.083 44.0375 164.983 44.2916 164.945 43.9916C164.758 44.0791 164.649 44.4042 164.499 44.5375C164.466 44.3833 164.491 44.2458 164.533 44.1791L164.424 44.2458C164.403 44.025 164.479 44.1125 164.508 44.0625C164.337 43.7166 164.262 44.45 164.066 44.1375L164.049 44.3166L164.037 44.2874C164.045 44.3791 164.024 44.5124 164.003 44.5416C163.962 44.3499 163.962 44.0958 163.883 44.1166C163.799 43.9375 163.712 44.2291 163.641 44.3416C163.687 44.3708 163.687 44.4791 163.674 44.5499C163.637 44.5624 163.591 44.3708 163.57 44.4541L163.541 44.1916C163.583 44.4375 163.466 44.4666 163.462 44.575C163.42 44.3833 163.508 44.4041 163.504 44.2541C163.345 44.2958 163.424 44.275 163.27 44.3166C163.203 44.5208 163.312 44.5625 163.295 44.7958C163.224 44.8542 163.17 45.0458 163.07 44.8958L163.12 45.1249C162.999 45.3208 162.912 45.3 162.791 45.075C161.945 47.0708 162.841 47.6791 162.841 47.6791C163.303 48.15 163.445 47.45 163.912 47.2208L163.908 47.2541Z" fill="#20BB65"/>
<path d="M185.054 42.95L185.087 43.0458C185.087 42.9999 185.079 42.9625 185.054 42.95Z" fill="#20BB65"/>
<path d="M193.291 42.9417C193.291 42.9417 193.295 42.9292 193.299 42.9209C193.295 42.9292 193.291 42.9334 193.291 42.9417Z" fill="#20BB65"/>
<path d="M186.354 46.2C186.354 46.2 186.35 46.2166 186.345 46.2249L186.354 46.2Z" fill="#20BB65"/>
<path d="M184.712 45.9625C185.145 46.0708 185.266 46.525 185.707 46.3333C185.92 46.3667 186.145 46.2625 186.353 46.2042C186.449 45.85 186.624 46.1958 186.741 45.9L186.787 46.1C186.824 46 186.874 45.9292 186.916 46.0375V46.0958C186.974 45.9458 187.041 46.0333 187.07 45.9583V46.0167L187.141 45.9917L187.128 46.075C187.232 45.9125 187.341 45.9042 187.437 45.975L187.428 45.7333C187.632 46.0042 187.703 45.5 187.891 45.8208V45.8792C188.12 45.2417 188.257 46.3125 188.495 45.7083C188.466 45.7833 188.507 45.8333 188.503 45.8917C188.612 45.8208 188.732 45.7875 188.732 45.3125C188.812 45.3208 188.799 45.4625 188.807 45.6458C188.807 45.4375 188.878 45.35 188.941 45.3375L188.912 45.4167L189.091 45.3458L189.057 44.9542C189.153 45.0667 189.082 45.4333 189.174 45.3375V45.0125C189.307 45.0791 189.382 45.5708 189.507 45.8125C190.037 45.9542 190.612 45.1292 191.099 45.7083L191.116 45.9541C191.12 46.3125 191.257 45.425 191.274 45.7583L191.332 45.5958C191.349 45.6583 191.382 45.7292 191.349 45.8083C191.403 45.825 191.403 45.7625 191.445 45.6583L191.499 45.8833C191.703 46.0583 191.891 45.6333 192.107 45.725C192.362 46.1833 192.866 45.775 193.162 45.5416C193.578 45.0166 194.012 46.4541 194.437 45.8541C194.449 45.9041 194.487 45.7916 194.487 45.75L194.862 45.8125C194.862 45.8125 195.316 45.8625 195.612 45.5375C195.907 45.2125 196.049 44.5125 195.399 43.0042L195.412 42.9291C195.207 42.7333 195.078 42.6875 194.92 43.075C194.912 42.5958 194.749 43.0208 194.703 42.8625V42.825C194.57 43.1916 194.453 42.5083 194.32 42.8375C194.324 42.8 194.332 42.6667 194.362 42.6625C194.27 42.7208 194.145 42.825 194.145 42.5458C193.928 42.6125 193.632 42.475 193.482 42.9167L193.495 42.8375C193.407 43.1375 193.391 42.8792 193.299 43.0292C193.299 42.9917 193.291 42.975 193.291 42.9583C193.199 43.2542 193.041 43 192.97 43.125V42.9375L192.799 42.975L192.862 43.0167C192.828 43.525 192.741 42.6958 192.612 43.0208C192.499 42.9542 192.357 44.075 192.245 43.825C192.182 44.0625 192.303 43.4375 192.216 43.6208C192.216 43.3542 192.257 43.4541 192.241 43.2416C192.153 43.3666 192.107 42.9666 192.003 43.1458V42.9375C191.862 43.3125 191.753 42.6625 191.657 43.0208C191.516 43.1917 191.574 42.4042 191.424 42.8083L191.37 42.5292C191.307 42.4833 191.32 42.8708 191.253 42.7375C191.262 42.5625 191.17 42.5958 191.212 42.4292C191.057 42.15 190.891 42.8167 190.691 42.35C190.641 42.6917 190.541 42.4875 190.507 42.7458C190.507 42.5958 190.299 42.7208 190.42 42.3958C190.428 42.3708 190.449 42.375 190.445 42.4333L190.462 42.2292C190.349 41.8417 190.245 42.4375 190.132 42.3792C190.166 42.4458 190.212 42.4291 190.182 42.5708L190.074 42.5417L190.099 42.3708L189.941 42.2708L189.962 42.4833C189.882 42.375 189.857 42.0125 189.77 42.3125C189.728 42.4791 189.841 42.6 189.757 42.6666C189.653 42.5208 189.499 42.3042 189.362 42.2375C189.374 42.475 189.337 42.4666 189.299 42.5166V42.3083C189.153 42.5958 189.245 41.85 189.103 42.0792L189.116 41.9333L189.078 42.3666C188.949 42.7791 189.012 41.9375 188.87 42.4958C188.924 42.4625 188.895 42.9542 188.828 42.8625L188.845 42.6625C188.807 42.7042 188.795 42.7875 188.77 42.7458C188.791 42.6375 188.782 42.4542 188.728 42.4875L188.766 42.2375L188.662 42.6042C188.578 42.3875 188.449 42.6583 188.416 42.375C188.416 42.375 188.241 42.2375 188.199 42.5458C188.232 42.3542 188.137 42.2791 188.166 42.0541C188.12 42.2708 187.987 42.45 187.932 42.2167L187.941 42.1917C187.741 41.9542 187.603 42.5167 187.42 42.2292C187.428 42.4708 187.332 42.3375 187.357 42.6458C187.174 42.95 187.016 42.0208 186.957 42.975C186.874 43.025 186.857 42.7542 186.812 42.7042L186.832 42.6542C186.674 42.7333 186.628 42.7416 186.512 42.7208C186.453 42.8125 186.449 43.2583 186.345 43.15C186.378 42.975 186.332 43.0083 186.295 43.0083C186.32 42.9792 186.328 42.9167 186.274 42.8C186.266 42.8542 186.257 42.8875 186.245 42.9167C186.245 42.9042 186.245 42.8916 186.245 42.875C186.182 42.9375 186.191 42.9917 186.224 43.0167C186.224 43.0417 186.224 43.0792 186.237 43.125C186.166 42.9 186.049 43.1417 186.037 42.8417C185.841 42.9125 185.707 43.2291 185.545 43.3458C185.524 43.1916 185.562 43.0541 185.607 42.9916L185.491 43.05C185.491 42.825 185.553 42.9208 185.591 42.875C185.449 42.5166 185.312 43.2417 185.145 42.9125L185.116 43.0875L185.107 43.0583C185.107 43.15 185.074 43.2792 185.053 43.3083C185.028 43.1125 185.049 42.8583 184.966 42.875C184.899 42.6875 184.787 42.9708 184.707 43.0792C184.753 43.1125 184.741 43.2208 184.724 43.2875C184.682 43.2958 184.657 43.1 184.628 43.1833L184.62 42.9208C184.641 43.1667 184.52 43.1916 184.507 43.2958C184.482 43.1 184.566 43.1291 184.574 42.9791C184.416 43.0083 184.495 42.9917 184.332 43.0208C184.249 43.2208 184.353 43.2708 184.316 43.5C184.241 43.5541 184.17 43.7375 184.082 43.5792L184.116 43.8125C183.978 43.9958 183.895 43.9708 183.795 43.7375C182.791 45.6583 183.632 46.3333 183.632 46.3333C184.053 46.8375 184.249 46.1542 184.737 45.9667L184.712 45.9625Z" fill="#20BB65"/>
<path d="M206.167 43.7539L206.187 43.8539C206.187 43.8081 206.187 43.7706 206.167 43.7539Z" fill="#20BB65"/>
<path d="M214.366 44.7748C214.366 44.7748 214.375 44.7622 214.379 44.7539C214.37 44.7622 214.37 44.7664 214.366 44.7748Z" fill="#20BB65"/>
<path d="M207.079 47.1331C207.079 47.1331 207.07 47.1455 207.066 47.158L207.079 47.1331Z" fill="#20BB65"/>
<path d="M205.483 46.704C205.9 46.8624 205.966 47.3249 206.425 47.1874C206.629 47.2457 206.866 47.1665 207.074 47.1332C207.212 46.7915 207.345 47.1582 207.491 46.8749L207.512 47.079C207.562 46.9832 207.616 46.9207 207.645 47.0332L207.637 47.0916C207.712 46.9499 207.77 47.0457 207.808 46.9749L207.799 47.0332L207.875 47.0165L207.854 47.0957C207.974 46.9498 208.083 46.9499 208.17 47.0332L208.191 46.7915C208.362 47.0832 208.491 46.5957 208.637 46.9332L208.629 46.9915C208.933 46.3832 208.937 47.4665 209.25 46.8957C209.212 46.9665 209.25 47.0207 209.237 47.079C209.354 47.0249 209.475 47.004 209.537 46.5332C209.616 46.5498 209.583 46.6874 209.57 46.8707C209.595 46.6624 209.675 46.5873 209.741 46.5832L209.704 46.6582L209.891 46.6124L209.908 46.2165C209.987 46.3415 209.87 46.6957 209.975 46.6124L210.016 46.2874C210.137 46.3665 210.154 46.8665 210.245 47.1207C210.75 47.3249 211.425 46.5832 211.833 47.2207L211.82 47.4665C211.779 47.8207 212.029 46.9624 212 47.2915L212.079 47.1374C212.087 47.204 212.108 47.2749 212.07 47.3499C212.12 47.3707 212.129 47.3124 212.183 47.2124L212.208 47.4415C212.387 47.6415 212.625 47.2457 212.829 47.3623C213.02 47.8498 213.57 47.5124 213.891 47.3207C214.375 46.8582 214.604 48.3374 215.108 47.804C215.112 47.8582 215.166 47.7499 215.17 47.7082L215.533 47.8207C215.533 47.8207 215.975 47.9332 216.312 47.6499C216.65 47.3665 216.891 46.6957 216.454 45.1124L216.475 45.0374C216.3 44.8124 216.175 44.7499 215.966 45.1124C216.025 44.6374 215.804 45.0332 215.783 44.8707L215.795 44.8332C215.608 45.1749 215.587 44.4832 215.408 44.7915C215.42 44.754 215.445 44.6249 215.475 44.6207C215.375 44.6665 215.237 44.7499 215.275 44.4749C215.05 44.5124 214.775 44.3332 214.566 44.754L214.587 44.679C214.462 44.9624 214.479 44.7082 214.37 44.8457C214.37 44.8082 214.37 44.7874 214.37 44.7749C214.237 45.054 214.116 44.7832 214.029 44.8957L214.054 44.7124L213.879 44.729L213.937 44.779C213.837 45.279 213.858 44.4415 213.687 44.7498C213.583 44.6707 213.295 45.7624 213.216 45.4957C213.124 45.7249 213.324 45.1207 213.216 45.2874C213.254 45.0249 213.279 45.129 213.291 44.9165C213.191 45.029 213.195 44.6249 213.066 44.7915L213.091 44.5874C212.904 44.9415 212.879 44.279 212.737 44.6249C212.575 44.7749 212.737 44.0041 212.533 44.3832L212.516 44.0957C212.462 44.0415 212.425 44.429 212.375 44.2873C212.404 44.1123 212.308 44.1373 212.375 43.9748C212.258 43.679 212.004 44.3207 211.866 43.829C211.774 44.1624 211.7 43.9457 211.633 44.1957C211.65 44.0457 211.429 44.1457 211.591 43.8374C211.604 43.8124 211.62 43.8207 211.612 43.879L211.654 43.679C211.591 43.2832 211.412 43.8582 211.308 43.7874C211.333 43.8582 211.379 43.8457 211.333 43.9832L211.229 43.9415L211.275 43.7749L211.129 43.6541L211.12 43.8665C211.058 43.7498 211.079 43.3874 210.95 43.6749C210.887 43.8374 210.987 43.9665 210.895 44.0248C210.812 43.8665 210.683 43.6332 210.558 43.5499C210.541 43.7874 210.504 43.7748 210.462 43.8207L210.483 43.6123C210.304 43.879 210.491 43.154 210.32 43.3624L210.35 43.2207L210.258 43.6457C210.079 44.0374 210.245 43.2082 210.033 43.7499C210.091 43.7207 210.004 44.2082 209.945 44.1082L209.987 43.9124C209.945 43.9499 209.92 44.0332 209.9 43.9874C209.937 43.8832 209.949 43.6999 209.887 43.7249L209.954 43.479L209.804 43.8332C209.75 43.6082 209.587 43.8624 209.587 43.579C209.587 43.579 209.429 43.4207 209.35 43.7207C209.408 43.5332 209.32 43.4499 209.375 43.229C209.304 43.4374 209.15 43.5999 209.12 43.3624L209.133 43.3374C208.962 43.079 208.754 43.6207 208.612 43.3124C208.591 43.554 208.512 43.4123 208.5 43.7207C208.283 44.004 208.233 43.0624 208.062 43.9999C207.974 44.0415 207.987 43.7665 207.95 43.7123L207.975 43.6665C207.808 43.7248 207.762 43.729 207.649 43.6957C207.583 43.7832 207.525 44.2207 207.433 44.104C207.487 43.9332 207.441 43.9624 207.4 43.9582C207.429 43.9332 207.441 43.8707 207.4 43.7457C207.387 43.7999 207.37 43.829 207.358 43.8582C207.358 43.8457 207.358 43.8332 207.358 43.8165C207.287 43.8707 207.291 43.9249 207.32 43.954C207.316 43.979 207.316 44.0165 207.32 44.0665C207.279 43.8332 207.129 44.0623 207.154 43.7623C206.95 43.8123 206.779 44.104 206.604 44.2082C206.604 44.0499 206.654 43.9207 206.708 43.8624L206.587 43.9082C206.612 43.6874 206.666 43.7874 206.708 43.7457C206.608 43.3707 206.387 44.0749 206.262 43.729L206.212 43.8999L206.204 43.8707C206.195 43.9623 206.145 44.0874 206.12 44.1124C206.12 43.9165 206.166 43.6665 206.087 43.6707C206.041 43.479 205.9 43.7457 205.804 43.8415C205.845 43.879 205.82 43.9832 205.795 44.0499C205.754 44.0499 205.75 43.8582 205.712 43.9374L205.733 43.6749C205.725 43.9207 205.604 43.929 205.579 44.0374C205.579 43.8415 205.658 43.8749 205.679 43.7332C205.516 43.7415 205.6 43.7374 205.437 43.7457C205.333 43.9332 205.429 43.9957 205.366 44.2207C205.287 44.2665 205.195 44.4415 205.125 44.2749V44.5082C204.97 44.6749 204.891 44.6415 204.816 44.3957C203.6 46.1915 204.362 46.9582 204.362 46.9582C204.72 47.5082 204.991 46.8499 205.495 46.7165L205.483 46.704Z" fill="#20BB65"/>
<path d="M227.012 47.5415V47.6457C227.029 47.604 227.033 47.5623 227.012 47.5415Z" fill="#20BB65"/>
<path d="M234.908 50.0955C234.908 50.0955 234.916 50.0872 234.925 50.0789C234.916 50.083 234.912 50.0914 234.908 50.0955Z" fill="#20BB65"/>
<path d="M227.316 51.0291C227.316 51.0291 227.308 51.0416 227.299 51.0499L227.316 51.0291Z" fill="#20BB65"/>
<path d="M225.829 50.3333C226.208 50.5583 226.191 51.025 226.666 50.9666C226.858 51.0583 227.1 51.0208 227.312 51.0292C227.504 50.7167 227.57 51.1 227.766 50.85L227.754 51.0541C227.82 50.9708 227.883 50.9167 227.891 51.0333L227.87 51.0875C227.97 50.9583 228.008 51.0666 228.058 51L228.037 51.0541H228.112L228.074 51.125C228.22 51 228.324 51.0208 228.395 51.1208L228.458 50.8875C228.57 51.2042 228.787 50.75 228.866 51.1083L228.845 51.1625C229.258 50.6208 229.062 51.6833 229.47 51.1791C229.42 51.2416 229.445 51.3 229.424 51.3583C229.549 51.325 229.67 51.325 229.816 50.875C229.891 50.9042 229.833 51.0375 229.787 51.2125C229.849 51.0125 229.941 50.9541 230.008 50.9583L229.958 51.025L230.149 51.0125L230.237 50.6292C230.291 50.7667 230.112 51.0917 230.229 51.0292L230.329 50.7208C230.433 50.825 230.354 51.3166 230.395 51.5833C230.845 51.8791 231.649 51.275 231.924 51.9792L231.862 52.2166C231.754 52.5583 232.166 51.7625 232.07 52.0792L232.179 51.9458C232.17 52.0125 232.179 52.0875 232.129 52.1541C232.174 52.1833 232.195 52.1291 232.266 52.0416L232.245 52.2708C232.383 52.5041 232.691 52.1583 232.866 52.3166C232.954 52.8333 233.558 52.6125 233.912 52.4875C234.479 52.1292 234.395 53.625 234.995 53.2083C234.987 53.2583 235.062 53.1667 235.079 53.1292L235.408 53.3166C235.408 53.3166 235.812 53.5166 236.199 53.3166C236.587 53.1125 236.974 52.5083 236.883 50.8708L236.92 50.8041C236.795 50.5458 236.687 50.4583 236.404 50.7666C236.562 50.3125 236.262 50.6541 236.275 50.4916L236.295 50.4583C236.037 50.7542 236.162 50.075 235.924 50.3333C235.941 50.3 235.995 50.1791 236.025 50.1791C235.916 50.2041 235.762 50.2542 235.858 49.9958C235.629 49.9833 235.391 49.7541 235.104 50.1208L235.141 50.05C234.958 50.3042 235.029 50.0541 234.891 50.1666C234.899 50.1291 234.899 50.1125 234.908 50.0958C234.72 50.3417 234.658 50.05 234.545 50.1416L234.608 49.9666L234.433 49.9458L234.479 50.0042C234.279 50.475 234.47 49.6583 234.237 49.925C234.149 49.825 233.65 50.8375 233.625 50.5625C233.487 50.7667 233.804 50.2167 233.662 50.3583C233.749 50.1083 233.758 50.2167 233.808 50.0083C233.687 50.0958 233.77 49.7042 233.612 49.8375L233.679 49.6417C233.42 49.95 233.529 49.3 233.32 49.6083C233.133 49.7208 233.437 48.9958 233.166 49.3292L233.208 49.0458C233.162 48.9833 233.049 49.3541 233.029 49.2041C233.091 49.0375 232.991 49.0417 233.087 48.8958C233.029 48.5833 232.658 49.1583 232.612 48.65C232.458 48.9583 232.424 48.7333 232.308 48.9667C232.349 48.825 232.116 48.875 232.333 48.6083C232.349 48.5875 232.366 48.5958 232.345 48.65L232.425 48.4625C232.437 48.0583 232.154 48.5916 232.062 48.5C232.075 48.575 232.124 48.575 232.049 48.6958L231.954 48.6333L232.029 48.4792L231.908 48.3333L231.862 48.5417C231.82 48.4125 231.912 48.0625 231.729 48.3208C231.637 48.4667 231.708 48.6167 231.608 48.6542C231.554 48.4833 231.47 48.225 231.362 48.125C231.299 48.3542 231.266 48.3375 231.216 48.3708L231.279 48.1708C231.054 48.4 231.37 47.7208 231.162 47.8916L231.22 47.7583L231.049 48.1583C230.799 48.5083 231.116 47.7292 230.808 48.2167C230.87 48.2 230.691 48.6583 230.654 48.5541L230.733 48.3708C230.683 48.4 230.645 48.475 230.633 48.4292C230.687 48.3333 230.733 48.1542 230.67 48.1708L230.783 47.9458L230.566 48.2625C230.554 48.0333 230.345 48.25 230.4 47.9708C230.4 47.9708 230.27 47.7833 230.141 48.0667C230.233 47.8958 230.162 47.7958 230.258 47.5875C230.149 47.7791 229.966 47.9125 229.983 47.675L229.999 47.6542C229.879 47.3667 229.574 47.8625 229.487 47.5333C229.424 47.7666 229.37 47.6125 229.304 47.9125C229.037 48.15 229.158 47.2166 228.82 48.1083C228.724 48.1333 228.787 47.8667 228.762 47.8083L228.795 47.7667C228.62 47.7958 228.575 47.7916 228.466 47.7375C228.383 47.8083 228.249 48.2333 228.179 48.1C228.262 47.9416 228.212 47.9583 228.174 47.95C228.208 47.9291 228.233 47.8708 228.216 47.7416C228.195 47.7916 228.175 47.8208 228.154 47.8458C228.154 47.8333 228.158 47.8208 228.166 47.8042C228.087 47.8458 228.083 47.9 228.104 47.9333C228.095 47.9583 228.087 47.9916 228.083 48.0416C228.083 47.8041 227.895 48.0042 227.974 47.7125C227.766 47.725 227.545 47.9833 227.354 48.0541C227.379 47.9 227.454 47.7791 227.516 47.7333L227.387 47.7542C227.449 47.5375 227.487 47.65 227.533 47.6166C227.5 47.2291 227.158 47.8875 227.091 47.5208L227.012 47.6833V47.6542C226.987 47.7458 226.916 47.8583 226.887 47.8791C226.916 47.6875 227.008 47.4458 226.929 47.4375C226.916 47.2375 226.729 47.4792 226.62 47.5583C226.654 47.6 226.612 47.7042 226.574 47.7625C226.533 47.7583 226.562 47.5666 226.512 47.6375L226.579 47.3833C226.529 47.625 226.408 47.6125 226.366 47.7125C226.395 47.5208 226.47 47.5666 226.52 47.4291C226.358 47.4083 226.441 47.4208 226.279 47.4C226.145 47.5667 226.229 47.6417 226.129 47.8542C226.041 47.8833 225.924 48.0417 225.879 47.8667L225.845 48.1C225.662 48.2375 225.587 48.1916 225.554 47.9375C224.8 48.7208 224.587 49.3333 224.558 49.75C224.529 50.1666 224.679 50.3875 224.679 50.3875C224.937 50.9875 225.312 50.3875 225.829 50.3416V50.3333Z" fill="#20BB65"/>
<path d="M246.608 55.8083L246.587 55.9083C246.608 55.8708 246.624 55.8333 246.608 55.8083Z" fill="#20BB65"/>
<path d="M253.437 60.6416C253.437 60.6416 253.449 60.6333 253.458 60.6292C253.449 60.6292 253.441 60.6374 253.437 60.6416Z" fill="#20BB65"/>
<path d="M245.937 59.2415C245.937 59.2415 245.924 59.2498 245.916 59.2581L245.937 59.2415Z" fill="#20BB65"/>
<path d="M244.716 58.1749C245.016 58.4916 244.87 58.9374 245.337 59.0083C245.491 59.1458 245.733 59.1791 245.933 59.2416C246.204 58.9958 246.162 59.3791 246.416 59.1958L246.345 59.3874C246.433 59.3249 246.508 59.2916 246.483 59.4041L246.449 59.4499C246.583 59.3541 246.587 59.4666 246.654 59.4208L246.62 59.4666L246.695 59.4833L246.641 59.5457C246.816 59.4666 246.908 59.5166 246.945 59.6291L247.074 59.4249C247.087 59.7624 247.429 59.3874 247.399 59.7541L247.366 59.8C247.916 59.4 247.416 60.3583 247.954 59.9958C247.887 60.0416 247.891 60.1041 247.858 60.1541C247.987 60.1583 248.099 60.1957 248.374 59.8082C248.437 59.8582 248.341 59.9666 248.245 60.1207C248.366 59.9499 248.47 59.9208 248.529 59.9416L248.458 59.9916L248.641 60.0374L248.841 59.6958C248.854 59.8416 248.583 60.0999 248.712 60.0749L248.899 59.8082C248.97 59.9374 248.741 60.3833 248.704 60.6499C249.037 61.0624 249.987 60.7333 250.025 61.4833L249.891 61.6916C249.679 61.9791 250.32 61.3541 250.133 61.6249L250.279 61.5291C250.254 61.5874 250.237 61.6624 250.166 61.7083C250.199 61.7499 250.237 61.7083 250.333 61.6416L250.241 61.8499C250.295 62.1124 250.695 61.8833 250.812 62.0833C250.729 62.5999 251.366 62.5749 251.737 62.5749C252.391 62.4208 251.812 63.7999 252.512 63.6041C252.487 63.6499 252.587 63.5874 252.616 63.5582L252.858 63.8416C252.858 63.8416 253.166 64.1624 253.599 64.1041C254.029 64.0416 254.608 63.6125 255.079 62.0375L255.137 61.9875C255.108 61.7041 255.033 61.5791 254.662 61.775C254.966 61.4 254.562 61.6207 254.629 61.4707L254.658 61.4458C254.316 61.6374 254.658 61.0333 254.345 61.2041C254.374 61.1791 254.462 61.0791 254.491 61.0958C254.383 61.0833 254.216 61.0791 254.395 60.8624C254.183 60.7749 254.033 60.4749 253.637 60.7249L253.695 60.6708C253.441 60.8499 253.587 60.6374 253.42 60.6999C253.441 60.6708 253.445 60.6499 253.458 60.6374C253.199 60.8082 253.233 60.5124 253.1 60.5624L253.212 60.4166L253.05 60.3416L253.074 60.4124C252.733 60.7916 253.174 60.0833 252.87 60.2583C252.82 60.1333 252.02 60.9333 252.083 60.6624C251.887 60.8124 252.366 60.3916 252.183 60.4791C252.345 60.2707 252.32 60.3749 252.433 60.1958C252.287 60.2416 252.495 59.8958 252.299 59.9708L252.425 59.8041C252.083 60.0166 252.391 59.4291 252.095 59.6583C251.879 59.7041 252.399 59.1124 252.033 59.3416L252.158 59.0833C252.137 59.0083 251.912 59.3291 251.937 59.1791C252.049 59.0416 251.954 59.0124 252.087 58.9041C252.129 58.5874 251.591 59.0208 251.708 58.5208C251.466 58.7666 251.504 58.5416 251.32 58.7291C251.404 58.6041 251.166 58.5832 251.454 58.3957C251.479 58.3791 251.491 58.3958 251.454 58.4416L251.587 58.2875C251.72 57.9083 251.283 58.3291 251.225 58.2083C251.212 58.2833 251.262 58.2958 251.154 58.3916L251.083 58.3041L251.204 58.1791L251.133 57.9999L251.025 58.1833C251.025 58.05 251.216 57.7374 250.962 57.9291C250.829 58.0416 250.854 58.2041 250.745 58.2083C250.745 58.0291 250.741 57.7583 250.666 57.6249C250.537 57.8249 250.512 57.8 250.454 57.8166L250.57 57.6458C250.283 57.7958 250.791 57.2416 250.541 57.3458L250.637 57.2333L250.354 57.5666C250.012 57.8249 250.545 57.1749 250.104 57.5499C250.17 57.5499 249.862 57.9374 249.858 57.8249L249.987 57.6707C249.933 57.6832 249.87 57.7458 249.875 57.6958C249.954 57.6208 250.054 57.4624 249.987 57.4582L250.162 57.2749L249.862 57.5166C249.916 57.2916 249.654 57.4374 249.787 57.1874C249.787 57.1874 249.716 56.9707 249.508 57.2041C249.645 57.0666 249.604 56.95 249.758 56.7791C249.595 56.9333 249.383 57.0041 249.466 56.7791L249.491 56.7624C249.454 56.4499 249.02 56.8374 249.029 56.4958C248.904 56.6999 248.895 56.5374 248.745 56.8083C248.42 56.9583 248.804 56.0958 248.224 56.8541C248.124 56.8541 248.262 56.6124 248.254 56.5458L248.299 56.5166C248.124 56.4958 248.079 56.4749 247.991 56.3916C247.891 56.4374 247.645 56.8041 247.612 56.6583C247.737 56.5291 247.683 56.5333 247.649 56.5125C247.687 56.5041 247.729 56.4541 247.745 56.3249C247.712 56.3666 247.683 56.3875 247.658 56.4083C247.666 56.3958 247.67 56.3874 247.679 56.3707C247.591 56.3874 247.57 56.4416 247.583 56.4749C247.566 56.4957 247.55 56.5291 247.533 56.5749C247.595 56.3457 247.362 56.4874 247.516 56.2249C247.312 56.1749 247.024 56.3666 246.824 56.3791C246.891 56.2374 246.995 56.1416 247.07 56.1166L246.941 56.1041C247.058 55.9166 247.066 56.0291 247.12 56.0124C247.191 55.6333 246.687 56.1666 246.72 55.7999L246.6 55.9333L246.608 55.9041C246.558 55.9832 246.462 56.0749 246.424 56.0874C246.508 55.9083 246.658 55.7041 246.583 55.6708C246.624 55.4791 246.379 55.6583 246.254 55.7041C246.274 55.7541 246.208 55.8416 246.154 55.8875C246.116 55.8708 246.195 55.6958 246.125 55.7499L246.258 55.5208C246.145 55.7416 246.029 55.6958 245.962 55.7791C246.041 55.5999 246.104 55.6666 246.187 55.5458C246.033 55.4833 246.112 55.5124 245.958 55.4541C245.783 55.5791 245.845 55.6749 245.691 55.8541C245.599 55.8583 245.445 55.9791 245.45 55.7999L245.354 56.0124C245.141 56.0958 245.079 56.0333 245.116 55.7791C244.183 56.3333 243.82 56.8749 243.679 57.2666C243.541 57.6624 243.625 57.9124 243.625 57.9124C243.712 58.5583 244.229 58.0749 244.733 58.1666L244.716 58.1749Z" fill="#20BB65"/>
<path d="M262.233 70.3706L262.17 70.4539C262.208 70.4289 262.233 70.3998 262.233 70.3706Z" fill="#20BB65"/>
<path d="M260.17 73.1958C260.17 73.1958 260.154 73.1958 260.145 73.2H260.17V73.1958Z" fill="#20BB65"/>
<path d="M259.529 71.7332C259.67 72.1415 259.345 72.4832 259.737 72.7374C259.816 72.9291 260.02 73.054 260.17 73.1915C260.52 73.0832 260.316 73.4082 260.624 73.3499L260.479 73.4916C260.583 73.4707 260.666 73.4749 260.595 73.5624L260.545 73.5916C260.704 73.5624 260.662 73.6666 260.741 73.6499L260.691 73.6791L260.749 73.7249L260.67 73.7583C260.858 73.7583 260.924 73.8457 260.908 73.9624L261.112 73.8332C260.979 74.1416 261.445 73.9499 261.258 74.2624L261.208 74.2915C261.874 74.1707 261.008 74.8124 261.645 74.7166C261.566 74.7291 261.541 74.7874 261.491 74.8124C261.604 74.8707 261.691 74.9541 262.108 74.7249C262.141 74.7957 262.008 74.8541 261.854 74.9499C262.037 74.8499 262.145 74.8665 262.187 74.9165L262.104 74.9291L262.249 75.0499L262.579 74.8332C262.524 74.9707 262.166 75.079 262.291 75.1165L262.579 74.9624C262.583 75.1082 262.183 75.4041 262.029 75.6249C262.141 76.1374 263.133 76.2665 262.82 76.9499L262.608 77.0749C262.287 77.2332 263.145 76.9666 262.854 77.1249L263.024 77.1082C262.974 77.1499 262.924 77.2082 262.841 77.2166C262.849 77.2707 262.904 77.2457 263.016 77.2332L262.837 77.3749C262.762 77.6291 263.224 77.6082 263.233 77.8416C262.92 78.2582 263.491 78.5291 263.82 78.6999C264.47 78.8707 263.304 79.8082 264.016 79.9624C263.974 79.9915 264.091 79.9832 264.129 79.9707L264.208 80.3332C264.208 80.3332 264.324 80.7582 264.729 80.9166C265.133 81.0666 265.849 80.9749 267.016 79.8124L267.091 79.7957C267.204 79.5291 267.195 79.3832 266.774 79.3791C267.216 79.1957 266.762 79.1957 266.891 79.0957L266.929 79.0874C266.537 79.0915 267.124 78.7249 266.77 78.7207C266.808 78.7124 266.933 78.6666 266.949 78.6916C266.858 78.6249 266.716 78.5457 266.974 78.4416C266.824 78.2624 266.837 77.9207 266.366 77.9582L266.441 77.9374C266.133 77.9749 266.362 77.8582 266.183 77.8332C266.216 77.8165 266.229 77.7999 266.245 77.7957C265.937 77.8291 266.108 77.579 265.962 77.5624L266.133 77.4874L266.024 77.3416L266.012 77.4165C265.533 77.5957 266.254 77.1707 265.899 77.1832C265.912 77.0499 264.833 77.3832 265.012 77.1749C264.77 77.2166 265.387 77.0666 265.187 77.0624C265.429 76.9541 265.354 77.0332 265.541 76.9249C265.391 76.8957 265.737 76.6874 265.524 76.6624L265.712 76.5749C265.308 76.604 265.854 76.2249 265.487 76.2916C265.274 76.2332 266.008 75.9457 265.574 75.9832L265.804 75.8124C265.816 75.7332 265.474 75.9165 265.566 75.7957C265.729 75.7249 265.654 75.6541 265.824 75.6207C266.004 75.3541 265.329 75.4957 265.658 75.0999C265.329 75.2082 265.466 75.0207 265.22 75.1041C265.354 75.0332 265.145 74.904 265.491 74.8665C265.52 74.8665 265.524 74.8832 265.47 74.9082L265.658 74.8291C265.949 74.5499 265.37 74.7249 265.366 74.5916C265.32 74.6541 265.358 74.6874 265.22 74.7207L265.195 74.6082L265.358 74.5499L265.37 74.3541L265.191 74.4707C265.254 74.3499 265.562 74.1582 265.249 74.2124C265.083 74.2541 265.029 74.4124 264.933 74.3666C265.012 74.2041 265.129 73.9582 265.12 73.8082C264.916 73.9332 264.904 73.8957 264.845 73.8832L265.029 73.7832C264.704 73.7874 265.408 73.5207 265.137 73.4999L265.27 73.4416L264.87 73.6124C264.445 73.6915 265.216 73.3457 264.654 73.4832C264.712 73.5166 264.266 73.7249 264.312 73.6207L264.495 73.5416C264.437 73.5291 264.358 73.5582 264.383 73.5124C264.487 73.479 264.645 73.3832 264.587 73.3499L264.824 73.2624L264.449 73.3457C264.595 73.1665 264.295 73.1832 264.524 73.0124C264.524 73.0124 264.558 72.7832 264.266 72.8999C264.449 72.8374 264.466 72.7124 264.674 72.629C264.462 72.6957 264.237 72.6624 264.412 72.4999H264.441C264.541 72.1957 263.983 72.354 264.137 72.0457C263.933 72.1749 263.999 72.0249 263.745 72.204C263.387 72.1999 264.099 71.5832 263.249 72.0166C263.162 71.9707 263.387 71.8124 263.404 71.7499L263.458 71.7415C263.308 71.6457 263.274 71.6082 263.233 71.4957C263.12 71.4957 262.741 71.7207 262.774 71.5749C262.941 71.5124 262.891 71.4916 262.87 71.4582C262.908 71.4666 262.966 71.4374 263.037 71.3291C262.987 71.3499 262.954 71.3582 262.924 71.3665C262.937 71.3582 262.945 71.3499 262.962 71.3416C262.874 71.3166 262.833 71.3582 262.829 71.3957C262.804 71.4082 262.779 71.4291 262.741 71.4624C262.895 71.2832 262.624 71.3082 262.874 71.1374C262.708 71.0041 262.37 71.0541 262.179 70.9791C262.299 70.8791 262.433 70.8332 262.512 70.8416L262.399 70.7749C262.587 70.6541 262.545 70.7624 262.604 70.7666C262.829 70.4499 262.141 70.7207 262.329 70.3999L262.162 70.4707L262.183 70.4457C262.104 70.4999 261.979 70.5374 261.941 70.5332C262.091 70.404 262.316 70.2832 262.258 70.2207C262.379 70.0624 262.074 70.1207 261.941 70.1124C261.941 70.1666 261.841 70.2166 261.774 70.2416C261.745 70.2124 261.891 70.0832 261.808 70.1041L262.02 69.9499C261.824 70.1041 261.741 70.0124 261.641 70.0624C261.787 69.9332 261.816 70.0207 261.941 69.9457C261.829 69.8249 261.883 69.8832 261.77 69.7624C261.558 69.804 261.574 69.9165 261.362 70.0165C261.274 69.9832 261.087 70.029 261.162 69.8665L260.987 70.0249C260.758 70.0124 260.729 69.9291 260.866 69.7166C259.787 69.8416 259.237 70.1915 258.949 70.4915C258.662 70.7957 258.637 71.0582 258.637 71.0582C258.449 71.6749 259.116 71.4415 259.533 71.7332H259.529Z" fill="#20BB65"/>
<path d="M269.095 90.6333L268.999 90.6708C269.045 90.6708 269.083 90.6583 269.095 90.6333Z" fill="#20BB65"/>
<path d="M268.762 99.0542C268.762 99.0542 268.774 99.0625 268.783 99.0667C268.774 99.0584 268.77 99.0584 268.762 99.0542Z" fill="#20BB65"/>
<path d="M265.887 92.0166C265.887 92.0166 265.87 92.0125 265.862 92.0083L265.887 92.0166Z" fill="#20BB65"/>
<path d="M266.074 90.4333C265.987 90.8541 265.537 90.9875 265.745 91.4C265.716 91.6042 265.824 91.8167 265.887 92.0125C266.245 92.1 265.899 92.275 266.195 92.3792L265.995 92.425C266.095 92.4625 266.166 92.5083 266.058 92.5458H265.999C266.154 92.6 266.062 92.6667 266.137 92.6958H266.079L266.104 92.7625L266.02 92.75C266.183 92.85 266.195 92.9542 266.12 93.0458L266.362 93.0375C266.091 93.2333 266.591 93.3083 266.27 93.4833H266.212C266.849 93.7167 265.77 93.825 266.37 94.0709C266.295 94.0417 266.245 94.0791 266.187 94.075C266.254 94.1833 266.287 94.2958 266.762 94.3166C266.754 94.3958 266.612 94.375 266.429 94.3792C266.637 94.3875 266.72 94.4583 266.733 94.5166L266.654 94.4875L266.716 94.6667L267.112 94.65C266.995 94.7375 266.633 94.65 266.724 94.7458L267.049 94.7583C266.979 94.8875 266.483 94.9375 266.237 95.05C266.07 95.5458 266.858 96.1667 266.245 96.5959H265.999C265.645 96.5709 266.516 96.775 266.183 96.7625L266.341 96.8333C266.274 96.8416 266.204 96.8666 266.129 96.8333C266.108 96.8833 266.166 96.8916 266.27 96.9375L266.045 96.9708C265.849 97.1542 266.262 97.3708 266.149 97.575C265.67 97.775 266.024 98.3 266.22 98.6125C266.695 99.0875 265.212 99.3084 265.749 99.8C265.695 99.8 265.804 99.8583 265.845 99.8625L265.729 100.213C265.729 100.213 265.612 100.642 265.887 100.979C266.162 101.312 266.824 101.592 268.42 101.183L268.495 101.208C268.724 101.033 268.791 100.908 268.433 100.687C268.908 100.754 268.512 100.521 268.674 100.5L268.712 100.513C268.37 100.317 269.062 100.3 268.758 100.117C268.795 100.129 268.924 100.154 268.929 100.183C268.883 100.083 268.799 99.9375 269.074 99.9792C269.037 99.75 269.216 99.4625 268.795 99.2542L268.87 99.275C268.583 99.15 268.841 99.1667 268.704 99.0542C268.741 99.0542 268.758 99.0542 268.774 99.0542C268.491 98.925 268.766 98.7958 268.649 98.7083L268.833 98.7292L268.816 98.55L268.766 98.6083C268.262 98.5166 269.099 98.5209 268.787 98.35C268.866 98.2417 267.762 97.9833 268.029 97.8958C267.799 97.8125 268.408 97.9916 268.237 97.8833C268.499 97.9125 268.399 97.9417 268.612 97.9459C268.495 97.8459 268.899 97.8375 268.733 97.7125L268.941 97.7334C268.579 97.5542 269.241 97.5042 268.891 97.375C268.737 97.2167 269.512 97.3416 269.124 97.1541L269.408 97.125C269.458 97.0666 269.07 97.0459 269.212 96.9875C269.387 97.0084 269.362 96.9125 269.524 96.9667C269.812 96.8292 269.162 96.6083 269.645 96.4333C269.308 96.3583 269.52 96.2708 269.266 96.2166C269.416 96.2208 269.304 96.0042 269.62 96.15C269.645 96.1625 269.641 96.1792 269.583 96.175L269.783 96.2041C270.174 96.1125 269.587 95.9667 269.654 95.8542C269.583 95.8834 269.599 95.9333 269.462 95.8916L269.495 95.7833L269.666 95.8167L269.779 95.6584L269.566 95.6666C269.679 95.5916 270.041 95.5833 269.749 95.475C269.583 95.425 269.458 95.5334 269.399 95.4459C269.554 95.3459 269.774 95.1958 269.845 95.0583C269.604 95.0583 269.616 95.0208 269.57 94.9833H269.779C269.499 94.8292 270.237 94.9542 270.016 94.8L270.162 94.8209L269.729 94.7625C269.324 94.6167 270.162 94.7083 269.608 94.5416C269.641 94.6 269.149 94.55 269.241 94.4834L269.441 94.5084C269.399 94.4667 269.316 94.45 269.358 94.4291C269.466 94.4541 269.649 94.45 269.616 94.3917L269.866 94.4375L269.499 94.3166C269.716 94.2375 269.449 94.0959 269.733 94.0709C269.733 94.0709 269.874 93.8917 269.566 93.8458C269.758 93.8875 269.833 93.7875 270.058 93.8208C269.841 93.7708 269.666 93.6292 269.899 93.575L269.924 93.5875C270.162 93.3833 269.604 93.2333 269.891 93.0458C269.649 93.0542 269.783 92.9583 269.474 92.9791C269.17 92.7916 270.095 92.625 269.145 92.5666C269.091 92.4833 269.366 92.4625 269.416 92.4167L269.466 92.4375C269.387 92.275 269.374 92.2292 269.395 92.1083C269.304 92.05 268.858 92.05 268.962 91.9416C269.137 91.9708 269.104 91.9291 269.104 91.8875C269.133 91.9125 269.195 91.9167 269.312 91.8625C269.258 91.8583 269.224 91.8458 269.195 91.8375C269.208 91.8375 269.22 91.8375 269.237 91.8375C269.174 91.7708 269.12 91.7875 269.095 91.8167C269.07 91.8167 269.033 91.8167 268.987 91.8292C269.212 91.7542 268.966 91.6375 269.266 91.6167C269.187 91.4167 268.874 91.2875 268.749 91.1292C268.904 91.1042 269.041 91.1375 269.104 91.1833L269.041 91.0667C269.266 91.0583 269.174 91.1291 269.22 91.1625C269.574 91.0041 268.845 90.8917 269.166 90.7083L268.987 90.6834L269.016 90.6708C268.924 90.675 268.795 90.6458 268.762 90.625C268.954 90.5917 269.212 90.6 269.195 90.5167C269.379 90.4417 269.091 90.3375 268.979 90.2625C268.949 90.3083 268.841 90.3042 268.77 90.2875C268.762 90.2458 268.954 90.2125 268.866 90.1833L269.129 90.1625C268.883 90.1959 268.854 90.075 268.745 90.0666C268.937 90.0291 268.916 90.1166 269.066 90.1166C269.029 89.9541 269.049 90.0375 269.012 89.875C268.808 89.8042 268.766 89.9083 268.533 89.8875C268.474 89.8167 268.287 89.7541 268.437 89.6541L268.208 89.7C268.016 89.575 268.033 89.4875 268.258 89.3708C267.262 88.9333 266.612 88.9542 266.212 89.0709C265.812 89.1875 265.654 89.4 265.654 89.4C265.179 89.8375 265.87 89.9708 266.087 90.4333H266.074Z" fill="#20BB65"/>
<path d="M264.82 111.592L264.72 111.579C264.762 111.6 264.799 111.609 264.82 111.592Z" fill="#20BB65"/>
<path d="M260.32 118.734C260.32 118.734 260.329 118.746 260.333 118.754C260.333 118.746 260.324 118.738 260.32 118.734Z" fill="#20BB65"/>
<path d="M261.35 111.199C261.35 111.199 261.337 111.187 261.333 111.179L261.35 111.199Z" fill="#20BB65"/>
<path d="M262.296 109.921C262.008 110.242 261.558 110.138 261.529 110.596C261.404 110.758 261.396 110.996 261.35 111.2C261.616 111.45 261.229 111.434 261.437 111.671L261.241 111.613C261.312 111.696 261.35 111.767 261.237 111.75L261.187 111.721C261.291 111.846 261.183 111.858 261.233 111.921L261.183 111.892L261.171 111.967L261.104 111.917C261.196 112.083 261.15 112.179 261.041 112.221L261.254 112.333C260.921 112.367 261.321 112.683 260.954 112.675L260.904 112.642C261.337 113.158 260.354 112.721 260.75 113.229C260.7 113.167 260.637 113.175 260.587 113.142C260.587 113.267 260.562 113.383 260.966 113.633C260.921 113.696 260.808 113.608 260.646 113.521C260.825 113.629 260.862 113.733 260.837 113.792L260.783 113.725L260.75 113.913L261.1 114.092C260.954 114.109 260.683 113.854 260.716 113.984L260.991 114.158C260.866 114.233 260.412 114.029 260.146 114.004C259.754 114.35 260.129 115.279 259.379 115.342L259.166 115.217C258.871 115.017 259.521 115.629 259.241 115.454L259.341 115.596C259.279 115.571 259.208 115.558 259.158 115.488C259.116 115.521 259.162 115.554 259.229 115.65L259.016 115.563C258.758 115.621 259.004 116.013 258.804 116.133C258.287 116.063 258.329 116.692 258.346 117.063C258.512 117.713 257.146 117.121 257.354 117.808C257.308 117.783 257.371 117.883 257.4 117.913L257.121 118.142C257.121 118.142 256.804 118.429 256.85 118.859C256.904 119.279 257.296 119.892 258.862 120.404L258.912 120.467C259.2 120.442 259.329 120.363 259.146 119.988C259.512 120.296 259.304 119.888 259.454 119.954L259.479 119.983C259.296 119.638 259.896 119.983 259.733 119.663C259.758 119.692 259.854 119.779 259.841 119.809C259.858 119.696 259.862 119.529 260.079 119.709C260.175 119.488 260.479 119.325 260.225 118.929L260.279 118.988C260.096 118.734 260.312 118.875 260.25 118.708C260.283 118.729 260.3 118.733 260.312 118.746C260.133 118.492 260.433 118.517 260.379 118.383L260.529 118.496L260.604 118.333L260.533 118.359C260.146 118.025 260.866 118.454 260.683 118.15C260.808 118.096 259.987 117.317 260.258 117.371C260.104 117.179 260.537 117.646 260.441 117.467C260.654 117.625 260.55 117.6 260.733 117.708C260.683 117.567 261.037 117.763 260.954 117.567L261.121 117.688C260.9 117.35 261.496 117.638 261.258 117.35C261.204 117.133 261.812 117.638 261.571 117.275L261.833 117.392C261.908 117.367 261.579 117.154 261.733 117.175C261.875 117.283 261.9 117.184 262.012 117.317C262.333 117.342 261.883 116.825 262.387 116.917C262.133 116.683 262.358 116.713 262.166 116.538C262.291 116.617 262.308 116.375 262.508 116.658C262.525 116.683 262.508 116.696 262.462 116.658L262.621 116.784C263.008 116.9 262.571 116.483 262.687 116.417C262.612 116.408 262.6 116.458 262.5 116.354L262.583 116.275L262.712 116.392L262.887 116.308L262.696 116.208C262.833 116.2 263.15 116.375 262.95 116.133C262.833 116.008 262.666 116.042 262.658 115.933C262.841 115.925 263.108 115.904 263.237 115.821C263.029 115.704 263.058 115.675 263.037 115.617L263.216 115.725C263.054 115.446 263.629 115.925 263.516 115.679L263.633 115.767L263.287 115.504C263.008 115.175 263.691 115.671 263.291 115.25C263.291 115.317 262.887 115.029 263.004 115.017L263.166 115.138C263.15 115.084 263.087 115.025 263.137 115.025C263.216 115.1 263.379 115.188 263.379 115.121L263.571 115.288L263.316 115C263.546 115.042 263.383 114.788 263.646 114.904C263.646 114.904 263.858 114.821 263.612 114.625C263.758 114.754 263.871 114.708 264.05 114.846C263.887 114.692 263.804 114.483 264.033 114.554L264.05 114.575C264.362 114.517 263.95 114.109 264.291 114.088C264.079 113.975 264.241 113.954 263.962 113.825C263.791 113.513 264.679 113.825 263.883 113.304C263.883 113.204 264.129 113.325 264.191 113.304L264.225 113.346C264.233 113.167 264.25 113.121 264.329 113.025C264.275 112.929 263.891 112.708 264.037 112.667C264.175 112.779 264.166 112.725 264.187 112.692C264.2 112.729 264.254 112.767 264.383 112.775C264.337 112.742 264.316 112.717 264.296 112.696C264.308 112.7 264.316 112.704 264.333 112.717C264.308 112.629 264.254 112.613 264.221 112.629C264.196 112.617 264.166 112.6 264.116 112.588C264.35 112.633 264.191 112.408 264.462 112.542C264.496 112.329 264.283 112.058 264.254 111.858C264.4 111.913 264.504 112.008 264.537 112.079V111.946C264.737 112.05 264.625 112.067 264.646 112.117C265.033 112.154 264.458 111.696 264.825 111.696L264.683 111.588H264.712C264.629 111.55 264.529 111.463 264.512 111.425C264.696 111.492 264.912 111.625 264.937 111.546C265.133 111.571 264.937 111.338 264.875 111.217C264.825 111.242 264.733 111.183 264.683 111.138C264.696 111.1 264.879 111.163 264.821 111.096L265.058 111.208C264.829 111.117 264.862 110.996 264.775 110.938C264.958 111 264.9 111.067 265.025 111.142C265.071 110.983 265.05 111.063 265.096 110.904C264.954 110.742 264.866 110.813 264.675 110.675C264.662 110.583 264.525 110.438 264.708 110.425L264.487 110.35C264.383 110.146 264.446 110.079 264.696 110.092C264.05 109.217 263.475 108.917 263.066 108.817C262.658 108.717 262.421 108.825 262.421 108.825C261.791 108.967 262.325 109.429 262.283 109.938L262.296 109.921Z" fill="#20BB65"/>
<path d="M250.766 126.438L250.704 126.363C250.725 126.4 250.75 126.434 250.766 126.438Z" fill="#20BB65"/>
<path d="M247.108 128.4C247.108 128.4 247.108 128.413 247.112 128.421C247.112 128.413 247.112 128.405 247.108 128.4Z" fill="#20BB65"/>
<path d="M248.616 123.9C248.616 123.9 248.612 123.888 248.608 123.875L248.616 123.9Z" fill="#20BB65"/>
<path d="M249.433 123.742C249.195 123.742 248.924 123.379 248.829 123.642C248.72 123.658 248.679 123.804 248.62 123.9C248.749 124.229 248.508 123.967 248.604 124.254L248.487 124.092C248.52 124.188 248.533 124.258 248.462 124.175L248.437 124.125C248.483 124.271 248.412 124.208 248.437 124.283L248.412 124.233L248.395 124.275L248.362 124.2C248.395 124.367 248.354 124.4 248.279 124.358L248.399 124.571C248.183 124.379 248.391 124.838 248.162 124.6L248.137 124.546C248.341 125.163 247.774 124.246 247.958 124.833C247.937 124.758 247.895 124.725 247.866 124.675C247.854 124.763 247.816 124.821 248.041 125.242C248.004 125.254 247.941 125.125 247.854 124.967C247.949 125.15 247.962 125.242 247.941 125.267L247.916 125.188L247.87 125.292L248.07 125.633C247.974 125.554 247.837 125.217 247.841 125.321L247.991 125.608C247.904 125.583 247.641 125.163 247.474 124.979C247.183 124.975 247.312 125.842 246.841 125.438L246.72 125.225C246.554 124.908 246.899 125.729 246.741 125.438L246.791 125.596C246.754 125.542 246.712 125.488 246.687 125.413C246.658 125.413 246.687 125.463 246.716 125.571L246.591 125.383C246.425 125.275 246.537 125.696 246.404 125.667C246.087 125.317 246.054 125.796 246.033 126.075C246.083 126.642 245.266 125.458 245.345 126.096C245.316 126.054 245.349 126.163 245.37 126.2L245.183 126.233C245.183 126.233 244.966 126.296 244.979 126.658C244.995 127.021 245.233 127.688 246.17 128.888L246.199 128.958C246.374 129.088 246.454 129.096 246.354 128.708C246.566 129.138 246.454 128.717 246.541 128.846L246.554 128.883C246.454 128.521 246.804 129.104 246.72 128.779C246.733 128.817 246.791 128.933 246.779 128.946C246.795 128.871 246.804 128.75 246.924 129C246.991 128.888 247.183 128.938 247.054 128.508L247.083 128.579C246.987 128.292 247.108 128.517 247.083 128.358C247.099 128.392 247.112 128.408 247.116 128.421C247.025 128.133 247.208 128.325 247.183 128.196L247.266 128.363L247.325 128.288L247.279 128.267C247.066 127.804 247.479 128.525 247.387 128.2C247.466 128.233 247.024 127.196 247.187 127.396C247.108 127.171 247.337 127.754 247.291 127.571C247.412 127.808 247.345 127.729 247.449 127.917C247.433 127.783 247.633 128.129 247.599 127.946L247.695 128.129C247.587 127.758 247.933 128.317 247.812 127.971C247.799 127.788 248.129 128.5 248.012 128.104L248.162 128.342C248.212 128.367 248.029 128.025 248.12 128.129C248.199 128.288 248.224 128.238 248.279 128.396C248.474 128.608 248.245 127.975 248.549 128.342C248.412 128.025 248.549 128.183 248.449 127.946C248.52 128.079 248.554 127.921 248.649 128.238C248.658 128.263 248.649 128.263 248.62 128.213L248.708 128.396C248.937 128.713 248.708 128.158 248.787 128.183C248.741 128.133 248.729 128.158 248.679 128.025H248.741L248.808 128.183L248.924 128.233L248.816 128.05C248.899 128.129 249.079 128.442 248.983 128.154C248.924 127.996 248.816 127.917 248.824 127.838C248.937 127.942 249.112 128.1 249.2 128.125C249.083 127.917 249.104 127.917 249.095 127.863L249.195 128.046C249.125 127.758 249.429 128.438 249.387 128.2L249.449 128.329L249.266 127.938C249.133 127.542 249.5 128.3 249.3 127.771C249.291 127.817 249.075 127.371 249.145 127.438L249.233 127.617C249.233 127.571 249.195 127.492 249.229 127.525C249.27 127.625 249.358 127.783 249.37 127.742L249.47 127.971L249.345 127.621C249.483 127.792 249.412 127.521 249.562 127.763C249.562 127.763 249.708 127.842 249.579 127.558C249.654 127.738 249.733 127.779 249.825 127.983C249.741 127.779 249.716 127.592 249.854 127.783L249.862 127.808C250.062 127.967 249.862 127.442 250.079 127.65C249.958 127.442 250.066 127.533 249.908 127.267C249.845 126.954 250.358 127.733 249.929 126.883C249.941 126.817 250.079 127.054 250.124 127.088L250.141 127.138C250.175 127.029 250.187 127.013 250.249 127.004C250.229 126.908 250.02 126.521 250.116 126.588C250.187 126.75 250.191 126.708 250.208 126.7C250.208 126.729 250.237 126.788 250.32 126.879C250.295 126.829 250.287 126.796 250.279 126.771C250.287 126.783 250.291 126.792 250.299 126.808C250.299 126.738 250.266 126.692 250.241 126.679C250.229 126.654 250.212 126.625 250.183 126.588C250.324 126.771 250.258 126.529 250.408 126.788C250.462 126.679 250.366 126.371 250.383 126.229C250.466 126.358 250.52 126.488 250.529 126.554L250.55 126.475C250.658 126.671 250.583 126.604 250.591 126.65C250.833 126.929 250.537 126.267 250.77 126.513L250.695 126.35L250.712 126.375C250.666 126.296 250.616 126.175 250.612 126.142C250.72 126.304 250.837 126.529 250.862 126.5C250.983 126.646 250.895 126.375 250.879 126.263C250.841 126.246 250.795 126.15 250.77 126.083C250.783 126.067 250.891 126.229 250.862 126.15L250.995 126.375C250.866 126.167 250.908 126.117 250.858 126.021C250.966 126.183 250.916 126.183 250.983 126.313C251.041 126.25 251.012 126.283 251.07 126.221C251.008 126.029 250.937 126.013 250.841 125.8C250.849 125.738 250.787 125.558 250.904 125.675L250.774 125.483C250.745 125.292 250.791 125.292 250.954 125.471C250.695 124.521 250.383 123.954 250.137 123.621C249.895 123.288 249.72 123.188 249.72 123.188C249.291 122.846 249.549 123.479 249.437 123.754L249.433 123.742Z" fill="#20BB65"/>
</svg>
