<svg width="450" height="292" viewBox="0 0 450 292" fill="none" xmlns="http://www.w3.org/2000/svg">
<path d="M228.151 14.699C231.494 11.6191 237.013 12.3599 239.415 16.2307C241.613 19.6936 240.584 24.2802 237.117 26.4778L215.439 40.2085L217.441 36.7997L213.936 55.013L212.188 50.9217L221.662 57.9307C225.903 61.2645 221.362 67.5992 216.838 64.6483L207.172 57.9057C205.899 57.0275 205.187 55.4293 205.424 53.8102L207.127 35.3388C207.231 34.2567 207.718 33.1995 208.583 32.417L209.133 31.9218L228.155 14.6949V14.7032L228.151 14.699Z" fill="#E48544"/>
<path d="M239.463 20.5812C242.31 18.7333 246.222 19.7779 247.758 22.8163C249.215 25.6673 248.1 29.1593 245.244 30.6243L220.394 43.377L222.596 40.0057L222.055 51.8177L220.182 47.2644L228.561 55.6801C231.816 59.0598 227.616 64.2832 223.595 61.7693L213.664 55.2639C212.265 54.3441 211.462 52.6585 211.757 50.9021L211.79 50.7106L213.763 39.0484C213.976 37.7124 214.733 36.4679 215.965 35.6771L239.458 20.5854V20.5771L239.463 20.5812Z" fill="#E48544"/>
<path d="M241.516 23.9807C244.7 21.8497 249.121 22.9652 250.907 26.3573C252.609 29.5537 251.398 33.5119 248.209 35.2059L230.844 44.4499L233.383 41.0619L231.031 52.4161L229.212 46.2937L234.802 54.7344C236.942 57.9642 233.324 62.0222 229.849 60.1825L220.908 55.4253C219.076 54.4555 218.144 52.2954 218.789 50.2476L219.085 49.3112C219.085 49.3112 222.556 38.2359 222.577 38.2276C223.001 36.8998 223.859 35.697 225.116 34.8646L241.504 23.9849H241.512L241.516 23.9807Z" fill="#E48544"/>
<path d="M282.603 44.0711C277.001 46.0981 270.47 54.1934 260.567 58.7717C240.184 69.693 243.801 50.3767 241.1 41.4032C238.398 32.4298 211.292 24.6716 210.639 21.8955C209.985 19.1194 233.004 10.2833 240.334 8.95974C247.664 7.6362 265.583 11.1157 273.005 10.8285C280.426 10.5413 288.206 42.0442 282.603 44.0711Z" fill="#FDB47E"/>
<path d="M242.54 11.6068C247.876 10.7078 252.912 14.795 253.108 20.2057C253.324 25.2294 249.42 29.483 244.396 29.6994L205.677 31.3726L208.403 30.4861L183.408 41.6946C179.058 43.5509 175.661 37.7406 179.441 34.8687L201.56 18.7115C202.051 18.3577 202.642 18.0914 203.292 17.9873L204.287 17.825L242.544 11.6151V11.6068H242.54Z" fill="#FDB47E"/>
<path d="M255.345 39.2398C259.807 34.7115 267.695 35.6396 270.954 41.1253C273.855 45.8451 272.369 52.0258 267.649 54.9143L246.362 67.9583L247.486 66.8553L232.634 81.2478C228.622 85.0145 222.536 80.1074 225.412 75.3751L236.493 57.9068L237.617 56.8038L255.357 39.2315L255.345 39.244V39.2398Z" fill="#FDB47E"/>
<path d="M221.866 33.5449L216.459 37.8111C216.459 37.8111 213.437 50.1142 214.498 51.8373C215.56 53.5604 222.411 56.632 223.206 61.4642" stroke="#C66E34" stroke-width="3.78" stroke-miterlimit="10" stroke-linecap="round"/>
<path d="M228.757 36.3301L223.708 40.026C223.708 40.026 220.02 47.78 223.121 50.323C226.218 52.8661 230.16 55.509 229.544 60.1289" stroke="#C66E34" stroke-width="3.78" stroke-miterlimit="10" stroke-linecap="round"/>
<path d="M297.707 44.1005C299.085 44.5209 450 66.9712 450 66.9712V2.875L274.235 11.0202L277.257 43.6635L297.707 44.1005Z" fill="#FFB57F"/>
<path d="M196.747 97.2755C196.709 97.1507 196.68 97.03 196.643 96.9051C196.609 96.7844 196.572 96.6637 196.543 96.543C196.489 96.3432 196.443 96.1434 196.397 95.9436C196.372 95.8354 196.343 95.7314 196.322 95.6231C196.318 95.5982 196.31 95.5774 196.305 95.5524C196.289 95.4775 196.276 95.3984 196.264 95.3235C196.21 95.0529 196.16 94.7865 196.114 94.5202C196.093 94.3911 196.072 94.2663 196.056 94.1373C196.018 93.8959 195.989 93.6545 195.96 93.4131C195.952 93.3382 195.939 93.2674 195.931 93.1925C195.922 93.1217 195.918 93.0468 195.914 92.9761C195.902 92.847 195.893 92.718 195.881 92.589C195.868 92.41 195.856 92.2352 195.847 92.0562C195.839 91.9272 195.835 91.8023 195.831 91.6733C195.827 91.4943 195.823 91.3154 195.818 91.1406C195.818 91.0157 195.818 90.895 195.818 90.7702C195.818 90.587 195.827 90.4039 195.831 90.2208C195.831 90.1042 195.835 89.9919 195.843 89.8753C195.852 89.6714 195.868 89.4674 195.885 89.2676C195.893 89.1761 195.897 89.0845 195.906 88.993C195.931 88.7016 195.964 88.4103 196.006 88.1189C196.01 88.0856 196.018 88.0523 196.022 88.0232C196.06 87.7651 196.097 87.5112 196.143 87.2615C196.16 87.1616 196.181 87.0659 196.201 86.9702C196.23 86.8204 196.26 86.6663 196.289 86.5165C196.293 86.4915 196.301 86.4666 196.31 86.4374C196.389 86.0878 196.472 85.7424 196.568 85.3969C196.584 85.3303 196.605 85.2679 196.626 85.2055C196.709 84.9266 196.792 84.6477 196.888 84.373C196.905 84.3273 196.917 84.2773 196.934 84.2315C196.963 84.1441 196.996 84.0609 197.03 83.9735C197.071 83.8528 197.117 83.7362 197.163 83.6197C197.221 83.4698 197.284 83.32 197.342 83.1744C197.388 83.062 197.438 82.9454 197.488 82.833C197.504 82.7914 197.521 82.7498 197.537 82.7123C197.604 82.5625 197.675 82.4168 197.746 82.2712C197.771 82.2212 197.791 82.1713 197.816 82.1213C197.925 81.9049 198.033 81.6885 198.149 81.4762C198.162 81.4554 198.17 81.4387 198.183 81.4179C198.208 81.368 198.237 81.3222 198.266 81.2723C198.366 81.0891 198.474 80.9101 198.578 80.7353C198.616 80.6729 198.653 80.6105 198.69 80.5522C198.72 80.5064 198.745 80.4607 198.774 80.4149C198.811 80.3608 198.849 80.3067 198.886 80.2526C199.019 80.0445 199.161 79.8446 199.302 79.6449C199.34 79.5949 199.369 79.5408 199.406 79.4909C199.436 79.4534 199.465 79.416 199.494 79.3785C199.635 79.1871 199.781 79.0039 199.931 78.8208C199.972 78.7667 200.014 78.7126 200.06 78.6585C200.072 78.6418 200.089 78.6293 200.102 78.6127C200.306 78.3713 200.514 78.1382 200.73 77.9093C200.73 77.9093 200.738 77.901 200.738 77.8968C200.768 77.8677 200.801 77.8386 200.83 77.8094C201.013 77.6221 201.196 77.4348 201.388 77.2558C201.409 77.2392 201.425 77.2184 201.446 77.1976C201.504 77.1434 201.567 77.0935 201.629 77.0394C201.779 76.9062 201.925 76.773 202.079 76.6482C202.116 76.619 202.149 76.5858 202.183 76.5566C202.237 76.5108 202.299 76.4692 202.353 76.4276C202.503 76.3069 202.657 76.1904 202.811 76.078C202.865 76.0405 202.911 75.9989 202.965 75.9614C203.011 75.9281 203.057 75.9032 203.103 75.8699C203.269 75.7533 203.44 75.6409 203.61 75.5327C203.677 75.4911 203.735 75.4453 203.802 75.4037C203.848 75.3746 203.894 75.3496 203.939 75.3246C203.985 75.2955 204.031 75.2705 204.077 75.2456C204.285 75.1249 204.493 75.0042 204.709 74.8918C204.718 74.8876 204.726 74.8835 204.734 74.8793C204.755 74.8668 204.78 74.8585 204.801 74.846C205.009 74.7378 205.217 74.6379 205.429 74.5421C205.484 74.5172 205.534 74.4922 205.588 74.4714C205.629 74.4548 205.671 74.434 205.713 74.4131C205.908 74.3299 206.104 74.2508 206.304 74.1718C206.329 74.1634 206.358 74.1509 206.383 74.1426C206.541 74.0843 206.703 74.0261 206.861 73.9678C206.953 73.9387 207.045 73.9054 207.14 73.8762L210.737 72.7441C210.479 72.8232 210.229 72.9148 209.979 73.0064C209.954 73.0147 209.925 73.0271 209.9 73.0355C209.659 73.127 209.421 73.227 209.184 73.331C209.13 73.356 209.076 73.3809 209.026 73.4017C208.814 73.4975 208.605 73.5974 208.401 73.7056C208.381 73.7181 208.356 73.7264 208.331 73.7389C208.11 73.8554 207.89 73.9761 207.677 74.1052C207.631 74.1301 207.586 74.1592 207.54 74.1842C207.427 74.2508 207.319 74.3216 207.211 74.3923C207.04 74.5005 206.87 74.6129 206.703 74.7295C206.603 74.7961 206.508 74.8668 206.412 74.9376C206.258 75.0499 206.104 75.1706 205.954 75.2872C205.862 75.3621 205.767 75.4329 205.679 75.5078C205.525 75.6368 205.375 75.7658 205.226 75.9032C205.146 75.9739 205.063 76.0447 204.988 76.1196C204.797 76.2986 204.609 76.4859 204.426 76.6732C204.393 76.7065 204.36 76.7398 204.326 76.7731C204.11 77.002 203.902 77.235 203.698 77.4764C203.64 77.543 203.586 77.6138 203.531 77.6845C203.382 77.8677 203.236 78.0508 203.094 78.2422C203.028 78.3296 202.965 78.4171 202.903 78.5086C202.761 78.7084 202.62 78.9124 202.487 79.1163C202.42 79.2162 202.353 79.3119 202.291 79.416C202.254 79.4784 202.216 79.5367 202.179 79.5991C202.07 79.7781 201.966 79.957 201.866 80.136C201.841 80.186 201.812 80.2317 201.783 80.2817C201.658 80.5148 201.533 80.7479 201.417 80.9851C201.392 81.035 201.371 81.085 201.346 81.1349C201.255 81.3222 201.171 81.5095 201.084 81.701C201.034 81.8133 200.988 81.9257 200.938 82.0422C200.876 82.1921 200.817 82.3378 200.759 82.4876C200.713 82.6041 200.672 82.7248 200.626 82.8414C200.576 82.9746 200.53 83.1077 200.484 83.2409C200.393 83.5156 200.305 83.7945 200.222 84.0733C200.206 84.1358 200.181 84.2024 200.164 84.2648C200.068 84.6061 199.981 84.9557 199.906 85.3054C199.868 85.4802 199.831 85.6591 199.798 85.8381C199.777 85.9338 199.756 86.0337 199.739 86.1294C199.694 86.3833 199.656 86.6372 199.619 86.8911C199.615 86.9244 199.606 86.9577 199.602 86.9868C199.565 87.274 199.531 87.5653 199.502 87.8608C199.494 87.9524 199.49 88.044 199.481 88.1355C199.465 88.3395 199.448 88.5393 199.44 88.7474C199.436 88.8597 199.431 88.9763 199.427 89.0928C199.423 89.276 199.415 89.4591 199.415 89.6422C199.415 89.7671 199.415 89.8878 199.415 90.0126C199.415 90.1916 199.419 90.3664 199.427 90.5454C199.431 90.6744 199.44 90.7993 199.444 90.9283C199.452 91.1031 199.465 91.2821 199.477 91.461C199.486 91.5901 199.498 91.7191 199.51 91.8481C199.523 91.9938 199.54 92.1395 199.556 92.2851C199.585 92.5265 199.615 92.768 199.652 93.0094C199.673 93.1384 199.689 93.2632 199.71 93.3923C199.756 93.6586 199.806 93.9292 199.86 94.1956C199.881 94.2955 199.898 94.3953 199.918 94.4952C199.943 94.6034 199.968 94.7075 199.993 94.8157C200.039 95.0155 200.089 95.2153 200.139 95.415C200.172 95.5357 200.206 95.6564 200.239 95.7771C200.305 96.0144 200.372 96.2516 200.447 96.4889C200.555 96.8343 200.672 97.1756 200.797 97.5086C200.897 97.775 200.996 98.0413 201.105 98.3036C201.13 98.366 201.155 98.4242 201.184 98.4867C201.255 98.6573 201.329 98.8197 201.404 98.9861C201.513 99.2275 201.625 99.4648 201.742 99.702C201.792 99.8061 201.846 99.9143 201.896 100.018C202.033 100.285 202.174 100.547 202.32 100.809C202.349 100.863 202.378 100.917 202.408 100.967C202.582 101.271 202.766 101.567 202.949 101.858C203.003 101.941 203.061 102.024 203.115 102.104C203.248 102.307 203.386 102.511 203.527 102.707C203.602 102.811 203.677 102.911 203.752 103.011C203.881 103.186 204.01 103.36 204.147 103.527C204.231 103.631 204.314 103.731 204.393 103.835C204.53 104.001 204.668 104.164 204.809 104.326C204.893 104.422 204.976 104.518 205.059 104.613C205.226 104.801 205.4 104.98 205.575 105.159C205.642 105.225 205.704 105.296 205.775 105.362C206.025 105.612 206.279 105.854 206.541 106.087C206.595 106.132 206.649 106.178 206.699 106.224C206.928 106.424 207.157 106.619 207.39 106.807C207.473 106.873 207.552 106.936 207.636 106.998C207.948 107.24 208.264 107.477 208.585 107.697C208.585 107.697 208.585 107.697 208.589 107.697C208.593 107.702 208.601 107.706 208.605 107.71C208.826 107.86 209.051 108.005 209.28 108.147C209.355 108.193 209.434 108.238 209.513 108.284C209.667 108.376 209.821 108.467 209.975 108.555C210.133 108.642 210.287 108.725 210.445 108.809C210.553 108.867 210.666 108.925 210.774 108.979C210.945 109.063 211.115 109.142 211.29 109.221C211.394 109.266 211.494 109.316 211.598 109.362C211.665 109.391 211.727 109.416 211.794 109.445C211.973 109.52 212.152 109.595 212.335 109.662C212.422 109.695 212.51 109.724 212.597 109.758C212.76 109.816 212.926 109.874 213.093 109.928C213.184 109.957 213.272 109.987 213.363 110.016C213.538 110.07 213.713 110.12 213.888 110.166C213.967 110.186 214.042 110.211 214.121 110.228C214.375 110.295 214.629 110.353 214.882 110.407C214.899 110.407 214.92 110.415 214.937 110.415C215.174 110.461 215.411 110.507 215.648 110.54C215.732 110.553 215.815 110.565 215.898 110.573C216.073 110.598 216.248 110.619 216.427 110.64C216.522 110.648 216.614 110.657 216.71 110.665C216.88 110.682 217.055 110.69 217.226 110.698C217.317 110.702 217.405 110.707 217.496 110.711C217.696 110.719 217.896 110.719 218.096 110.719C218.158 110.719 218.217 110.719 218.279 110.719C218.537 110.715 218.799 110.702 219.057 110.686C219.124 110.682 219.186 110.673 219.253 110.669C219.449 110.652 219.644 110.632 219.84 110.611C219.931 110.598 220.023 110.586 220.115 110.573C220.285 110.548 220.46 110.519 220.631 110.49C220.727 110.474 220.818 110.457 220.914 110.436C221.093 110.399 221.272 110.361 221.447 110.32C221.53 110.299 221.613 110.282 221.696 110.261C221.954 110.195 222.208 110.124 222.466 110.045L218.87 111.177C218.612 111.256 218.354 111.331 218.096 111.397C218.013 111.418 217.929 111.435 217.85 111.456C217.671 111.497 217.492 111.539 217.313 111.576C217.218 111.597 217.126 111.614 217.03 111.631C216.855 111.66 216.685 111.689 216.51 111.714C216.418 111.726 216.327 111.739 216.235 111.751C216.04 111.776 215.844 111.797 215.648 111.81C215.582 111.814 215.519 111.822 215.453 111.826C215.195 111.843 214.932 111.855 214.674 111.859C214.612 111.859 214.554 111.859 214.491 111.859C214.291 111.859 214.092 111.859 213.892 111.851C213.8 111.851 213.713 111.843 213.621 111.839C213.451 111.83 213.276 111.818 213.105 111.805C213.009 111.797 212.918 111.789 212.822 111.78C212.647 111.764 212.468 111.739 212.293 111.714C212.21 111.701 212.127 111.693 212.044 111.681C211.806 111.643 211.569 111.601 211.332 111.556C211.315 111.556 211.294 111.547 211.278 111.547C211.024 111.493 210.77 111.435 210.516 111.368C210.437 111.348 210.362 111.327 210.283 111.306C210.108 111.256 209.933 111.206 209.758 111.156C209.667 111.127 209.579 111.098 209.488 111.069C209.321 111.015 209.159 110.956 208.993 110.898C208.905 110.865 208.818 110.836 208.73 110.802C208.547 110.732 208.368 110.661 208.189 110.586C208.123 110.557 208.056 110.532 207.994 110.503C207.977 110.494 207.96 110.49 207.944 110.482C207.856 110.444 207.773 110.399 207.686 110.361C207.515 110.282 207.34 110.203 207.169 110.12C207.057 110.066 206.949 110.007 206.841 109.949C206.682 109.866 206.524 109.783 206.37 109.695C206.337 109.679 206.304 109.662 206.27 109.641C206.15 109.57 206.029 109.495 205.908 109.425C205.833 109.379 205.754 109.333 205.679 109.287C205.45 109.146 205.226 109 205.005 108.85C205.001 108.846 204.992 108.842 204.988 108.838C204.664 108.617 204.347 108.38 204.039 108.139C204.002 108.109 203.96 108.08 203.919 108.051C203.877 108.018 203.835 107.98 203.794 107.947C203.561 107.76 203.327 107.564 203.103 107.364C203.061 107.327 203.019 107.298 202.978 107.26C202.965 107.248 202.953 107.235 202.94 107.227C202.678 106.994 202.424 106.753 202.174 106.503C202.162 106.49 202.145 106.474 202.129 106.461C202.075 106.407 202.029 106.353 201.975 106.299C201.8 106.12 201.629 105.937 201.459 105.754C201.425 105.716 201.388 105.683 201.354 105.645C201.305 105.587 201.255 105.525 201.205 105.466C201.063 105.304 200.926 105.142 200.788 104.975C200.743 104.921 200.693 104.867 200.647 104.809C200.609 104.763 200.576 104.713 200.539 104.667C200.405 104.497 200.276 104.326 200.143 104.151C200.089 104.081 200.035 104.014 199.985 103.943C199.964 103.91 199.943 103.877 199.918 103.847C199.777 103.648 199.64 103.448 199.506 103.244C199.461 103.173 199.411 103.111 199.365 103.04C199.356 103.028 199.348 103.011 199.34 102.998C199.152 102.707 198.969 102.412 198.799 102.108C198.799 102.099 198.79 102.095 198.786 102.087C198.761 102.041 198.736 101.995 198.711 101.95C198.566 101.691 198.42 101.429 198.287 101.159C198.27 101.125 198.249 101.092 198.233 101.059C198.195 100.988 198.166 100.913 198.129 100.842C198.012 100.605 197.9 100.368 197.791 100.127C197.762 100.064 197.733 100.006 197.704 99.9434C197.658 99.8393 197.612 99.7311 197.571 99.6271C197.546 99.5646 197.517 99.5064 197.492 99.444C197.392 99.2026 197.296 98.957 197.204 98.7114C197.196 98.6906 197.192 98.6698 197.184 98.6532C197.059 98.316 196.942 97.9789 196.834 97.6335C196.797 97.5211 196.763 97.4045 196.73 97.2921L196.747 97.2755Z" fill="#FFAE00"/>
<path d="M222.503 110.018C231.426 107.205 236.026 96.573 232.778 86.2715C229.53 75.97 219.663 69.8996 210.739 72.7129C201.816 75.5261 197.215 86.1576 200.464 96.4591C203.712 106.761 213.579 112.831 222.503 110.018Z" fill="#FFD733"/>
<path d="M223.388 109.728C225.59 108.896 227.58 107.518 229.174 105.783C230.768 104.039 231.971 101.954 232.754 99.7269C233.536 97.5001 233.907 95.1319 233.89 92.772C233.873 90.4079 233.461 88.0522 232.708 85.813C231.205 81.3388 228.237 77.3265 224.258 74.7668C222.273 73.489 220.041 72.5859 217.706 72.2071C215.375 71.8367 212.961 72.0073 210.722 72.7357C212.969 72.0406 215.379 71.9074 217.69 72.3112C220.004 72.7024 222.218 73.6056 224.179 74.8834C228.117 77.4472 231.039 81.4387 232.508 85.8796C233.266 88.0939 233.686 90.4288 233.715 92.772C233.744 95.1153 233.386 97.4627 232.62 99.6811C231.859 101.895 230.668 103.972 229.099 105.712C227.538 107.46 225.578 108.863 223.388 109.728Z" fill="#EDB400"/>
<path d="M235.554 241.192C235.483 242.316 235.603 243.473 235.554 244.597L247.075 244.805C247.7 244.597 247.296 242.316 247.233 241.679C251.271 241.787 255.367 241.725 259.396 241.921C260.482 241.975 262.376 242.407 263.409 242.407H267.059C268.071 242.407 269.927 242.57 271.072 242.649C272.117 242.72 273.27 242.811 274.352 242.894C279.913 243.315 285.499 243.91 291.018 244.593C290.585 246.524 290.34 248.522 289.803 250.428L297.553 251.123C297.882 250.919 298.053 246.486 298.07 245.72C298.128 245.496 298.398 245.583 298.561 245.566C300.005 245.408 304.858 246.545 306.594 246.898C310.249 247.639 321.163 249.891 322.986 253.125C323.864 254.677 323.169 255.485 322.037 256.517C316.913 261.195 297.183 263.701 289.919 264.537C259.875 267.988 227.936 268.058 197.733 266.964C179.131 266.29 156.646 265.303 138.731 260.529C131.122 258.502 121.719 254.178 134.718 249.454C141.228 247.09 148.475 246.257 155.276 245.08C155.276 245.113 155.543 245.338 155.53 245.671C155.497 246.74 155.043 248.03 155.276 249.217L165.495 248.243C165.612 246.765 165.379 245.321 165.25 243.864C169.221 243.573 173.187 243.048 177.171 242.89C177.658 242.869 178.299 242.89 178.753 242.89H185.075C186.578 242.89 188.368 242.391 189.821 242.162C192.014 241.816 194.603 241.775 196.876 241.675C202.899 241.413 209.118 241.275 215.12 241.188C221.926 241.088 228.748 241.263 235.554 241.188V241.192Z" fill="#A0D92A"/>
<path d="M222.177 131.98C213.894 132.792 206.963 139.851 206.356 148.146C205.944 153.765 209.14 158.705 206.497 164.099C205.706 165.714 204.17 167.258 203.251 168.881C201.024 172.806 200.562 176.643 200.77 181.117C200.782 181.359 200.753 181.604 200.77 181.846C195.642 182.87 191.442 181.471 187.629 178.079C186.068 176.689 184.882 174.937 183.383 173.567C176.319 167.12 166.429 166.584 158.2 171.141C160.356 164.361 163.724 161.96 168.057 157.036C173.218 151.167 170.708 142.789 172.798 135.626C174.604 129.433 177.884 127.007 181.552 122.366C186.538 116.052 190.95 108.236 200.17 107.416C215.109 106.084 219.596 120.115 222.181 131.98H222.177Z" fill="#A0D92A"/>
<path d="M297.342 154.843C285.895 158.58 283.931 166.796 280.559 177.222C276.001 177.189 271.044 176.14 267.751 172.756C265.037 169.968 265.029 167.304 263.78 163.958C260.783 155.921 253.091 151.201 244.558 152.166C244.525 152.096 244.358 152.021 244.317 151.925C244.275 151.829 244.104 151.754 244.075 151.684C242.589 148.362 241.44 144.933 239.696 141.711C240.108 141.457 240.15 141.054 240.187 140.621C240.583 136.359 239.784 133.553 241.395 129.179C249.187 107.986 289.013 111.128 292.659 134.115C293.621 140.167 291.515 145.008 294.791 150.959C295.544 152.329 296.734 153.39 297.351 154.847L297.342 154.843Z" fill="#A0D92A"/>
<path d="M239.691 141.707C241.435 144.933 242.584 148.358 244.07 151.68L244.311 151.921C244.357 152.021 244.524 152.092 244.553 152.162C245.706 154.743 246.517 157.477 247.866 160.162C250.314 165.027 253.748 169.423 255.987 174.301C250.975 180.585 245.26 186.962 236.644 187.673C222.667 188.83 221.476 175.995 209.164 177.218C205.958 177.539 203.444 179.586 200.768 181.11C200.56 176.636 201.018 172.798 203.249 168.873C204.169 167.254 205.705 165.706 206.495 164.091C209.139 158.697 205.942 153.757 206.354 148.138C206.962 139.843 213.892 132.784 222.175 131.972C230.097 131.194 236.045 134.956 239.691 141.703V141.707Z" fill="#28BD3B"/>
<path d="M297.829 154.844L298.07 155.085C307.835 154.885 313.779 162.073 314.379 171.492C314.55 174.144 314.129 176.424 314.783 179.117C315.715 182.955 318.508 184.549 320.248 187.762C323.307 193.401 323.391 199.624 321.909 205.68C320.764 205.655 319.723 205.093 318.595 204.98C310.891 204.206 309.45 211.24 303.486 213.65C299.71 215.173 295.898 214.944 292.314 213.022C287.165 210.258 282.798 201.384 275.876 204.044C274.611 204.531 273.732 205.642 272.529 206.171C272.48 205.555 272.242 205.072 272.288 204.223C272.442 201.16 273.703 197.622 274.719 194.738C276.784 188.881 278.657 183.096 280.559 177.223C283.93 166.797 285.895 158.581 297.342 154.844C297.442 154.811 297.683 154.84 297.829 154.844Z" fill="#28BD3B"/>
<path d="M172.793 135.627C170.704 142.786 173.214 151.164 168.052 157.037C163.723 161.96 160.352 164.362 158.196 171.142C156.11 177.693 156.064 185.763 158.924 192.061C147.148 199.016 134.074 191.586 127.302 181.36C128.284 173.702 131.002 172.353 135.044 166.847C139.136 161.274 137.645 157.715 138.524 151.597C140.838 135.51 159.357 131.461 172.789 135.631L172.793 135.627Z" fill="#28BD3B"/>
<path d="M158.928 192.06C160.189 194.841 165.009 198.915 167.765 200.372C168.739 200.888 171.969 201.916 172.306 202.52C172.36 202.62 172.289 202.969 172.443 203.223C173.946 205.7 176.085 207.726 177.413 210.303C176.552 210.274 174.633 211.185 173.53 211.406C170.537 212.005 166.853 211.826 164.035 210.544C161.654 209.462 160.564 207.822 157.467 207.627C154.516 207.439 151.281 209.108 148.222 208.842C147.165 208.75 144.934 208.342 143.843 208.114C131.589 205.521 125.807 193.005 127.301 181.355C134.074 191.586 147.148 199.015 158.924 192.056L158.928 192.06Z" fill="#027D40"/>
<path d="M321.913 205.682C319.782 214.397 310.82 225.51 300.751 222.222C299.082 221.677 298.45 220.853 296.373 220.52C293.717 220.095 292.252 221.298 289.804 221.494C288.743 221.581 287.461 221.406 286.399 221.252C280.414 220.378 275.223 216.033 273.263 210.306C272.692 208.637 272.667 207.88 272.534 206.169C273.737 205.64 274.615 204.529 275.881 204.042C282.803 201.383 287.169 210.256 292.318 213.02C295.902 214.943 299.715 215.172 303.49 213.648C309.455 211.243 310.9 204.205 318.6 204.979C319.728 205.091 320.769 205.653 321.913 205.678V205.682Z" fill="#027D40"/>
<path d="M164.034 210.543C163.63 210.797 163.792 211.467 163.788 211.879C163.734 216.095 163.801 220.324 163.801 224.54C163.801 230.983 164.679 237.442 165.249 243.869C165.378 245.325 165.611 246.774 165.495 248.247L155.276 249.221C155.043 248.035 155.497 246.74 155.53 245.675C155.542 245.342 155.272 245.117 155.276 245.084C155.388 242.624 155.996 240.148 155.751 237.654L156.454 226.766L145.186 216.132L143.842 208.112C144.932 208.341 147.163 208.749 148.221 208.84C148.412 210.588 148.587 212.424 149.182 214.08C151.355 215.695 153.378 217.539 155.542 219.154C155.771 219.325 156.808 220.224 156.974 220.028L157.461 207.625C160.558 207.821 161.649 209.46 164.03 210.543H164.034Z" fill="#BE6632"/>
<path d="M300.748 222.222L298.313 243.998L298.559 245.571C298.396 245.588 298.126 245.501 298.067 245.725C298.051 246.491 297.88 250.924 297.551 251.128L289.801 250.433C290.342 248.522 290.587 246.525 291.016 244.597C291.819 241.001 292.952 237.459 293.451 233.784L287.07 225.793L286.392 221.244C287.453 221.398 288.735 221.573 289.797 221.485C289.926 222.255 289.884 223.77 290.163 224.403C290.479 225.111 292.76 227.187 293.439 227.937C293.963 228.519 294.001 229.481 294.904 229.273L296.365 220.516C298.442 220.849 299.075 221.673 300.744 222.218L300.748 222.222Z" fill="#BE6632"/>
<path d="M298.075 155.089L297.833 154.848C298.017 154.852 298.059 155.093 298.075 155.089Z" fill="#A0D92A"/>
<path d="M205.391 200.328L206.61 226.841C207.564 226.025 209.945 225.026 210.344 223.885C210.981 217.205 213.2 209.963 213.67 203.354C213.703 202.888 213.678 202.434 213.42 202.03C213.732 202.101 214.082 202.193 214.394 202.272C215.814 202.638 216.954 203.333 218.286 203.733L217.558 211.516L226.486 206.097L227.044 203.974C228.692 203.52 230.016 202.409 231.664 202.026C231.073 203.678 230.848 207.22 229.72 208.473L217.47 217.143L216.933 217.821L215.614 232.314L215.127 241.191C209.125 241.279 202.906 241.412 196.883 241.678C197.203 232.468 197.699 223.294 197.848 214.075L193.982 208.752C193.499 208.153 193.465 208.964 193.236 209.197C192.333 210.138 188.516 214.146 188.375 215.058C188.233 215.973 188.599 216.643 188.616 217.463C188.774 225.513 188.67 233.529 189.074 241.57L189.823 242.161C188.371 242.39 186.585 242.89 185.078 242.89H178.755C178.302 242.89 177.661 242.869 177.174 242.89L180.966 214.296C180.241 213.63 178.143 210.321 177.415 210.296C176.087 207.72 173.948 205.693 172.445 203.216C172.291 202.963 172.362 202.613 172.308 202.513C172.545 202.051 173.128 202.355 173.481 202.43C175.001 202.746 176.599 203.137 178.143 203.241C178.622 204.028 181.032 207.295 181.669 207.383C182.173 207.453 182.214 206.592 182.252 206.255C182.368 205.26 182.231 204.236 182.281 203.241C183.946 203.092 186.46 202.463 188.121 202.026L188.483 207.374C189.049 206.979 190.839 205.564 190.997 205.01C191.284 204.024 190.252 202.534 190.065 201.539C192.267 200.886 194.198 199.808 196.633 199.35C196.791 200.295 195.355 201.955 195.409 202.617C195.438 202.992 197.978 206.396 198.215 206.4C198.477 206.4 198.564 205.814 198.594 205.564C198.814 203.558 198.406 201.16 198.581 199.104C201.928 198.959 202.556 199.546 205.391 200.32V200.328ZM207.097 241.191C207.564 241.108 207.501 240.684 207.593 240.351C208.271 237.887 208.392 234.74 208.921 232.197C208.554 232.605 207.306 233.446 207.077 233.754C206.252 234.869 207.381 239.61 207.097 241.191Z" fill="#BE6632"/>
<path d="M268.397 192.786L269.129 206.896C270.286 206.197 270.986 204.661 272.289 204.22C272.247 205.065 272.484 205.547 272.53 206.167C272.667 207.874 272.688 208.631 273.258 210.305L269.841 213.576C269.179 214.725 269.795 217.821 269.854 219.187C270.182 227.015 270.615 234.836 271.073 242.657C269.929 242.577 268.068 242.415 267.061 242.415H263.41C262.374 242.415 260.484 241.982 259.397 241.928C259.959 238.761 259.893 235.523 260.13 232.322C260.779 223.632 261.583 215.008 261.841 206.301C261.974 201.793 261.799 197.286 262.074 192.791C264.401 192.162 265.108 191.771 267.743 192.362C268.118 192.445 268.338 192.778 268.397 192.791V192.786Z" fill="#BE6632"/>
<path d="M245.042 199.113L243.572 211.142C244.792 221.31 246.182 231.499 247.231 241.683C247.298 242.32 247.697 244.601 247.073 244.809L235.551 244.601C235.601 243.473 235.485 242.32 235.551 241.196C235.551 241.159 235.784 240.921 235.805 240.609C236.492 229.671 236.971 218.754 237.695 207.8C237.603 207.204 233.969 202.855 233.274 201.998C233.016 201.677 232.937 201.265 232.388 201.303C233.703 200.225 235.014 199.675 236.767 199.6C236.971 199.992 238.065 201.894 238.232 202.031C238.948 202.63 238.619 200.254 238.956 199.842C240.355 199.846 243.755 199.496 245.037 199.113H245.042Z" fill="#BE6632"/>
<path d="M200.768 181.844C201.355 190.001 206.758 197.61 213.747 201.593C214.076 201.78 214.525 201.672 214.388 202.275C214.076 202.196 213.726 202.1 213.414 202.034C210.741 201.435 208.057 201.06 205.384 200.332C202.546 199.557 201.917 198.966 198.575 199.116C197.8 199.15 197.368 199.22 196.627 199.358C194.192 199.815 192.26 200.893 190.058 201.547C189.513 201.709 188.73 201.872 188.11 202.034C186.449 202.475 183.935 203.099 182.27 203.249C181.101 203.353 179.319 203.328 178.133 203.249C176.584 203.145 174.986 202.754 173.471 202.438C173.117 202.363 172.53 202.059 172.297 202.521C171.96 201.917 168.73 200.889 167.756 200.373C165 198.916 160.18 194.842 158.919 192.062C156.059 185.764 156.105 177.694 158.19 171.143C166.42 166.585 176.314 167.122 183.373 173.569C184.872 174.939 186.058 176.691 187.619 178.081C191.432 181.473 195.632 182.872 200.76 181.848L200.768 181.844Z" fill="#62B529"/>
<path d="M255.986 174.305C258.15 179.02 258.238 184.452 256.028 189.305L252.581 194.491C251.582 194.603 250.221 196.152 249.205 196.834C248.352 197.408 245.83 198.878 245.039 199.115C243.752 199.498 240.356 199.852 238.957 199.843C238.416 199.843 237.621 199.564 236.768 199.602C235.015 199.677 233.704 200.226 232.389 201.304C232.073 201.562 231.994 201.096 231.661 202.033C230.008 202.415 228.684 203.527 227.04 203.98C224.151 204.775 221.142 204.588 218.282 203.739C216.95 203.344 215.81 202.644 214.39 202.278C214.524 201.675 214.074 201.783 213.749 201.595C206.761 197.612 201.358 190.004 200.771 181.846C200.754 181.605 200.783 181.359 200.771 181.118C203.443 179.595 205.961 177.547 209.167 177.226C221.479 175.999 222.67 188.839 236.647 187.682C245.268 186.97 250.979 180.594 255.99 174.309L255.986 174.305Z" fill="#027D40"/>
<path d="M244.554 152.167C253.091 151.202 260.779 155.922 263.776 163.959C265.025 167.305 265.033 169.969 267.747 172.757C271.039 176.141 275.997 177.19 280.555 177.223C278.653 183.096 276.784 188.877 274.715 194.737C272.675 193.888 270.498 193.335 268.392 192.789C268.334 192.773 268.113 192.444 267.739 192.361C265.1 191.774 264.392 192.161 262.069 192.789C261.932 192.827 261.724 192.752 261.582 192.789L261.341 193.031C258.115 193.88 255.851 194.126 252.583 194.492L256.03 189.306C258.236 184.453 258.152 179.017 255.988 174.306C253.749 169.432 250.315 165.033 247.867 160.167C246.518 157.482 245.707 154.748 244.554 152.167Z" fill="#62B529"/>
<path d="M244.311 151.925L244.068 151.684C244.102 151.759 244.269 151.829 244.311 151.925Z" fill="#62B529"/>
<path d="M182.281 203.246C182.231 204.241 182.368 205.265 182.252 206.26C182.214 206.593 182.173 207.458 181.669 207.388C181.032 207.3 178.622 204.033 178.144 203.246C179.33 203.325 181.111 203.35 182.281 203.246Z" fill="#027D40"/>
<path d="M261.343 193.033L261.585 192.791C261.514 192.812 261.418 193.016 261.343 193.033Z" fill="#BE6632"/>
</svg>
