<svg width="227" height="38" viewBox="0 0 227 38" fill="none" xmlns="http://www.w3.org/2000/svg">
<path d="M3.59556 0.609375L3.50391 0.63857C3.54974 0.630237 3.58306 0.621875 3.59556 0.609375Z" fill="#20BB65"/>
<path d="M4.83008 3.98881C4.83008 3.98881 4.84257 3.98464 4.85091 3.98047C4.84257 3.98047 4.83841 3.98464 4.83008 3.98881Z" fill="#20BB65"/>
<path d="M0.595978 0.868052C0.512644 1.12638 0.0834767 1.27223 0.308477 1.50139C0.295977 1.63056 0.425131 1.74299 0.504298 1.85133C0.858464 1.83049 0.541801 2.00554 0.845968 2.00554L0.658462 2.07634C0.762629 2.07634 0.833463 2.08473 0.73763 2.13473L0.679291 2.14725C0.833457 2.14725 0.754314 2.20554 0.833481 2.20554L0.775141 2.21805L0.808482 2.25141L0.725143 2.26393C0.895977 2.28476 0.920958 2.33887 0.862625 2.41387L1.09596 2.34724C0.866791 2.53057 1.36263 2.43887 1.0793 2.62637L1.02096 2.64306C1.66679 2.58889 0.6668 2.97219 1.28763 2.92636C1.20847 2.93469 1.17098 2.97226 1.11681 2.98892C1.20014 3.02642 1.25847 3.08053 1.70847 2.93053C1.7168 2.97636 1.57931 3.01391 1.40431 3.07641C1.60015 3.00974 1.69596 3.01804 1.72096 3.04721L1.63764 3.05972L1.73764 3.13052L2.10014 2.98475C2.01264 3.07225 1.65014 3.15556 1.75847 3.17223L2.0668 3.06389C2.0293 3.15139 1.57931 3.35976 1.37931 3.51393C1.35848 3.85976 2.24597 3.83056 1.83347 4.30972L1.61679 4.42223C1.29179 4.5764 2.1293 4.27223 1.83347 4.42223L1.99597 4.38469C1.9418 4.41803 1.88763 4.46802 1.80847 4.48469C1.80847 4.51802 1.86264 4.49301 1.97097 4.46801L1.78347 4.59303C1.68347 4.77636 2.10846 4.68056 2.08763 4.83056C1.75429 5.17222 2.25848 5.23889 2.55015 5.25139C3.11265 5.16806 2.03763 6.13476 2.68763 6.01393C2.65013 6.04726 2.75429 6.00139 2.79179 5.98056L2.86679 6.18472C2.86679 6.18472 2.98764 6.42218 3.35014 6.35135C3.72097 6.29302 4.29597 5.88467 5.32513 4.77217L5.39181 4.73056C5.49181 4.54723 5.49596 4.48058 5.13763 4.64308C5.53346 4.36808 5.13764 4.55142 5.25431 4.44725L5.28765 4.4264C4.94598 4.58057 5.48347 4.16388 5.17514 4.29721C5.20847 4.28054 5.32098 4.20973 5.33348 4.2139C5.26264 4.2139 5.14597 4.22636 5.3793 4.07636C5.27097 4.0347 5.31263 3.86383 4.90013 4.03883L4.97098 4.00139C4.69598 4.12223 4.91264 3.98475 4.75847 4.02642C4.78764 4.00558 4.80431 3.99721 4.81681 3.98888C4.54181 4.10555 4.72097 3.91384 4.59597 3.95134L4.75847 3.85969L4.68348 3.81391L4.66265 3.85552C4.20848 4.09302 4.9168 3.65136 4.60014 3.76386C4.63347 3.68886 3.61263 4.16389 3.80846 3.99722C3.58346 4.08056 4.16265 3.83888 3.98348 3.88888C4.22098 3.76805 4.14179 3.83059 4.32512 3.72226C4.19596 3.74726 4.53763 3.54306 4.35846 3.58473L4.5418 3.4889C4.17513 3.6014 4.73764 3.26808 4.39598 3.39308C4.21681 3.40974 4.93347 3.093 4.5418 3.20967L4.78347 3.06806C4.81264 3.0264 4.46264 3.19717 4.57514 3.11384C4.73764 3.04301 4.68762 3.02223 4.84596 2.96807C5.07096 2.79723 4.43347 3.00555 4.8293 2.73888C4.5043 2.85971 4.67513 2.73886 4.43346 2.82636C4.57096 2.76803 4.42096 2.73473 4.74179 2.65557C4.76679 2.64723 4.76681 2.65559 4.71265 2.68059L4.9043 2.60552C5.2418 2.41385 4.67515 2.60556 4.71265 2.53889C4.65431 2.57639 4.6793 2.58888 4.54597 2.63054L4.55431 2.57643L4.71679 2.52221L4.78764 2.42221L4.5918 2.50969C4.6793 2.43886 5.01263 2.29716 4.72096 2.37216C4.55846 2.41799 4.4668 2.50551 4.3918 2.49301C4.50847 2.40134 4.69181 2.26385 4.73347 2.18885C4.50847 2.27635 4.51263 2.25976 4.46263 2.25976L4.65848 2.18885C4.36681 2.23052 5.07929 2.01391 4.84596 2.03891L4.98346 1.9972L4.57097 2.12639C4.16264 2.20973 4.9668 1.95969 4.4168 2.08886C4.45847 2.10136 3.98765 2.24719 4.06265 2.18885L4.2543 2.13056C4.20846 2.13056 4.12931 2.15139 4.16264 2.12639C4.26681 2.10139 4.44181 2.0389 4.40015 2.0264L4.64179 1.96384L4.2793 2.03891C4.47513 1.93891 4.20014 1.97218 4.4668 1.87218C4.4668 1.87218 4.57513 1.76392 4.27513 1.83892C4.46263 1.79725 4.52096 1.73887 4.74179 1.6847C4.52929 1.73054 4.34182 1.72643 4.55848 1.63893H4.58348C4.78765 1.49309 4.23347 1.58884 4.4918 1.443C4.25847 1.50967 4.37514 1.43892 4.0793 1.52642C3.76264 1.52642 4.65431 1.23467 3.72098 1.43883C3.66264 1.41383 3.9293 1.34308 3.97097 1.31391H4.02097C3.9293 1.26391 3.91681 1.24723 3.92514 1.19306C3.82931 1.19306 3.39596 1.28058 3.49179 1.20975C3.66679 1.18891 3.6293 1.17636 3.6293 1.1597C3.65846 1.16386 3.72096 1.15558 3.83346 1.10558C3.77929 1.11391 3.74597 1.11809 3.71681 1.11809C3.72931 1.11809 3.7418 1.11392 3.75846 1.10975C3.6918 1.09308 3.63764 1.10967 3.61681 1.1305C3.59181 1.13467 3.55847 1.14303 3.50847 1.1597C3.72514 1.0847 3.47514 1.08059 3.77098 1.01393C3.68348 0.943092 3.3668 0.943072 3.23763 0.888905C3.38763 0.851405 3.52931 0.847206 3.59181 0.855539L3.52513 0.813832C3.74596 0.776332 3.65846 0.818011 3.70429 0.826344C4.05013 0.705511 3.32931 0.763865 3.64181 0.638865L3.46679 0.651377L3.49596 0.643035C3.40429 0.659702 3.27514 0.663881 3.24597 0.655548C3.43764 0.613881 3.68765 0.584714 3.67098 0.551381C3.85015 0.497214 3.56681 0.488901 3.45848 0.468068C3.42931 0.493068 3.32098 0.501332 3.25014 0.501332C3.24181 0.484665 3.43347 0.44721 3.34597 0.443043L3.6043 0.405507C3.35847 0.447174 3.33348 0.397174 3.22514 0.405507C3.41681 0.368007 3.39598 0.409661 3.54181 0.392995C3.50848 0.326328 3.52512 0.359665 3.49179 0.292999C3.29179 0.280499 3.24598 0.330548 3.01681 0.343048C2.96264 0.313881 2.77513 0.301385 2.92513 0.243052L2.69597 0.284759C2.50847 0.238926 2.53346 0.193035 2.76262 0.122202C1.79179 -0.0319647 1.1418 -0.0235948 0.73763 0.0555719C0.333463 0.134739 0.17097 0.272247 0.17097 0.272247C-0.31653 0.56808 0.370974 0.622222 0.591807 0.872222L0.595978 0.868052Z" fill="#20BB65"/>
<path d="M13.3872 10.6797L13.3789 10.7797C13.3956 10.738 13.4039 10.7005 13.3872 10.6797Z" fill="#20BB65"/>
<path d="M21.2715 13.1498C21.2715 13.1498 21.2798 13.1372 21.284 13.1289C21.2756 13.1372 21.2715 13.1414 21.2715 13.1498Z" fill="#20BB65"/>
<path d="M13.38 14.2012C13.38 14.2012 13.3674 14.2137 13.3633 14.222L13.3841 14.2012H13.38Z" fill="#20BB65"/>
<path d="M11.8166 13.2761C12.1999 13.5677 12.1416 14.0427 12.6708 14.0552C12.8749 14.176 13.1458 14.1761 13.3791 14.2052C13.6041 13.9136 13.6582 14.3094 13.8832 14.076L13.8582 14.2802C13.9332 14.201 14.0083 14.1552 14.0083 14.2719L13.9874 14.3261C14.0999 14.2053 14.1374 14.3177 14.1957 14.2552L14.1749 14.3094H14.2583L14.2166 14.3844C14.3791 14.2719 14.4916 14.3011 14.5666 14.4052L14.6416 14.176C14.7582 14.5052 14.9999 14.0594 15.0832 14.4261L15.0624 14.4802C15.5041 13.9552 15.2999 15.0219 15.7374 14.5261C15.6832 14.5886 15.7124 14.6469 15.6916 14.7052C15.8249 14.6761 15.9583 14.6803 16.1041 14.2303C16.1833 14.2636 16.1249 14.3927 16.0791 14.5719C16.1416 14.3719 16.2416 14.3136 16.3082 14.3219L16.2541 14.3885L16.4583 14.3802L16.5416 13.9927C16.6041 14.1302 16.4207 14.4594 16.5416 14.3969L16.6374 14.0844C16.7499 14.1844 16.6833 14.6803 16.7458 14.9511C17.2541 15.2553 18.0666 14.6219 18.4208 15.3135L18.3791 15.5552C18.2958 15.9011 18.6583 15.0844 18.5916 15.4094L18.6916 15.2678C18.6916 15.3344 18.7083 15.4094 18.6583 15.4803C18.7083 15.5094 18.7249 15.4511 18.7916 15.3594V15.5886C18.9666 15.8136 19.2583 15.4428 19.4666 15.5886C19.6291 16.1011 20.2499 15.8219 20.5999 15.6594C21.1374 15.2344 21.3041 16.7385 21.8708 16.2344C21.8708 16.2885 21.9333 16.1844 21.9416 16.1427L22.3249 16.2761C22.3249 16.2761 22.7957 16.4094 23.1582 16.1427C23.5249 15.876 23.7624 15.2053 23.3583 13.6094L23.3833 13.5344C23.2124 13.3052 23.0916 13.2386 22.8666 13.5928C22.9457 13.1178 22.7083 13.5052 22.6916 13.3427L22.7041 13.3053C22.4999 13.6386 22.5083 12.9469 22.3166 13.2469C22.3291 13.2094 22.3624 13.0844 22.3916 13.0803C22.2916 13.1219 22.1458 13.1969 22.1999 12.9219C21.9749 12.9427 21.7083 12.7511 21.4749 13.1552L21.4999 13.0803C21.3541 13.3553 21.3916 13.101 21.2666 13.2302C21.2666 13.1927 21.2666 13.1719 21.2749 13.1594C21.1208 13.4302 21.0208 13.1469 20.9208 13.2511L20.9583 13.0677H20.7832L20.8374 13.1219C20.6957 13.6135 20.7874 12.7803 20.5874 13.0719C20.4916 12.9803 20.0999 14.0427 20.0416 13.7719C19.9249 13.9886 20.1874 13.4094 20.0582 13.5636C20.1207 13.3052 20.1374 13.4136 20.1708 13.2011C20.0583 13.3011 20.1041 12.9011 19.9583 13.0511L20.0041 12.8511C19.7749 13.1844 19.8249 12.5219 19.6458 12.8511C19.4666 12.9802 19.7124 12.2344 19.4666 12.5844L19.4832 12.2969C19.4374 12.2385 19.3499 12.6178 19.3208 12.4678C19.3708 12.2969 19.2749 12.3094 19.3583 12.1594C19.2833 11.8511 18.9499 12.4553 18.8791 11.9511C18.7416 12.2678 18.6999 12.0427 18.5957 12.2844C18.6332 12.1385 18.4041 12.2052 18.6041 11.9219C18.6208 11.9011 18.6374 11.9094 18.6208 11.9635L18.6916 11.7719C18.6874 11.3719 18.4291 11.9178 18.3374 11.8261C18.3499 11.9011 18.3999 11.8969 18.3333 12.0219L18.2374 11.9635L18.3083 11.8052L18.1832 11.6635L18.1458 11.8719C18.0999 11.7469 18.1791 11.3885 18.0083 11.6552C17.9208 11.8052 17.9958 11.951 17.8999 11.9885C17.8416 11.8177 17.7541 11.5635 17.6499 11.4677C17.5916 11.701 17.5582 11.6803 17.5082 11.7178L17.5666 11.5178C17.3458 11.7511 17.6541 11.0677 17.4541 11.2427L17.5082 11.1094L17.3416 11.5136C17.0958 11.8678 17.4083 11.0844 17.1041 11.576C17.1666 11.5594 16.9916 12.0177 16.9499 11.9136L17.0291 11.7303C16.9791 11.7594 16.9416 11.8344 16.9291 11.7886C16.9832 11.6927 17.0291 11.5136 16.9666 11.5303L17.0791 11.3011L16.8666 11.6178C16.8541 11.3886 16.6499 11.6053 16.7083 11.3261C16.7083 11.3261 16.5874 11.1386 16.4499 11.4219C16.5458 11.2511 16.4749 11.151 16.5749 10.9469C16.4624 11.1385 16.2791 11.2635 16.3041 11.026L16.3208 11.0053C16.2124 10.7178 15.8958 11.2052 15.8249 10.8719C15.7499 11.1011 15.7083 10.9469 15.6249 11.2427C15.3499 11.4677 15.5249 10.5428 15.1374 11.4136C15.0416 11.4344 15.1208 11.1719 15.0999 11.1094L15.1374 11.0677C14.9666 11.0844 14.9208 11.0761 14.8166 11.0136C14.7291 11.0803 14.5624 11.4885 14.5041 11.351C14.5999 11.201 14.5457 11.2136 14.5124 11.2011C14.5457 11.1844 14.5749 11.1261 14.5708 10.9969C14.5458 11.0469 14.5208 11.0719 14.5041 11.0928C14.5083 11.0803 14.5124 11.0677 14.5166 11.051C14.4333 11.0844 14.4249 11.1386 14.4416 11.1719C14.4291 11.1969 14.4208 11.2302 14.4124 11.2761C14.4333 11.0427 14.2291 11.2219 14.3333 10.9385C14.1291 10.9302 13.8833 11.1678 13.6833 11.2136C13.7249 11.0636 13.8124 10.951 13.8791 10.9135L13.7499 10.9219C13.8374 10.7177 13.8582 10.8261 13.9082 10.8011C13.9207 10.4178 13.5083 11.0261 13.4874 10.6594L13.3874 10.8093V10.7803C13.3541 10.8678 13.2707 10.9678 13.2374 10.9886C13.2916 10.8011 13.4166 10.5761 13.3374 10.5552C13.3541 10.3594 13.1374 10.5719 13.0166 10.6344C13.0458 10.6802 12.9874 10.776 12.9416 10.8302C12.9041 10.8219 12.9582 10.6344 12.8957 10.6969L12.9999 10.4552C12.9124 10.6886 12.7957 10.6552 12.7416 10.7469C12.7999 10.5594 12.8666 10.6178 12.9333 10.4886C12.7791 10.4469 12.8541 10.4677 12.6999 10.4219C12.5416 10.5677 12.6124 10.6552 12.4791 10.8469C12.3874 10.8635 12.2458 10.9969 12.2291 10.8177L12.1583 11.0385C11.9499 11.1427 11.8833 11.0802 11.8958 10.826C10.9999 11.4469 10.6458 11.9969 10.5374 12.401C10.4291 12.8052 10.5583 13.0594 10.5583 13.0594C10.7499 13.7261 11.2583 13.2094 11.8208 13.2636L11.8166 13.2761Z" fill="#20BB65"/>
<path d="M34.1914 15.2891L34.2122 15.3892C34.2164 15.3433 34.2122 15.3057 34.1914 15.2891Z" fill="#20BB65"/>
<path d="M42.5879 15.9427C42.5879 15.9427 42.5921 15.9302 42.5962 15.9219C42.5921 15.9302 42.5879 15.9344 42.5879 15.9427Z" fill="#20BB65"/>
<path d="M35.157 18.668C35.157 18.668 35.1487 18.6805 35.1445 18.693L35.157 18.668Z" fill="#20BB65"/>
<path d="M33.4663 18.2312C33.9038 18.3978 33.9788 18.8604 34.4663 18.7229C34.6872 18.7813 34.933 18.702 35.158 18.6687C35.2955 18.327 35.4455 18.6896 35.5955 18.4104L35.6247 18.6146C35.6747 18.5188 35.733 18.4562 35.7663 18.5645L35.758 18.6228C35.8371 18.477 35.8997 18.5771 35.9372 18.5021L35.9288 18.5604L36.008 18.5437L35.9872 18.627C36.1122 18.477 36.2247 18.477 36.3205 18.5604L36.333 18.3187C36.5205 18.6062 36.6455 18.1145 36.808 18.452L36.7996 18.5104C37.0996 17.8979 37.1455 18.9771 37.4496 18.3937C37.4121 18.4646 37.4497 18.5187 37.4455 18.577C37.5663 18.5187 37.6913 18.4937 37.733 18.0187C37.8163 18.0312 37.7872 18.1729 37.783 18.3562C37.7997 18.1479 37.8788 18.0687 37.9455 18.0604L37.908 18.1395L38.0997 18.0854V17.6895C38.1872 17.8103 38.083 18.1687 38.183 18.0812L38.208 17.7562C38.3413 17.8312 38.383 18.3312 38.4955 18.5812C39.0413 18.7646 39.6997 17.9812 40.1747 18.5896V18.8353C40.1663 19.1937 40.3622 18.3187 40.358 18.6478L40.4288 18.4896C40.4413 18.5562 40.4705 18.6271 40.4372 18.7021C40.4913 18.7187 40.4955 18.6604 40.5455 18.5562L40.5913 18.7812C40.7997 18.9687 41.0163 18.552 41.2413 18.6562C41.4872 19.127 42.0372 18.7437 42.3538 18.5228C42.808 18.0145 43.2163 19.4645 43.683 18.877C43.6955 18.927 43.7372 18.8145 43.7372 18.777L44.1288 18.8478C44.1288 18.8478 46.0372 19.0812 44.7372 16.052L44.7497 15.9771C44.5455 15.7771 44.4122 15.7271 44.2455 16.1104C44.2455 15.6312 44.0705 16.0521 44.0288 15.8937L44.0372 15.8562C43.8872 16.2187 43.7872 15.5354 43.6413 15.8562C43.6497 15.8187 43.658 15.6854 43.6872 15.6812C43.5913 15.7354 43.4621 15.8354 43.4705 15.5562C43.2455 15.6145 42.9497 15.4688 42.783 15.9063L42.7955 15.8312C42.6955 16.127 42.6913 15.8687 42.5913 16.0187C42.5913 15.9812 42.583 15.9645 42.5871 15.9479C42.483 16.2395 42.3288 15.9771 42.2497 16.1021L42.258 15.9145L42.083 15.9479L42.1455 15.9896C42.0913 16.4979 42.033 15.6604 41.8872 15.9854C41.7747 15.9146 41.5788 17.027 41.4747 16.7687C41.3997 17.002 41.5497 16.3853 41.4538 16.5603C41.4705 16.2937 41.5038 16.3979 41.4955 16.1812C41.3997 16.302 41.3746 15.902 41.2538 16.0729L41.2622 15.8645C41.0997 16.2354 41.0205 15.577 40.9038 15.927C40.7497 16.0895 40.8497 15.3063 40.6747 15.7021L40.6372 15.4187C40.5788 15.3687 40.5663 15.7603 40.508 15.6187C40.5247 15.4437 40.4288 15.4728 40.483 15.3062C40.3455 15.0187 40.133 15.6728 39.958 15.1937C39.8872 15.5312 39.7955 15.3229 39.7455 15.5771C39.7496 15.4271 39.5372 15.5354 39.6788 15.2229C39.6913 15.1979 39.708 15.2021 39.7038 15.2604L39.733 15.0562C39.6413 14.6646 39.4997 15.2521 39.3872 15.1813C39.4163 15.2521 39.4663 15.2354 39.4247 15.3729L39.3163 15.3354L39.3538 15.1646L39.1996 15.0521V15.2646C39.133 15.1479 39.133 14.7853 39.0205 15.0812C38.9663 15.2437 39.0747 15.3729 38.983 15.4312C38.8872 15.277 38.7455 15.0479 38.6163 14.9729C38.608 15.2104 38.5747 15.2021 38.533 15.2479L38.5455 15.0396C38.3788 15.3146 38.5288 14.5812 38.3663 14.7979L38.3913 14.6562L38.3163 15.0853C38.1538 15.4853 38.283 14.652 38.0913 15.1978C38.1497 15.1687 38.0788 15.6562 38.0163 15.5604L38.0496 15.3604C38.008 15.3979 37.9872 15.4812 37.9663 15.4395C37.9997 15.3354 38.0038 15.1521 37.9413 15.1813L37.9996 14.9354L37.8622 15.2937C37.7955 15.0728 37.6413 15.3312 37.633 15.0437C37.633 15.0437 37.4663 14.8895 37.3996 15.1937C37.4538 15.0062 37.3622 14.9229 37.408 14.702C37.3413 14.9145 37.1913 15.0812 37.158 14.8437L37.1705 14.8187C36.9913 14.5645 36.7955 15.1104 36.6413 14.8062C36.6288 15.0479 36.5455 14.9062 36.5413 15.2145C36.3246 15.502 36.258 14.5603 36.0996 15.502C36.008 15.5437 36.0205 15.2687 35.9788 15.2187L36.0038 15.1687C35.8372 15.2312 35.7913 15.2353 35.6747 15.202C35.608 15.2895 35.5538 15.727 35.458 15.6103C35.508 15.4395 35.4621 15.4687 35.4246 15.4646C35.4538 15.4396 35.4663 15.3771 35.4246 15.2521C35.4121 15.3062 35.3955 15.3396 35.383 15.3646C35.383 15.3521 35.383 15.3395 35.383 15.3229C35.3122 15.377 35.3163 15.4354 35.3455 15.4604C35.3413 15.4854 35.3413 15.5229 35.3455 15.5729C35.2996 15.3396 35.1538 15.5729 35.1747 15.2687C34.9705 15.3187 34.7955 15.6145 34.6163 15.7145C34.6163 15.5562 34.6663 15.4271 34.7205 15.3687L34.5955 15.4145C34.6205 15.1937 34.6746 15.2937 34.7163 15.2521C34.6121 14.8771 34.3913 15.5812 34.2622 15.2354L34.208 15.4062L34.1996 15.3771C34.1913 15.4687 34.1413 15.5937 34.1122 15.6187C34.1122 15.4228 34.1622 15.1729 34.0788 15.1771C34.033 14.9854 33.8872 15.252 33.7913 15.3479C33.833 15.3854 33.808 15.4895 33.7788 15.5562C33.7371 15.5562 33.7372 15.3604 33.6955 15.4437L33.7205 15.1813C33.708 15.4271 33.5872 15.4354 33.558 15.5395C33.558 15.3437 33.6413 15.3812 33.6663 15.2354C33.4997 15.2395 33.583 15.2354 33.4163 15.2437C33.308 15.4312 33.4038 15.4937 33.3371 15.7145C33.2538 15.7562 33.158 15.9312 33.0872 15.7645V15.9979C32.9247 16.1604 32.8413 16.1229 32.7705 15.8771C32.1205 16.7562 31.983 17.3937 32.0163 17.8103C32.0455 18.227 32.2413 18.427 32.2413 18.427C32.6163 18.9895 32.9163 18.3395 33.4497 18.2145L33.4663 18.2312Z" fill="#20BB65"/>
<path d="M55.7852 16.4336L55.8185 16.5295C55.8185 16.4837 55.8102 16.4461 55.7852 16.4336Z" fill="#20BB65"/>
<path d="M64.2305 16.4465C64.2305 16.4465 64.2346 16.4341 64.2388 16.4258C64.2346 16.4341 64.2305 16.4382 64.2305 16.4465Z" fill="#20BB65"/>
<path d="M57.0357 19.7109C57.0357 19.7109 57.0315 19.7276 57.0273 19.736L57.0398 19.7109H57.0357Z" fill="#20BB65"/>
<path d="M55.3262 19.4351C55.7721 19.5559 55.8846 20.0059 56.3554 19.8267C56.5762 19.8642 56.8179 19.76 57.0345 19.71C57.1429 19.36 57.3221 19.71 57.4471 19.41L57.4929 19.61C57.5346 19.51 57.5846 19.4392 57.6262 19.5476V19.6059C57.6887 19.4559 57.7554 19.5475 57.7887 19.4683V19.5267L57.8637 19.5017L57.8512 19.585C57.9637 19.4267 58.0762 19.4142 58.1762 19.4892V19.2475C58.3804 19.5183 58.4637 19.0184 58.6512 19.3392V19.3975C58.897 18.76 59.0262 19.8351 59.2846 19.2309C59.2512 19.3059 59.2971 19.3559 59.2929 19.4142C59.4096 19.3475 59.5304 19.31 59.5387 18.835C59.622 18.8433 59.6054 18.985 59.6137 19.1683C59.6137 18.96 59.6887 18.8725 59.7554 18.86L59.7262 18.9391L59.9137 18.8683L59.8804 18.4767C59.9804 18.5892 59.9012 18.9558 59.9971 18.86V18.535C60.1346 18.6017 60.2137 19.0934 60.3429 19.3351C60.897 19.4767 61.4929 18.6517 62.0095 19.2267L62.0304 19.4725C62.0387 19.8308 62.172 18.9433 62.1929 19.2767L62.2512 19.1142C62.2679 19.1767 62.3012 19.2476 62.272 19.3267C62.3262 19.3392 62.3304 19.2808 62.3679 19.1725L62.4262 19.3934C62.6429 19.5684 62.8304 19.1392 63.0596 19.2267C63.3346 19.6809 63.8554 19.2684 64.1554 19.0267C64.5762 18.4934 65.0679 19.9184 65.4971 19.3142C65.5096 19.3642 65.5471 19.2517 65.5471 19.21L65.9429 19.2642C65.9429 19.2642 67.8554 19.41 66.3845 16.4433L66.3929 16.3642C66.1762 16.1725 66.0429 16.1309 65.8971 16.5226C65.8721 16.0434 65.7221 16.4726 65.6679 16.3184V16.2809C65.5429 16.6517 65.4012 15.9726 65.2762 16.3017C65.2804 16.2642 65.2846 16.1308 65.3137 16.1225C65.2221 16.1808 65.0971 16.2892 65.0887 16.0101C64.8679 16.0809 64.5637 15.9517 64.4221 16.3975L64.4304 16.3184C64.3512 16.6184 64.3262 16.3642 64.2387 16.5142C64.2346 16.4767 64.2262 16.46 64.2304 16.4433C64.1429 16.7392 63.9762 16.4892 63.9054 16.6142V16.4267L63.7262 16.4683L63.7929 16.5101C63.7721 17.0184 63.6596 16.1892 63.5346 16.5184C63.4179 16.4517 63.2929 17.5767 63.1721 17.3267C63.1137 17.5642 63.2221 16.9392 63.1346 17.1225C63.1346 16.8559 63.1762 16.9559 63.1512 16.7434C63.0637 16.8684 63.0096 16.4725 62.9054 16.6517V16.4433C62.7637 16.8225 62.6429 16.1684 62.5471 16.5309C62.4054 16.7017 62.4512 15.9142 62.3054 16.3184L62.247 16.0392C62.1845 15.9933 62.2012 16.3808 62.1304 16.2475C62.1346 16.0725 62.0429 16.1058 62.0846 15.9392C61.9262 15.6642 61.7596 16.3309 61.5512 15.86C61.5054 16.2017 61.4012 15.9975 61.3637 16.2558C61.3596 16.1058 61.1512 16.2309 61.2721 15.9059C61.2804 15.8809 61.3012 15.885 61.2971 15.9433L61.3137 15.7392C61.1971 15.3517 61.0971 15.9517 60.9762 15.8892C61.0096 15.9559 61.0596 15.9392 61.0262 16.0809L60.9179 16.0517L60.9429 15.8809L60.7804 15.7809L60.8012 15.9934C60.7221 15.8851 60.697 15.5225 60.6054 15.8225C60.5637 15.9892 60.6804 16.11 60.5929 16.1767C60.4846 16.0309 60.3262 15.8142 60.1929 15.7475C60.2054 15.985 60.1679 15.9767 60.1304 16.0267V15.8183C59.9804 16.1058 60.0762 15.3601 59.9304 15.5892L59.9429 15.4434L59.9012 15.8767C59.7679 16.2892 59.8346 15.4476 59.6846 16.0059C59.7429 15.9726 59.7095 16.4642 59.6387 16.3725L59.6596 16.1725C59.6221 16.2142 59.6054 16.2975 59.5804 16.2558C59.6054 16.1475 59.597 15.9642 59.5387 15.9976L59.5804 15.7475L59.4679 16.1142C59.3846 15.8976 59.2512 16.1684 59.2179 15.8851C59.2179 15.8851 59.0387 15.7475 58.9971 16.0558C59.0346 15.8642 58.9387 15.7892 58.9679 15.5642C58.9179 15.7809 58.7804 15.96 58.7262 15.7267L58.7387 15.7017C58.5387 15.4642 58.3887 16.0225 58.2095 15.735C58.2137 15.9767 58.1221 15.8433 58.1387 16.1517C57.9471 16.4558 57.8012 15.5225 57.7221 16.4767C57.6346 16.5267 57.6221 16.2517 57.5804 16.2059L57.6012 16.1558C57.4387 16.2308 57.3929 16.2434 57.272 16.2184C57.2095 16.3101 57.197 16.7516 57.0887 16.6433C57.1262 16.4683 57.0804 16.5017 57.0429 16.5017C57.0679 16.4725 57.0762 16.41 57.0262 16.2934C57.0179 16.3475 57.0054 16.3809 56.9971 16.4101C56.9971 16.3976 56.9971 16.385 56.9971 16.3683C56.9304 16.4308 56.9387 16.4851 56.9721 16.5101C56.9721 16.5351 56.9721 16.5726 56.9804 16.6184C56.9137 16.3892 56.7887 16.6308 56.7846 16.3308C56.5846 16.4016 56.4346 16.7101 56.2637 16.8267C56.2471 16.6726 56.2887 16.535 56.3387 16.4725L56.2179 16.5267C56.2221 16.3017 56.2887 16.3975 56.3262 16.3558C56.1887 15.9933 56.0304 16.7142 55.8679 16.3809L55.8304 16.5558L55.8221 16.5267C55.8221 16.6184 55.7804 16.7475 55.7554 16.7767C55.7346 16.5808 55.7637 16.3267 55.6804 16.3392C55.6179 16.1517 55.4929 16.4309 55.4096 16.5351C55.4554 16.5684 55.4387 16.6767 55.4179 16.7434C55.3762 16.7476 55.3554 16.5559 55.3221 16.6392V16.3767C55.3346 16.6225 55.2096 16.6433 55.1929 16.7516C55.1721 16.5558 55.2596 16.585 55.2721 16.4391C55.1054 16.4641 55.1887 16.4517 55.0262 16.4725C54.9346 16.6683 55.0387 16.7226 54.9929 16.9517C54.9137 17.0017 54.8346 17.185 54.7512 17.0267L54.7762 17.2601C54.6262 17.4392 54.5387 17.4142 54.4471 17.1767C53.3221 19.0683 54.1637 19.7683 54.1637 19.7683C54.5846 20.285 54.8179 19.6101 55.3346 19.4309L55.3262 19.4351Z" fill="#20BB65"/>
<path d="M77.4512 16.3242L77.4887 16.42C77.4887 16.3742 77.4762 16.3367 77.4512 16.3242Z" fill="#20BB65"/>
<path d="M85.9043 16.058C85.9043 16.058 85.9085 16.0454 85.9126 16.0371C85.9085 16.0454 85.9043 16.0538 85.9043 16.058Z" fill="#20BB65"/>
<path d="M78.8247 19.5527C78.8247 19.5527 78.8206 19.5693 78.8164 19.5777L78.8247 19.5527Z" fill="#20BB65"/>
<path d="M77.1089 19.3363C77.5589 19.4404 77.688 19.8904 78.1505 19.6945C78.3714 19.7237 78.6088 19.6154 78.8213 19.5529C78.9172 19.1988 79.1047 19.5404 79.2213 19.2404L79.2714 19.4404C79.3089 19.3404 79.3588 19.2695 79.4047 19.3737V19.4321C79.463 19.2779 79.5338 19.3654 79.563 19.2904V19.3488L79.638 19.3196L79.6255 19.4029C79.7297 19.2404 79.8422 19.2279 79.9463 19.2946L79.9338 19.0529C80.1505 19.3195 80.2172 18.8154 80.4172 19.1279V19.1862C80.6422 18.5404 80.8089 19.6112 81.0422 18.9987C81.013 19.0737 81.0588 19.1237 81.0588 19.182C81.1713 19.1112 81.2922 19.0696 81.2838 18.5946C81.3672 18.5988 81.3547 18.7404 81.3713 18.9238C81.3672 18.7154 81.438 18.6279 81.5005 18.6113L81.4713 18.6946L81.6547 18.6196L81.6088 18.2279C81.713 18.3362 81.6463 18.7071 81.738 18.6071L81.7297 18.2821C81.8672 18.3446 81.963 18.832 82.1005 19.0695C82.6588 19.1945 83.2297 18.3488 83.7588 18.9071L83.788 19.1529C83.8088 19.5112 83.913 18.6195 83.9422 18.9487L83.9963 18.7821C84.013 18.8446 84.0505 18.9112 84.0255 18.9946C84.0797 19.0071 84.0797 18.9487 84.1172 18.8404L84.1838 19.0612C84.4088 19.2279 84.5797 18.7946 84.813 18.8737C85.1005 19.3196 85.6088 18.8904 85.9005 18.6404C86.3047 18.0945 86.838 19.5029 87.2505 18.8821C87.2672 18.9321 87.3005 18.8154 87.2963 18.7779L87.6922 18.8196C87.6922 18.8196 89.6047 18.9029 88.0588 15.9862L88.0672 15.9071C87.8463 15.7238 87.7088 15.6862 87.5755 16.0821C87.538 15.6029 87.3963 16.0362 87.3422 15.8821V15.8445C87.2255 16.2154 87.0672 15.5446 86.9505 15.8779C86.9505 15.8404 86.9505 15.7071 86.9797 15.6988C86.888 15.7613 86.7672 15.8738 86.7505 15.5946C86.5338 15.6738 86.2213 15.5529 86.0963 16.0029L86.1047 15.9237C86.0338 16.2279 86.0005 15.9695 85.9172 16.1278C85.913 16.0903 85.9047 16.0737 85.9047 16.057C85.8255 16.357 85.6505 16.1112 85.5838 16.2404L85.5755 16.057L85.4005 16.1029L85.4672 16.1404C85.4588 16.6529 85.3255 15.8237 85.2089 16.157C85.088 16.0945 85.0005 17.2237 84.8714 16.9779C84.8214 17.2195 84.913 16.5904 84.8297 16.7737C84.8172 16.507 84.8672 16.6071 84.838 16.3946C84.7547 16.5237 84.688 16.1279 84.588 16.3113L84.5797 16.1029C84.4505 16.4863 84.3088 15.8363 84.2297 16.2029C84.0922 16.3779 84.1172 15.5904 83.9797 15.9988L83.913 15.7195C83.8463 15.6779 83.8755 16.0654 83.8047 15.932C83.8047 15.757 83.713 15.7945 83.7463 15.6237C83.5797 15.3529 83.4338 16.0237 83.2088 15.5654C83.1713 15.9112 83.063 15.7071 83.0338 15.9696C83.0255 15.8196 82.8213 15.9529 82.9297 15.6237C82.938 15.5987 82.9588 15.6029 82.9588 15.6612L82.9672 15.4571C82.838 15.0737 82.7547 15.6737 82.6338 15.6195C82.6713 15.6862 82.7172 15.6654 82.688 15.8071L82.5755 15.7821L82.5922 15.6112L82.4255 15.5154L82.4547 15.7279C82.3713 15.6195 82.3338 15.2612 82.2505 15.5654C82.213 15.7362 82.3338 15.8487 82.2505 15.9195C82.138 15.7778 81.9713 15.5653 81.8338 15.5028C81.8547 15.7403 81.8172 15.7321 81.7797 15.7821L81.7714 15.5738C81.6339 15.8654 81.7047 15.1196 81.5672 15.3529L81.5755 15.207L81.5505 15.6404C81.4297 16.0529 81.4672 15.2112 81.338 15.7779C81.3963 15.7404 81.3755 16.2362 81.3047 16.1445L81.3172 15.9445C81.2797 15.9862 81.2672 16.0737 81.2422 16.032C81.263 15.9237 81.2463 15.7404 81.1922 15.7779L81.2255 15.5279L81.1255 15.8988C81.038 15.6863 80.9088 15.9613 80.8672 15.6779C80.8672 15.6779 80.6839 15.5446 80.6505 15.8529C80.6839 15.6612 80.5797 15.5904 80.6047 15.3612C80.563 15.5779 80.4297 15.7612 80.3713 15.532L80.3797 15.507C80.1713 15.2779 80.038 15.8404 79.8505 15.5571C79.863 15.7987 79.763 15.6696 79.7963 15.9779C79.613 16.2862 79.438 15.3613 79.3922 16.3154C79.3088 16.3696 79.2838 16.0945 79.238 16.0487L79.2588 15.9988C79.1005 16.0821 79.0547 16.0904 78.9339 16.0737C78.8755 16.1696 78.8755 16.6112 78.7672 16.5071C78.7963 16.3321 78.7547 16.3654 78.713 16.3654C78.738 16.3362 78.7463 16.2737 78.688 16.157C78.6838 16.2112 78.6713 16.2446 78.663 16.2737C78.663 16.2612 78.663 16.2487 78.663 16.232C78.5963 16.2945 78.6088 16.3487 78.6422 16.3737C78.6422 16.3987 78.6422 16.4362 78.6547 16.4821C78.5797 16.2571 78.463 16.5029 78.4463 16.2029C78.2463 16.2779 78.1088 16.5946 77.9463 16.7154C77.9255 16.5612 77.9588 16.4237 78.0088 16.3612L77.8922 16.4196C77.8922 16.1946 77.9588 16.2904 77.9922 16.2445C77.8422 15.8862 77.7088 16.6112 77.5338 16.2862L77.5047 16.4654L77.4922 16.4362C77.4922 16.5278 77.4588 16.6571 77.438 16.6904C77.4088 16.4946 77.4297 16.2404 77.3463 16.257C77.2755 16.0695 77.163 16.357 77.0797 16.4612C77.1255 16.4945 77.113 16.6029 77.0963 16.6695C77.0547 16.6779 77.0255 16.482 76.9963 16.5695L76.988 16.3071C77.0088 16.5529 76.888 16.5779 76.8755 16.6862C76.8464 16.4904 76.9338 16.5154 76.9422 16.3695C76.7797 16.3987 76.8588 16.3821 76.6963 16.4113C76.613 16.6113 76.7172 16.657 76.6797 16.8904C76.6047 16.9445 76.5297 17.1279 76.438 16.9737L76.4713 17.2071C76.3297 17.3904 76.2422 17.3654 76.138 17.1321C75.0922 19.0612 75.963 19.7321 75.963 19.7321C76.4005 20.2362 76.6088 19.5528 77.1172 19.357L77.1089 19.3363Z" fill="#20BB65"/>
<path d="M99.1426 15.6406L99.1801 15.7365C99.1801 15.6906 99.1676 15.6531 99.1426 15.6406Z" fill="#20BB65"/>
<path d="M107.613 15.2787C107.613 15.2787 107.617 15.2661 107.622 15.2578C107.617 15.2661 107.613 15.2745 107.613 15.2787Z" fill="#20BB65"/>
<path d="M100.573 18.8535C100.573 18.8535 100.569 18.8702 100.564 18.8785L100.573 18.8535Z" fill="#20BB65"/>
<path d="M98.8553 18.6568C99.3094 18.7568 99.4427 19.2027 99.9011 19.0027C100.122 19.0318 100.355 18.9193 100.572 18.8526C100.659 18.4985 100.855 18.8359 100.968 18.5359L101.022 18.7318C101.059 18.6276 101.105 18.561 101.151 18.6651V18.7235C101.209 18.5694 101.28 18.6568 101.309 18.5818V18.6401L101.384 18.611L101.376 18.6943C101.48 18.5318 101.593 18.5152 101.693 18.586L101.676 18.3443C101.897 18.6068 101.955 18.1026 102.159 18.4151V18.4735C102.376 17.8277 102.559 18.8943 102.784 18.2777C102.755 18.3527 102.801 18.4026 102.801 18.461C102.914 18.386 103.034 18.3485 103.018 17.8735C103.101 17.8735 103.093 18.0194 103.109 18.2027C103.101 17.9944 103.172 17.9069 103.234 17.8902L103.209 17.9735L103.393 17.8943L103.343 17.5026C103.447 17.611 103.389 17.9819 103.476 17.8819L103.464 17.5568C103.605 17.6152 103.701 18.1068 103.847 18.3401C104.405 18.4568 104.964 17.6068 105.501 18.1568L105.534 18.3985C105.559 18.7569 105.655 17.8652 105.689 18.1944L105.743 18.0276C105.764 18.0901 105.801 18.1568 105.772 18.2401C105.826 18.2526 105.826 18.1943 105.864 18.0818L105.93 18.3027C106.155 18.4652 106.322 18.0318 106.555 18.1068C106.847 18.5484 107.351 18.111 107.639 17.8568C108.039 17.3068 108.58 18.711 108.989 18.0818C109.005 18.1318 109.034 18.0152 109.034 17.9777L109.43 18.0109C109.43 18.0109 111.343 18.0735 109.78 15.1735L109.789 15.0943C109.568 14.9151 109.43 14.8777 109.297 15.2735C109.255 14.7944 109.118 15.2319 109.064 15.0777V15.0402C108.951 15.4152 108.784 14.7444 108.672 15.0777C108.672 15.0402 108.672 14.9068 108.701 14.8985C108.609 14.961 108.489 15.0735 108.472 14.7943C108.255 14.8776 107.943 14.761 107.818 15.211L107.826 15.1318C107.755 15.436 107.722 15.1818 107.639 15.336C107.63 15.2985 107.626 15.2818 107.626 15.2652C107.551 15.5652 107.372 15.3235 107.305 15.4527L107.293 15.2693L107.118 15.3193L107.184 15.3568C107.184 15.8693 107.039 15.0444 106.926 15.3777C106.805 15.3194 106.726 16.4485 106.593 16.2027C106.543 16.4443 106.63 15.811 106.547 15.9985C106.534 15.7318 106.58 15.8318 106.547 15.6193C106.464 15.7484 106.397 15.3526 106.297 15.536L106.284 15.3276C106.159 15.711 106.014 15.0651 105.934 15.4318C105.797 15.6068 105.814 14.8193 105.68 15.2318L105.609 14.9527C105.543 14.911 105.576 15.2985 105.501 15.1652C105.501 14.9902 105.405 15.0277 105.443 14.8569C105.272 14.586 105.134 15.261 104.905 14.8026C104.872 15.1485 104.759 14.9485 104.734 15.2068C104.722 15.0568 104.522 15.1902 104.626 14.861C104.634 14.836 104.655 14.8401 104.655 14.8985L104.664 14.6943C104.53 14.3151 104.455 14.9152 104.334 14.861C104.372 14.9277 104.418 14.9068 104.393 15.0485L104.28 15.0235L104.297 14.8527L104.13 14.761L104.159 14.9735C104.076 14.8694 104.03 14.5068 103.955 14.811C103.922 14.9818 104.043 15.0943 103.959 15.1652C103.847 15.0235 103.676 14.811 103.539 14.7569C103.559 14.9944 103.522 14.986 103.489 15.036L103.476 14.8277C103.343 15.1193 103.405 14.3735 103.268 14.6068L103.276 14.4609L103.255 14.8943C103.143 15.311 103.168 14.4652 103.047 15.0318C103.101 14.9943 103.093 15.4859 103.018 15.3984L103.026 15.1984C102.989 15.2401 102.98 15.3277 102.951 15.286C102.972 15.1777 102.951 14.9943 102.897 15.0318L102.926 14.7818L102.83 15.1527C102.739 14.9402 102.618 15.2152 102.572 14.936C102.572 14.936 102.384 14.8068 102.355 15.1151C102.384 14.9235 102.28 14.8527 102.301 14.6277C102.264 14.8485 102.13 15.0318 102.068 14.8026L102.076 14.7776C101.864 14.5484 101.739 15.1152 101.547 14.836C101.564 15.0777 101.464 14.9485 101.497 15.2568C101.318 15.5693 101.126 14.6444 101.097 15.5985C101.014 15.6527 100.984 15.3776 100.939 15.3318L100.955 15.2819C100.797 15.3652 100.751 15.3777 100.63 15.361C100.572 15.4568 100.58 15.8985 100.472 15.7944C100.501 15.6194 100.455 15.6526 100.418 15.6526C100.443 15.6235 100.447 15.561 100.389 15.4443C100.384 15.4985 100.372 15.5318 100.364 15.561C100.364 15.5485 100.364 15.536 100.364 15.5193C100.297 15.586 100.314 15.636 100.347 15.661C100.347 15.686 100.347 15.7235 100.364 15.7693C100.284 15.5443 100.172 15.7902 100.151 15.4902C99.9511 15.5694 99.8219 15.886 99.6553 16.0069C99.6303 15.8527 99.6636 15.7151 99.7094 15.6526L99.5927 15.7151C99.5844 15.4901 99.6552 15.586 99.6927 15.536C99.5386 15.1818 99.4136 15.9068 99.2344 15.5818L99.2053 15.761L99.1928 15.7318C99.1969 15.8235 99.1636 15.9527 99.1428 15.986C99.1136 15.7943 99.1261 15.536 99.0469 15.5527C98.9761 15.3693 98.8677 15.6527 98.7844 15.761C98.8302 15.7902 98.8219 15.8985 98.8052 15.9693C98.7636 15.9777 98.7344 15.786 98.7052 15.8693L98.6928 15.6068C98.7178 15.8526 98.5969 15.8777 98.5844 15.986C98.5553 15.7943 98.6428 15.8152 98.6469 15.6693C98.4844 15.6985 98.5636 15.6859 98.4011 15.7151C98.3219 15.9151 98.4261 15.961 98.3927 16.1943C98.3177 16.2485 98.2469 16.436 98.1511 16.2818L98.1886 16.5152C98.0511 16.7027 97.9594 16.6776 97.8553 16.4443C96.8428 18.3818 97.7261 19.0443 97.7261 19.0443C98.1761 19.5443 98.3678 18.8568 98.8719 18.6526L98.8553 18.6568Z" fill="#20BB65"/>
<path d="M120.863 14.7969L120.901 14.8927C120.901 14.8469 120.888 14.8094 120.863 14.7969Z" fill="#20BB65"/>
<path d="M129.342 14.4641C129.342 14.4641 129.346 14.4517 129.35 14.4434C129.346 14.4517 129.342 14.4599 129.342 14.4641Z" fill="#20BB65"/>
<path d="M122.284 18.0176C122.284 18.0176 122.28 18.0343 122.275 18.0426L122.284 18.0176Z" fill="#20BB65"/>
<path d="M120.571 17.8137C121.021 17.9137 121.159 18.3637 121.617 18.1637C121.838 18.1929 122.071 18.0803 122.288 18.0178C122.38 17.6637 122.571 18.0012 122.684 17.7012L122.738 17.897C122.775 17.7928 122.821 17.7262 122.867 17.8304V17.8888C122.925 17.7346 122.996 17.8221 123.025 17.7471V17.8053L123.1 17.7762L123.092 17.8596C123.196 17.6971 123.309 17.6804 123.409 17.7512L123.392 17.5095C123.613 17.772 123.671 17.2678 123.875 17.5803V17.6387C124.092 16.9929 124.271 18.0596 124.5 17.4471C124.471 17.5221 124.517 17.572 124.517 17.6304C124.63 17.5554 124.75 17.5179 124.734 17.0429C124.817 17.0429 124.809 17.1887 124.825 17.372C124.817 17.1637 124.888 17.0762 124.95 17.0595L124.921 17.1429L125.105 17.0637L125.055 16.672C125.159 16.7804 125.096 17.1512 125.188 17.0512L125.175 16.7262C125.313 16.7846 125.413 17.2762 125.555 17.5095C126.113 17.6304 126.675 16.7762 127.209 17.3346L127.238 17.5803C127.259 17.9387 127.363 17.047 127.392 17.3762L127.446 17.2095C127.467 17.272 127.505 17.3387 127.475 17.422C127.53 17.4345 127.53 17.3762 127.567 17.2678L127.634 17.4887C127.859 17.6553 128.03 17.2179 128.259 17.297C128.55 17.7387 129.055 17.3054 129.346 17.0512C129.75 16.5012 130.284 17.9053 130.692 17.2803C130.709 17.3303 130.742 17.2137 130.738 17.1762L131.134 17.2137C131.134 17.2137 133.046 17.2845 131.5 14.3762L131.509 14.297C131.288 14.1137 131.15 14.0803 131.013 14.4762C130.975 13.997 130.834 14.4345 130.78 14.2804V14.2429C130.663 14.6179 130.5 13.947 130.388 14.2804C130.388 14.2429 130.388 14.1095 130.417 14.1012C130.325 14.1637 130.205 14.2762 130.188 13.997C129.971 14.0762 129.659 13.9595 129.53 14.4095L129.538 14.3304C129.467 14.6346 129.434 14.3804 129.35 14.5346C129.346 14.4971 129.338 14.4803 129.338 14.4637C129.259 14.7637 129.084 14.5179 129.017 14.6471L129.005 14.4637L128.83 14.5137L128.896 14.5512C128.892 15.0637 128.755 14.2345 128.638 14.572C128.517 14.5137 128.434 15.6387 128.3 15.397C128.25 15.6387 128.338 15.0053 128.259 15.1928C128.246 14.9262 128.292 15.0262 128.263 14.8137C128.18 14.9429 128.113 14.5471 128.013 14.7304L128 14.5221C127.875 14.9054 127.73 14.2595 127.65 14.6221C127.513 14.7971 127.534 14.0096 127.396 14.4221L127.33 14.1428C127.263 14.1012 127.296 14.4887 127.221 14.3553C127.221 14.1803 127.125 14.2178 127.163 14.047C126.992 13.7762 126.85 14.4512 126.625 13.9929C126.592 14.3387 126.48 14.1387 126.455 14.397C126.442 14.247 126.242 14.3803 126.35 14.0512C126.359 14.0262 126.38 14.0304 126.38 14.0887L126.388 13.8845C126.255 13.5054 126.175 14.1053 126.055 14.047C126.092 14.1137 126.138 14.0929 126.113 14.2346L126 14.2096L126.017 14.0387L125.85 13.9428L125.88 14.1553C125.796 14.0512 125.755 13.6887 125.675 13.9929C125.642 14.1637 125.763 14.2763 125.675 14.3471C125.563 14.2054 125.392 13.9928 125.255 13.9345C125.275 14.172 125.238 14.1637 125.2 14.2137L125.188 14.0054C125.05 14.2971 125.117 13.5512 124.98 13.7845L124.988 13.6387L124.963 14.072C124.846 14.4887 124.875 13.6429 124.75 14.2096C124.805 14.1721 124.792 14.6637 124.721 14.5762L124.734 14.3762C124.696 14.4178 124.688 14.5053 124.659 14.4637C124.68 14.3553 124.659 14.1721 124.605 14.2096L124.634 13.9595L124.538 14.3304C124.446 14.1179 124.321 14.3929 124.28 14.1137C124.28 14.1137 124.092 13.9804 124.063 14.2929C124.092 14.1012 123.992 14.0304 124.009 13.8054C123.971 14.0262 123.838 14.2054 123.775 13.9762L123.784 13.9512C123.571 13.722 123.446 14.2887 123.25 14.0054C123.267 14.2471 123.167 14.1179 123.2 14.4262C123.021 14.7387 122.83 13.8137 122.796 14.7678C122.713 14.822 122.688 14.547 122.638 14.5012L122.655 14.4513C122.496 14.5346 122.45 14.5471 122.33 14.5262C122.271 14.6221 122.28 15.0637 122.167 14.9596C122.196 14.7846 122.155 14.8179 122.113 14.8179C122.138 14.7887 122.142 14.7262 122.088 14.6095C122.084 14.6637 122.071 14.6971 122.063 14.7262C122.063 14.7137 122.063 14.7012 122.063 14.6845C121.996 14.747 122.013 14.8012 122.042 14.8262C122.042 14.8512 122.042 14.8887 122.059 14.9346C121.98 14.7096 121.867 14.9554 121.846 14.6554C121.646 14.7346 121.513 15.0471 121.35 15.1721C121.325 15.0179 121.359 14.8804 121.405 14.8179L121.288 14.8803C121.28 14.6553 121.35 14.7512 121.388 14.7054C121.234 14.3512 121.109 15.0762 120.93 14.7512L120.9 14.9304L120.888 14.9012C120.888 14.9929 120.859 15.1221 120.838 15.1554C120.809 14.9637 120.821 14.7054 120.742 14.722C120.671 14.5387 120.559 14.822 120.48 14.9304C120.525 14.9595 120.517 15.072 120.5 15.1387C120.459 15.147 120.43 14.9512 120.4 15.0387L120.388 14.7762C120.413 15.022 120.292 15.0471 120.28 15.1554C120.25 14.9637 120.338 14.9846 120.342 14.8387C120.18 14.8679 120.259 14.8553 120.096 14.8845C120.017 15.0845 120.121 15.1304 120.088 15.3637C120.013 15.4179 119.942 15.6054 119.846 15.447L119.884 15.6804C119.746 15.8679 119.655 15.8428 119.55 15.6095C118.534 17.547 119.421 18.2095 119.421 18.2095C119.867 18.7095 120.063 18.022 120.567 17.822L120.571 17.8137Z" fill="#20BB65"/>
<path d="M142.613 14.125L142.651 14.2208C142.651 14.175 142.638 14.1375 142.613 14.125Z" fill="#20BB65"/>
<path d="M151.105 13.9544C151.105 13.9544 151.11 13.9419 151.114 13.9336C151.11 13.9419 151.105 13.9503 151.105 13.9544Z" fill="#20BB65"/>
<path d="M143.985 17.3711C143.985 17.3711 143.981 17.3878 143.977 17.3961L143.985 17.3711Z" fill="#20BB65"/>
<path d="M142.272 17.1333C142.722 17.2417 142.851 17.6958 143.309 17.5041C143.53 17.5375 143.763 17.4291 143.98 17.3708C144.076 17.0166 144.263 17.3624 144.38 17.0624L144.43 17.2625C144.472 17.1625 144.518 17.0916 144.563 17.2V17.2584C144.622 17.1042 144.693 17.1958 144.722 17.1208V17.1791L144.797 17.1542L144.784 17.2375C144.888 17.075 145.001 17.0625 145.101 17.1333L145.088 16.8916C145.305 17.1583 145.372 16.6541 145.572 16.975V17.0333C145.801 16.3917 145.959 17.4624 146.197 16.8541C146.168 16.9291 146.213 16.9792 146.209 17.0375C146.322 16.9667 146.443 16.9291 146.438 16.4541C146.522 16.4583 146.509 16.6 146.522 16.7833C146.522 16.575 146.588 16.4875 146.655 16.475L146.626 16.5541L146.813 16.4791L146.772 16.0875C146.872 16.2 146.805 16.5666 146.897 16.4708L146.888 16.1458C147.026 16.2083 147.113 16.7 147.251 16.9375C147.805 17.0667 148.384 16.2291 148.905 16.7916L148.93 17.0375C148.943 17.3958 149.063 16.5084 149.088 16.8375L149.147 16.675C149.163 16.7375 149.201 16.8083 149.172 16.8875C149.226 16.9 149.226 16.8417 149.268 16.7334L149.33 16.9541C149.551 17.1249 149.73 16.6916 149.959 16.775C150.238 17.225 150.751 16.7999 151.051 16.5499C151.468 16.0083 151.968 17.425 152.393 16.8083C152.405 16.8583 152.443 16.7458 152.443 16.7042L152.834 16.7499C152.834 16.7499 154.743 16.8584 153.272 13.9209L153.28 13.8416C153.063 13.6541 152.926 13.6167 152.78 14.0125C152.751 13.5333 152.601 13.9667 152.551 13.8125V13.775C152.426 14.1458 152.28 13.4708 152.155 13.8042C152.159 13.7667 152.159 13.6333 152.188 13.6249C152.097 13.6874 151.972 13.7958 151.959 13.5166C151.738 13.5916 151.43 13.4709 151.293 13.9167L151.301 13.8374C151.222 14.1416 151.197 13.8833 151.109 14.0374C151.105 13.9999 151.097 13.9833 151.097 13.9666C151.013 14.2666 150.843 14.0166 150.772 14.1458L150.763 13.9583L150.588 14.0042L150.655 14.0416C150.638 14.5541 150.518 13.725 150.397 14.0583C150.276 13.9958 150.168 15.1208 150.043 14.8749C149.988 15.1166 150.088 14.4874 150.005 14.6708C150.001 14.4041 150.043 14.5041 150.018 14.2916C149.934 14.4208 149.872 14.0208 149.768 14.2042L149.759 13.9958C149.626 14.375 149.493 13.7292 149.405 14.0917C149.263 14.2667 149.301 13.4792 149.155 13.8875L149.093 13.6084C149.03 13.5625 149.051 13.9542 148.98 13.8167C148.98 13.6417 148.888 13.6792 148.93 13.5084C148.768 13.2334 148.609 13.9041 148.393 13.4416C148.351 13.7875 148.243 13.5833 148.213 13.8416C148.205 13.6916 148.001 13.8208 148.113 13.4958C148.122 13.4708 148.143 13.475 148.143 13.5333L148.155 13.3291C148.03 12.9458 147.938 13.5458 147.818 13.4875C147.855 13.5542 147.901 13.5375 147.872 13.675L147.759 13.65L147.78 13.4792L147.613 13.3833L147.638 13.5958C147.555 13.4875 147.522 13.1291 147.434 13.4291C147.397 13.5958 147.513 13.7125 147.434 13.7833C147.326 13.6417 147.159 13.425 147.022 13.3625C147.038 13.6 147.001 13.5916 146.963 13.6416L146.955 13.4333C146.813 13.725 146.893 12.9791 146.751 13.2083L146.763 13.0625L146.73 13.4958C146.605 13.9083 146.651 13.0666 146.518 13.6291C146.576 13.5916 146.551 14.0875 146.48 13.9958L146.497 13.7958C146.459 13.8375 146.447 13.9208 146.422 13.8833C146.443 13.775 146.43 13.5916 146.372 13.6249L146.405 13.375L146.301 13.7458C146.213 13.5333 146.084 13.8041 146.047 13.5208C146.047 13.5208 145.863 13.3833 145.826 13.6958C145.859 13.5042 145.759 13.4333 145.784 13.2041C145.743 13.4208 145.605 13.6042 145.547 13.3708L145.555 13.3458C145.347 13.1125 145.209 13.675 145.022 13.3917C145.034 13.6333 144.934 13.5042 144.963 13.8083C144.78 14.1167 144.605 13.1874 144.555 14.1416C144.468 14.1958 144.447 13.9208 144.401 13.8708L144.422 13.8209C144.259 13.9 144.213 13.9125 144.093 13.8917C144.034 13.9875 144.034 14.4292 143.922 14.3208C143.955 14.1458 143.909 14.1791 143.868 14.1791C143.893 14.15 143.901 14.0875 143.843 13.9708C143.834 14.025 143.826 14.0583 143.813 14.0875C143.813 14.075 143.813 14.0624 143.813 14.0458C143.747 14.1083 143.759 14.1625 143.793 14.1875C143.793 14.2125 143.793 14.25 143.805 14.2958C143.73 14.0708 143.609 14.3125 143.597 14.0125C143.397 14.0875 143.259 14.4 143.093 14.5208C143.072 14.3667 143.105 14.2291 143.155 14.1666L143.038 14.225C143.038 14 143.105 14.0958 143.138 14.0499C142.988 13.6916 142.855 14.4167 142.68 14.0875L142.651 14.2666L142.638 14.2375C142.638 14.3292 142.605 14.4583 142.584 14.4875C142.555 14.2916 142.576 14.0375 142.493 14.0541C142.422 13.8666 142.309 14.1499 142.226 14.2583C142.272 14.2916 142.259 14.3999 142.243 14.4666C142.201 14.4749 142.172 14.2791 142.143 14.3624L142.134 14.1C142.155 14.3458 142.034 14.3666 142.018 14.475C141.988 14.2791 142.076 14.3083 142.084 14.1583L141.838 14.2C141.755 14.4 141.859 14.45 141.822 14.6791C141.747 14.7333 141.672 14.9167 141.58 14.7584L141.613 14.9916C141.472 15.175 141.384 15.15 141.28 14.9166C140.238 16.8333 141.113 17.5125 141.113 17.5125C141.551 18.0208 141.759 17.3375 142.263 17.15L142.272 17.1333Z" fill="#20BB65"/>
<path d="M164.4 14.0137L164.434 14.1095C164.434 14.0637 164.425 14.0262 164.4 14.0137Z" fill="#20BB65"/>
<path d="M172.904 14.2123C172.904 14.2123 172.908 14.1997 172.913 14.1914C172.908 14.1997 172.904 14.2039 172.904 14.2123Z" fill="#20BB65"/>
<path d="M165.641 17.3164C165.641 17.3164 165.637 17.3331 165.633 17.3414L165.645 17.3164H165.641Z" fill="#20BB65"/>
<path d="M163.945 17.0052C164.391 17.1344 164.499 17.5886 164.966 17.4177C165.187 17.4594 165.424 17.3636 165.637 17.3136C165.745 16.9636 165.92 17.3136 166.045 17.0261L166.087 17.2261C166.129 17.1261 166.183 17.0594 166.22 17.1677V17.2261C166.283 17.0761 166.349 17.1677 166.383 17.0927V17.1511L166.454 17.1261L166.437 17.2094C166.549 17.0511 166.662 17.0428 166.758 17.1219V16.8802C166.962 17.1552 167.049 16.6552 167.233 16.9844V17.0428C167.487 16.4095 167.599 17.4886 167.862 16.8886C167.829 16.9636 167.87 17.0135 167.866 17.0719C167.983 17.0052 168.104 16.9719 168.12 16.4969C168.204 16.5053 168.183 16.6469 168.191 16.8303C168.195 16.6219 168.27 16.5386 168.337 16.5261L168.304 16.6053L168.491 16.5385L168.466 16.1469C168.562 16.2636 168.479 16.6261 168.574 16.5345L168.583 16.2095C168.716 16.2761 168.783 16.7719 168.908 17.0178C169.454 17.1719 170.07 16.3595 170.566 16.947L170.579 17.1927C170.579 17.5511 170.737 16.6677 170.745 16.9969L170.812 16.8345C170.824 16.897 170.858 16.9678 170.829 17.047C170.883 17.0636 170.887 17.0052 170.929 16.8969L170.979 17.1219C171.191 17.3011 171.391 16.876 171.616 16.9719C171.874 17.4344 172.404 17.0302 172.712 16.7969C173.154 16.2761 173.579 17.7094 174.033 17.1094C174.045 17.1594 174.087 17.0469 174.087 17.0052L174.479 17.0677C174.479 17.0677 176.379 17.2552 175.066 14.2594L175.079 14.1844C174.87 13.9886 174.737 13.9428 174.57 14.3303C174.57 13.8511 174.395 14.2761 174.349 14.1178L174.358 14.0802C174.208 14.4469 174.099 13.7678 173.958 14.0928C173.966 14.0553 173.974 13.922 174.004 13.9178C173.908 13.9761 173.779 14.0803 173.783 13.8011C173.558 13.8678 173.254 13.7302 173.095 14.1719L173.108 14.0928C173.016 14.3928 172.999 14.1344 172.904 14.2844C172.904 14.2469 172.895 14.2303 172.895 14.2136C172.795 14.5094 172.637 14.2511 172.562 14.3761V14.1886L172.387 14.2261L172.449 14.2677C172.408 14.7761 172.329 13.9427 172.191 14.2677C172.074 14.2011 171.912 15.322 171.795 15.0678C171.729 15.3053 171.862 14.6803 171.766 14.8636C171.774 14.597 171.812 14.6969 171.799 14.4844C171.708 14.6094 171.666 14.2094 171.554 14.3844V14.1761C171.404 14.5511 171.304 13.8969 171.199 14.2552C171.049 14.4219 171.124 13.6385 170.962 14.0385L170.912 13.7552C170.849 13.7094 170.854 14.0969 170.787 13.9594C170.795 13.7844 170.704 13.8177 170.749 13.6511C170.599 13.3719 170.412 14.0344 170.212 13.5594C170.154 13.9011 170.054 13.6927 170.012 13.951C170.012 13.801 169.799 13.9219 169.929 13.6011C169.941 13.5761 169.958 13.5802 169.954 13.6385L169.974 13.4344C169.866 13.0469 169.749 13.6386 169.633 13.5761C169.666 13.6428 169.712 13.6261 169.679 13.7677L169.57 13.7385L169.599 13.5677L169.437 13.4636L169.454 13.6761C169.374 13.5636 169.358 13.2011 169.258 13.5011C169.212 13.6678 169.324 13.7886 169.237 13.8552C169.133 13.7094 168.979 13.4844 168.841 13.4177C168.845 13.6552 168.812 13.6469 168.77 13.6969V13.4886C168.616 13.7719 168.729 13.0302 168.579 13.2552L168.595 13.1094L168.545 13.5427C168.404 13.9511 168.487 13.1094 168.324 13.6677C168.383 13.6344 168.341 14.1261 168.27 14.0345L168.295 13.8344C168.254 13.876 168.241 13.9595 168.216 13.9178C168.241 13.8095 168.237 13.6261 168.179 13.6594L168.224 13.4095L168.104 13.7761C168.024 13.5594 167.883 13.8261 167.858 13.5427C167.858 13.5427 167.679 13.4011 167.633 13.7095C167.674 13.5178 167.574 13.4427 167.612 13.2177C167.558 13.4344 167.416 13.6094 167.366 13.3761L167.379 13.3511C167.179 13.1094 167.02 13.6636 166.841 13.3719C166.841 13.6136 166.749 13.4803 166.766 13.7886C166.57 14.0886 166.433 13.1553 166.341 14.1011C166.254 14.1511 166.245 13.8761 166.199 13.8261L166.22 13.7761C166.058 13.8511 166.008 13.8552 165.887 13.8302C165.824 13.9219 165.808 14.3635 165.699 14.2552C165.737 14.0802 165.691 14.1136 165.654 14.1094C165.679 14.0844 165.691 14.0178 165.637 13.8969C165.629 13.9511 165.616 13.9844 165.604 14.0136C165.604 14.0011 165.604 13.9886 165.604 13.9719C165.537 14.0302 165.545 14.0886 165.579 14.1136C165.579 14.1386 165.579 14.1761 165.587 14.2219C165.52 13.9928 165.391 14.2303 165.391 13.9303C165.187 13.9928 165.037 14.3011 164.866 14.4136C164.849 14.2594 164.891 14.1219 164.941 14.0636L164.82 14.1178C164.824 13.8928 164.891 13.9927 164.929 13.9469C164.791 13.5802 164.629 14.3011 164.466 13.9636L164.429 14.1386L164.42 14.1094C164.42 14.2011 164.379 14.3302 164.354 14.3594C164.333 14.1635 164.362 13.9095 164.279 13.922C164.216 13.7345 164.091 14.0094 164.004 14.1136C164.049 14.1469 164.033 14.2553 164.012 14.3219C163.97 14.3261 163.949 14.1344 163.916 14.2136V13.951C163.929 14.1969 163.804 14.2136 163.787 14.3219C163.766 14.1261 163.854 14.1553 163.866 14.0094C163.699 14.0303 163.783 14.0177 163.616 14.0385C163.524 14.2344 163.629 14.2886 163.583 14.5178C163.504 14.5678 163.424 14.7469 163.337 14.5886L163.362 14.8219C163.212 14.9969 163.124 14.9678 163.033 14.7303C161.924 16.5969 162.774 17.3177 162.774 17.3177C163.195 17.8427 163.42 17.1719 163.933 17.0052H163.945Z" fill="#20BB65"/>
<path d="M186.205 15.0547L186.23 15.1547C186.23 15.1089 186.23 15.0714 186.205 15.0547Z" fill="#20BB65"/>
<path d="M194.695 16.0384C194.695 16.0384 194.704 16.0259 194.708 16.0176C194.699 16.0259 194.699 16.0301 194.695 16.0384Z" fill="#20BB65"/>
<path d="M187.182 18.4297C187.182 18.4297 187.174 18.4422 187.17 18.4547L187.182 18.4297Z" fill="#20BB65"/>
<path d="M185.525 18.0041C185.958 18.1625 186.029 18.625 186.504 18.4834C186.717 18.5417 186.962 18.4625 187.179 18.4291C187.317 18.0875 187.458 18.45 187.608 18.1709L187.633 18.375C187.683 18.2792 187.742 18.2166 187.771 18.3291L187.763 18.3875C187.842 18.2417 187.9 18.3417 187.938 18.2667L187.929 18.325L188.008 18.3083L187.988 18.3917C188.113 18.2417 188.225 18.2458 188.313 18.3291L188.329 18.0875C188.508 18.3792 188.637 17.8875 188.792 18.2291L188.783 18.2875C189.092 17.6792 189.113 18.7625 189.425 18.1875C189.388 18.2584 189.425 18.3125 189.417 18.3708C189.537 18.3167 189.663 18.2917 189.721 17.8208C189.804 17.8375 189.771 17.975 189.758 18.1583C189.783 17.95 189.863 17.875 189.929 17.8667L189.892 17.9417L190.083 17.8916L190.092 17.4958C190.175 17.6208 190.058 17.975 190.167 17.8916L190.204 17.5667C190.333 17.6459 190.354 18.1459 190.454 18.4C190.979 18.6042 191.667 17.8542 192.1 18.4917L192.092 18.7375C192.054 19.0916 192.3 18.2333 192.275 18.5625L192.354 18.4084C192.363 18.4751 192.388 18.5458 192.346 18.6208C192.4 18.6416 192.408 18.5834 192.463 18.4834L192.492 18.7125C192.683 18.9125 192.921 18.5125 193.133 18.6291C193.338 19.1166 193.904 18.775 194.233 18.5834C194.725 18.1167 194.988 19.5958 195.5 19.0583C195.504 19.1083 195.558 19.0042 195.567 18.9625L195.942 19.075C195.942 19.075 196.4 19.1834 196.746 18.9042C197.088 18.6209 197.333 17.9458 196.858 16.3667L196.879 16.2917C196.696 16.0667 196.567 16.0042 196.354 16.3667C196.408 15.8875 196.183 16.2875 196.158 16.1291L196.171 16.0917C195.979 16.4334 195.95 15.7458 195.771 16.05C195.783 16.0125 195.804 15.8834 195.838 15.8792C195.738 15.925 195.592 16.0083 195.629 15.7333C195.396 15.7708 195.108 15.5958 194.9 16.0166L194.921 15.9417C194.796 16.2292 194.808 15.9709 194.696 16.1084C194.696 16.0709 194.696 16.05 194.696 16.0375C194.563 16.3166 194.433 16.0458 194.346 16.1583L194.367 15.975L194.188 15.9917L194.246 16.0416C194.15 16.5416 194.158 15.7041 193.988 16.0166C193.879 15.9375 193.596 17.0333 193.513 16.7666C193.421 16.9958 193.617 16.3916 193.504 16.5583C193.538 16.2958 193.567 16.4 193.575 16.1875C193.471 16.3 193.471 15.9 193.342 16.0625L193.367 15.8583C193.175 16.2125 193.142 15.55 193 15.8959C192.833 16.0459 192.988 15.2708 192.783 15.6542L192.763 15.3667C192.704 15.3125 192.671 15.7 192.617 15.5583C192.646 15.3833 192.546 15.4083 192.608 15.2458C192.483 14.95 192.233 15.5916 192.079 15.1C191.988 15.4333 191.908 15.2167 191.842 15.4709C191.854 15.3209 191.633 15.4208 191.792 15.1125C191.804 15.0875 191.821 15.0959 191.812 15.1542L191.854 14.9542C191.783 14.5584 191.608 15.1375 191.496 15.0625C191.521 15.1334 191.571 15.1209 191.525 15.2584L191.417 15.2167L191.463 15.05L191.308 14.9292V15.1417C191.238 15.025 191.254 14.6625 191.125 14.95C191.063 15.1125 191.167 15.2416 191.075 15.3C190.983 15.1416 190.85 14.9083 190.717 14.8292C190.7 15.0667 190.667 15.0541 190.621 15.1L190.642 14.8916C190.463 15.1583 190.642 14.4334 190.471 14.6417L190.5 14.5L190.413 14.925C190.233 15.3167 190.392 14.4875 190.179 15.0292C190.242 15 190.154 15.4876 190.092 15.3876L190.133 15.1916C190.088 15.2291 190.067 15.3125 190.046 15.2667C190.083 15.1625 190.092 14.9792 190.029 15.0042L190.096 14.7584L189.946 15.1125C189.888 14.8875 189.721 15.1417 189.721 14.8584C189.721 14.8584 189.554 14.7 189.479 15.0042C189.538 14.8167 189.446 14.7333 189.5 14.5125C189.429 14.725 189.271 14.8834 189.242 14.65L189.254 14.625C189.075 14.3667 188.867 14.9083 188.713 14.6042C188.696 14.8458 188.613 14.7042 188.604 15.0125C188.383 15.2958 188.321 14.3541 188.154 15.2916C188.063 15.3333 188.075 15.0583 188.033 15.0042L188.058 14.9584C187.888 15.0209 187.842 15.0208 187.721 14.9875C187.65 15.075 187.596 15.5125 187.5 15.3958C187.554 15.225 187.504 15.2542 187.467 15.25C187.496 15.225 187.508 15.1625 187.467 15.0375C187.454 15.0917 187.438 15.125 187.425 15.15C187.425 15.1375 187.425 15.125 187.425 15.1083C187.35 15.1625 187.358 15.2208 187.387 15.2458C187.383 15.2708 187.383 15.3084 187.387 15.3584C187.342 15.125 187.192 15.3542 187.213 15.0542C187.004 15.1042 186.829 15.4 186.65 15.5C186.65 15.3416 186.7 15.2084 186.754 15.1542L186.629 15.2C186.65 14.9791 186.708 15.0792 186.75 15.0375C186.642 14.6625 186.421 15.3667 186.288 15.0208L186.238 15.1916L186.229 15.1625C186.221 15.2542 186.171 15.3791 186.146 15.4041C186.142 15.2083 186.188 14.9584 186.104 14.9625C186.058 14.7709 185.908 15.0375 185.817 15.1375C185.858 15.175 185.833 15.2792 185.808 15.3458C185.767 15.3458 185.762 15.1542 185.721 15.2333L185.742 14.9709C185.733 15.2167 185.608 15.225 185.583 15.3333C185.579 15.1375 185.663 15.1708 185.688 15.0292C185.521 15.0375 185.604 15.0334 185.438 15.0417C185.333 15.2292 185.433 15.2916 185.367 15.5166C185.283 15.5625 185.192 15.7375 185.117 15.5709L185.125 15.8042C184.963 15.9709 184.879 15.9375 184.8 15.6959C183.554 17.4959 184.35 18.2583 184.35 18.2583C184.729 18.8083 185.004 18.15 185.525 18.0166V18.0041Z" fill="#20BB65"/>
<path d="M207.82 18.9609V19.0651C207.837 19.0234 207.841 18.9818 207.82 18.9609Z" fill="#20BB65"/>
<path d="M215.873 22.3097C215.873 22.3097 215.881 22.3013 215.89 22.293C215.881 22.293 215.877 22.3013 215.873 22.3097Z" fill="#20BB65"/>
<path d="M208.028 22.4688C208.028 22.4688 208.02 22.4812 208.012 22.4895L208.028 22.4688Z" fill="#20BB65"/>
<path d="M206.54 21.7104C206.923 21.9479 206.894 22.4187 207.373 22.377C207.565 22.477 207.811 22.4521 208.028 22.4688C208.236 22.1688 208.286 22.552 208.494 22.3104L208.473 22.5145C208.544 22.4312 208.611 22.3854 208.615 22.502L208.594 22.5562C208.703 22.4354 208.736 22.5437 208.79 22.4812L208.769 22.5354H208.848L208.807 22.6104C208.961 22.4937 209.065 22.5229 209.132 22.6229L209.207 22.3937C209.307 22.7145 209.553 22.2729 209.611 22.6396L209.586 22.6937C210.032 22.1812 209.773 23.2312 210.215 22.7521C210.161 22.8104 210.182 22.8729 210.157 22.927C210.286 22.902 210.407 22.9146 210.586 22.4729C210.661 22.5104 210.59 22.6353 210.532 22.8103C210.611 22.6187 210.707 22.5646 210.769 22.5771L210.711 22.6396H210.907L211.023 22.2646C211.069 22.4063 210.865 22.7187 210.986 22.6646L211.111 22.3646C211.211 22.4729 211.094 22.9604 211.115 23.2312C211.544 23.5604 212.411 23.0395 212.615 23.7729L212.528 24.0021C212.382 24.3271 212.878 23.5854 212.753 23.8896L212.873 23.7687C212.861 23.8312 212.861 23.9104 212.798 23.9687C212.84 24.002 212.865 23.952 212.948 23.8729L212.903 24.0979C213.011 24.3437 213.361 24.0396 213.515 24.2187C213.54 24.7396 214.161 24.6021 214.532 24.5312C215.157 24.2687 214.828 25.727 215.482 25.4145C215.465 25.4645 215.557 25.3854 215.578 25.3521L215.861 25.5938C215.861 25.5938 215.948 25.6603 216.09 25.7145C216.228 25.7687 216.419 25.8104 216.632 25.752C217.044 25.6312 217.586 25.1479 217.803 23.4937L217.853 23.4353C217.773 23.1478 217.669 23.0354 217.323 23.2771C217.565 22.8604 217.194 23.1354 217.232 22.9729L217.257 22.9437C216.944 23.1812 217.178 22.5312 216.89 22.7395C216.915 22.7104 216.986 22.5979 217.015 22.6104C216.898 22.6104 216.732 22.6312 216.869 22.3895C216.632 22.327 216.415 22.0521 216.061 22.3688L216.107 22.3062C215.886 22.527 215.99 22.2895 215.832 22.377C215.844 22.3437 215.848 22.3229 215.857 22.3104C215.632 22.5229 215.603 22.2187 215.478 22.2937L215.561 22.1271L215.382 22.077L215.423 22.1437C215.161 22.5812 215.457 21.7979 215.182 22.0271C215.103 21.9104 214.469 22.8438 214.473 22.5688C214.311 22.7521 214.698 22.2479 214.536 22.3688C214.657 22.1313 214.648 22.2396 214.728 22.0396C214.59 22.1104 214.723 21.7313 214.54 21.8438L214.632 21.6562C214.332 21.9312 214.511 21.2895 214.265 21.5687C214.057 21.6562 214.448 20.9729 214.128 21.2687L214.194 20.9896C214.153 20.9187 214.003 21.277 213.994 21.1228C214.073 20.9645 213.969 20.9562 214.082 20.8228C214.048 20.502 213.611 21.027 213.607 20.5145C213.419 20.8062 213.403 20.5771 213.265 20.7979C213.323 20.6604 213.073 20.6854 213.319 20.4395C213.34 20.4187 213.357 20.4313 213.332 20.4854L213.428 20.3062C213.469 19.902 213.132 20.4062 213.044 20.2978C213.053 20.3728 213.103 20.3771 213.015 20.4938L212.919 20.4229L213.011 20.2771L212.894 20.1187L212.832 20.3229C212.798 20.1895 212.915 19.8478 212.707 20.0853C212.603 20.2228 212.665 20.3812 212.561 20.4062C212.515 20.2312 212.444 19.9604 212.336 19.8479C212.257 20.0729 212.223 20.052 212.169 20.0812L212.244 19.8895C211.994 20.0978 212.365 19.4479 212.14 19.602L212.207 19.4728L212.007 19.8604C211.728 20.1896 212.103 19.4354 211.748 19.8979C211.815 19.8895 211.603 20.3312 211.569 20.2229L211.661 20.0437C211.607 20.0687 211.565 20.1395 211.553 20.0937C211.615 20.002 211.673 19.8271 211.607 19.8396L211.736 19.6229L211.494 19.9229C211.494 19.6895 211.265 19.8895 211.336 19.6145C211.336 19.6145 211.211 19.4187 211.061 19.6937C211.165 19.527 211.094 19.4229 211.203 19.2229C211.078 19.4062 210.882 19.5229 210.911 19.2854L210.932 19.2645C210.815 18.9687 210.478 19.4396 210.398 19.1062C210.323 19.3354 210.273 19.177 210.194 19.477C209.907 19.6978 210.069 18.7646 209.682 19.6396C209.582 19.6562 209.657 19.3937 209.632 19.3312L209.669 19.2895C209.486 19.3062 209.436 19.3021 209.328 19.2396C209.24 19.3063 209.086 19.7229 209.019 19.5854C209.111 19.4312 209.057 19.4479 209.019 19.4354C209.053 19.4187 209.082 19.3604 209.069 19.2312C209.044 19.2812 209.023 19.3062 209.003 19.3312C209.003 19.3187 209.007 19.3062 209.015 19.2895C208.932 19.327 208.923 19.3812 208.948 19.4146C208.94 19.4396 208.932 19.4729 208.923 19.5229C208.928 19.2854 208.732 19.4729 208.819 19.1854C208.603 19.1854 208.365 19.4395 208.165 19.4979C208.194 19.3437 208.273 19.227 208.34 19.1854L208.207 19.2021C208.278 18.9896 208.311 19.102 208.361 19.0687C208.332 18.6812 207.965 19.3187 207.907 18.952L207.819 19.1104V19.0812C207.79 19.1687 207.715 19.2812 207.682 19.302C207.715 19.1104 207.819 18.8729 207.732 18.8604C207.723 18.6604 207.523 18.8937 207.411 18.9687C207.444 19.0145 207.398 19.1145 207.361 19.1729C207.319 19.1687 207.353 18.9728 207.298 19.0437L207.373 18.7896C207.315 19.0312 207.19 19.0146 207.144 19.1104C207.178 18.9187 207.257 18.9687 207.307 18.8312C207.14 18.8062 207.223 18.8187 207.053 18.7937C206.911 18.9562 206.998 19.0354 206.89 19.2438C206.798 19.2688 206.673 19.4229 206.632 19.2438L206.594 19.4728C206.403 19.6062 206.328 19.5562 206.294 19.302C205.507 20.0604 205.282 20.6729 205.244 21.0896C205.207 21.5062 205.357 21.7312 205.357 21.7312C205.611 22.3396 206.003 21.7479 206.532 21.7187L206.54 21.7104Z" fill="#20BB65"/>
<path d="M224.611 31.8477L224.523 31.8976C224.565 31.8809 224.598 31.8643 224.611 31.8477Z" fill="#20BB65"/>
<path d="M221.723 32.6885C221.677 32.9052 221.264 33.0968 221.498 33.2135C221.489 33.3093 221.619 33.3677 221.698 33.4343C222.048 33.376 221.735 33.5428 222.031 33.5094L221.844 33.5844C221.944 33.5719 222.019 33.576 221.919 33.6218L221.864 33.6343C222.019 33.6177 221.939 33.6719 222.014 33.6635L221.956 33.676L221.989 33.7011L221.906 33.7178C222.073 33.7178 222.094 33.7636 222.031 33.8219L222.264 33.7594C222.023 33.9094 222.519 33.8219 222.227 33.976L222.169 33.9885C222.814 33.9469 221.781 34.2386 222.394 34.2094C222.319 34.2094 222.273 34.2427 222.214 34.251C222.294 34.2843 222.339 34.3261 222.802 34.2302C222.802 34.2677 222.66 34.2886 222.481 34.3302C222.685 34.2886 222.777 34.3011 222.794 34.3302H222.71L222.794 34.401L223.177 34.3094C223.073 34.3761 222.71 34.4094 222.81 34.4344L223.131 34.3718C223.081 34.4468 222.602 34.5677 222.373 34.6635C222.273 34.9093 223.135 35.0469 222.594 35.3427L222.352 35.3802C221.998 35.4261 222.885 35.3802 222.556 35.426L222.723 35.4344C222.66 35.4469 222.594 35.4719 222.514 35.4677C222.502 35.4927 222.56 35.4886 222.673 35.4928L222.456 35.5427C222.294 35.651 222.727 35.6886 222.652 35.7969C222.21 35.9511 222.639 36.1344 222.889 36.2552C223.431 36.426 222.019 36.6761 222.627 36.8469C222.577 36.8553 222.689 36.8677 222.731 36.8677L222.681 37.0386C222.681 37.0386 222.644 37.2427 222.977 37.3843C223.31 37.5177 224.014 37.626 225.502 37.2885L225.581 37.2969C225.773 37.1885 225.819 37.1136 225.423 37.0386C225.902 37.0261 225.473 36.9469 225.627 36.9219H225.664C225.294 36.8594 225.973 36.7802 225.639 36.7177C225.677 36.7177 225.81 36.7177 225.819 36.7344C225.76 36.6886 225.648 36.6219 225.927 36.6136C225.852 36.5011 225.973 36.3302 225.527 36.2719H225.606C225.306 36.2427 225.56 36.2219 225.406 36.1802C225.444 36.176 225.46 36.1719 225.477 36.1719C225.177 36.1427 225.423 36.0428 225.294 36.0136L225.477 36.0011L225.427 35.9135L225.389 35.951C224.881 35.9719 225.706 35.8635 225.373 35.8177C225.431 35.751 224.306 35.7719 224.548 35.6969C224.306 35.6886 224.935 35.6927 224.752 35.6636C225.019 35.6386 224.919 35.6719 225.131 35.6427C225.002 35.6094 225.398 35.5468 225.21 35.5093L225.419 35.4886C225.035 35.4511 225.677 35.326 225.314 35.3135C225.135 35.2594 225.923 35.2011 225.51 35.1636L225.785 35.101C225.827 35.0635 225.439 35.1136 225.573 35.0636C225.748 35.0469 225.706 35.001 225.877 35.001C226.144 34.8802 225.469 34.876 225.914 34.7052C225.569 34.726 225.764 34.6428 225.506 34.6594C225.652 34.6344 225.514 34.5427 225.844 34.5593C225.873 34.5593 225.869 34.5718 225.81 34.5802L226.014 34.5593C226.385 34.4385 225.789 34.4719 225.839 34.401C225.777 34.4302 225.798 34.451 225.656 34.4552L225.673 34.3927L225.844 34.3802L225.927 34.276L225.719 34.3219C225.819 34.2636 226.173 34.1885 225.869 34.1885C225.698 34.1927 225.594 34.2761 225.519 34.2428C225.652 34.1636 225.852 34.0385 225.902 33.9552C225.669 34.0052 225.673 33.9844 225.623 33.9719L225.827 33.9303C225.527 33.9053 226.269 33.8177 226.031 33.7802L226.173 33.7594L225.744 33.8219C225.327 33.8303 226.16 33.701 225.594 33.7343C225.635 33.7593 225.148 33.8385 225.231 33.7844L225.431 33.7552C225.385 33.7427 225.302 33.7552 225.339 33.7302C225.448 33.7218 225.627 33.6802 225.585 33.6552L225.835 33.626L225.464 33.6427C225.664 33.5552 225.385 33.5427 225.656 33.4635C225.656 33.4635 225.769 33.3386 225.464 33.3844C225.656 33.3594 225.714 33.2927 225.939 33.2552C225.723 33.276 225.531 33.2469 225.752 33.1636H225.777C225.981 32.9969 225.414 33.0553 225.669 32.8886C225.435 32.9511 225.552 32.8677 225.256 32.9594C224.939 32.9427 225.814 32.6177 224.885 32.8302C224.823 32.801 225.085 32.7177 225.127 32.6843H225.177C225.077 32.6177 225.064 32.5969 225.064 32.5302C224.969 32.526 224.539 32.6469 224.627 32.5636C224.802 32.5302 224.764 32.5177 224.756 32.4968C224.785 32.501 224.848 32.4885 224.956 32.426C224.902 32.4385 224.869 32.4427 224.839 32.4427C224.852 32.4386 224.864 32.4344 224.881 32.4302C224.81 32.4135 224.76 32.4386 224.744 32.4594C224.719 32.4677 224.685 32.476 224.639 32.4968C224.844 32.3968 224.594 32.4052 224.881 32.3135C224.781 32.2344 224.464 32.2552 224.327 32.2135C224.473 32.1552 224.61 32.1302 224.673 32.1344L224.598 32.0927C224.81 32.0219 224.731 32.0844 224.781 32.0927C225.102 31.9052 224.389 32.0635 224.673 31.876L224.502 31.9177L224.527 31.9052C224.439 31.9344 224.314 31.9593 224.281 31.9593C224.46 31.8843 224.706 31.8094 224.677 31.7719C224.844 31.676 224.556 31.7094 224.444 31.7052C224.423 31.7386 224.319 31.7677 224.248 31.7844C224.235 31.7677 224.41 31.6885 224.327 31.701L224.573 31.6094C224.344 31.7052 224.302 31.651 224.198 31.6802C224.377 31.601 224.364 31.6511 224.506 31.6052C224.452 31.5344 224.481 31.5677 224.427 31.4969C224.227 31.5261 224.198 31.5927 223.977 31.6552C223.914 31.6385 223.731 31.6677 223.86 31.5677L223.648 31.6677C223.452 31.6677 223.46 31.6177 223.66 31.4844C222.681 31.601 222.081 31.8469 221.714 32.0386C221.348 32.2344 221.223 32.3802 221.223 32.3802C220.814 32.7343 221.469 32.5552 221.719 32.6927L221.723 32.6885Z" fill="#20BB65"/>
</svg>
