<svg width="450" height="180" viewBox="0 0 450 180" fill="none" xmlns="http://www.w3.org/2000/svg">
<path d="M34.0869 96.5423C34.0869 94.3006 34.1077 92.209 34.2952 89.9715C34.7702 89.9923 34.8536 89.6756 35.0911 89.4006C37.0661 87.1465 38.6577 84.0132 36.5911 81.2798C37.6661 78.7173 38.9452 77.0132 40.1369 74.709C41.0619 76.2715 41.7702 78.0923 42.2786 79.8423C43.7202 84.7965 43.1661 88.6465 41.9119 93.5673C41.7036 94.3798 39.1994 98.6506 39.1452 99.3506C39.0869 100.134 36.4452 97.1215 34.0869 96.5298V96.5423Z" fill="#80CA59"/>
<path d="M47.1248 5.34228C46.5373 4.36728 45.2123 2.57145 44.3956 1.82978C43.5789 1.08811 42.804 0.554779 41.6748 0.917279C41.4831 2.96728 43.229 4.53811 43.9373 6.45478C45.5331 10.7923 45.7623 15.2381 45.4706 19.7881C45.1623 24.5673 42.8039 28.9214 40.4789 32.9714C37.4123 38.3089 36.1998 40.7548 35.5373 46.9506C35.1331 50.7173 36.1706 54.1964 36.3248 57.9339C36.3831 59.3881 36.2581 60.8464 36.0414 62.2839C35.2123 67.7548 32.5498 72.4131 30.3706 77.4006C28.1873 82.4006 28.0664 88.2173 27.7081 93.5923C27.6914 93.8589 27.679 94.1548 27.8373 94.3714C27.9623 94.5423 28.1665 94.6298 28.3581 94.7089C30.4956 95.5839 32.6289 96.4548 34.7664 97.3298C34.2373 90.4464 35.0539 84.5298 38.8915 78.7298C41.0206 75.5089 43.4414 72.3881 44.5998 68.6923C46.7164 61.9548 44.0373 55.4881 43.0831 48.8714C42.5206 44.9673 41.8456 43.7506 43.4206 40.1506C44.9206 36.7214 46.9706 33.5673 48.3664 30.0839C48.4373 29.9089 48.5039 29.7298 48.5706 29.5548C49.8914 26.0298 50.4248 22.2256 50.3956 18.4631C50.3623 14.0589 49.404 9.12561 47.1206 5.33811L47.1248 5.34228Z" fill="#408F4D"/>
<path d="M48.9037 116.004C53.7537 111.962 56.7454 105.829 57.2995 99.5123C57.9329 92.2831 52.6954 83.0956 51.9662 76.0164C50.5245 62.0123 59.2329 58.2498 64.4704 46.2748C66.787 40.9789 69.0454 35.5456 69.6745 29.7831C69.937 27.3623 69.8912 24.8164 68.837 22.6289C68.637 22.2123 68.3495 21.7748 67.9037 21.6831C67.1579 21.5331 66.6329 22.3998 66.3912 23.1289C65.3329 26.3206 65.0037 29.6998 64.3454 32.9998C62.3787 42.8623 59.7995 47.8539 52.612 54.7748C52.612 54.7748 45.2537 63.4331 45.8995 74.2373C46.2037 79.3623 48.2412 84.2039 49.3204 89.2206C50.4037 94.2373 50.4995 99.8789 47.5745 104.066L48.8995 116.008L48.9037 116.004Z" fill="#80CA59"/>
<path d="M46.9288 94.9167C45.8663 94.4708 44.7371 94 43.6538 93.6208C44.1871 89.4792 43.6621 85.1 44.6621 81.0583C45.1121 80.3875 45.7913 80.575 45.9788 81.3667C46.3455 82.9 46.2496 84.9333 46.3871 86.5C46.5621 88.525 46.7996 90.5625 46.9413 92.5958C46.9913 93.2958 47.0955 94.25 46.933 94.9167H46.9288Z" fill="#4EAB60"/>
<path d="M33.3368 21.3423V21.8964C33.316 21.9548 33.3577 22.0339 33.3368 22.0798C31.0493 27.2756 28.4702 31.3006 28.0618 37.3339C27.6452 43.4506 30.2993 46.6173 30.791 52.2131C30.8785 53.2131 31.0035 54.3673 30.9743 55.3548C30.9035 57.6465 30.0618 61.1089 29.2535 63.3256C29.1452 63.6173 29.2535 63.9673 28.791 63.8631C28.2202 61.8631 27.3077 60.1465 26.4243 58.3173C26.3285 58.1173 26.341 57.7715 26.241 57.5798C27.416 55.2715 27.0243 51.7465 26.5577 49.2131C26.4702 48.7256 26.1577 48.1964 26.0577 47.7798C25.2618 44.4714 24.4743 42.5798 24.4202 38.9048C24.4077 38.1339 24.366 37.2589 24.4202 36.5006C24.7327 32.0589 26.8118 26.8673 29.6993 23.5589C30.316 22.8548 32.5243 20.1506 33.341 21.3423H33.3368Z" fill="#4EAB60"/>
<path d="M20.1371 50.3306C19.7079 51.8889 20.4913 53.8264 20.6829 55.4348C21.1788 59.6389 21.2038 63.8431 20.6829 68.0473C20.3204 70.9556 19.3579 73.9806 19.1871 76.8848C18.9621 80.6514 19.2038 84.6639 20.1413 88.3056C19.1954 90.6598 19.5788 96.2723 19.1996 98.8473C16.0371 92.7514 15.4079 88.3681 15.0454 83.7973C14.4413 76.1598 16.8329 69.7014 16.9413 62.3264C17.0496 55.0181 14.0954 45.5389 15.2329 38.8223C15.5913 38.9681 15.5954 39.3014 15.6788 39.6181C16.8621 44.1764 18.0413 46.2848 20.1454 50.3306H20.1371Z" fill="#80CA59"/>
<path d="M80.4081 105.285C79.3414 103.46 77.7497 102.135 76.6622 100.401C74.4164 96.8181 73.9372 92.7139 74.7331 88.5848C75.2122 86.1139 76.0622 84.3264 77.0997 82.1139C77.2206 81.8556 77.3414 81.6222 77.4622 81.3764C78.8747 78.4597 80.5622 75.6347 81.3081 72.4347C81.9664 69.6097 82.0872 66.5014 81.8289 63.6306C81.4081 63.3639 81.4581 62.8056 80.4997 63.1098C79.8289 63.3223 79.1914 66.8389 78.9164 67.6972C77.5872 71.8889 76.0539 74.3389 74.0039 78.0514C73.8872 78.2639 73.6664 78.3723 73.6414 78.4223C72.0956 81.1764 70.8706 84.1681 70.1831 87.2972C69.2956 91.3389 69.2956 94.5472 70.4581 98.5722C71.7247 102.96 75.1581 105.126 76.6914 109.064C78.3164 113.226 77.8539 117.26 76.1872 121.314C77.6956 121.751 79.2331 122.16 80.7372 122.61C82.8414 116.972 83.5539 110.685 80.4039 105.293L80.4081 105.285Z" fill="#80CA59"/>
<path d="M23.4081 81.7969C21.8914 79.3219 21.3831 76.1802 21.3498 73.2969C21.3123 70.151 22.1956 66.7135 23.8706 64.1094C25.4748 68.626 26.3456 73.1885 25.0248 77.9094C24.6331 79.3094 23.8289 80.5802 23.4081 81.801V81.7969Z" fill="#4EAB60"/>
<path d="M68.3663 86.1803C67.5996 81.3762 65.7288 77.8137 64.7246 73.2387C64.683 73.0428 64.433 72.7345 64.3621 72.3137C63.833 69.2387 63.8621 66.1303 64.3621 63.0678C64.3996 62.8387 64.3288 62.5595 64.3621 62.3303C64.3746 62.2428 64.458 62.1678 64.5455 62.147C65.058 58.0637 66.9538 54.2512 67.408 50.547C67.5288 49.5595 67.4705 48.4637 66.1788 49.1137C66.0496 49.1762 64.9163 50.697 64.733 50.9678C63.4205 52.8803 62.258 55.1595 61.4496 57.3387C59.908 61.4928 59.258 65.4428 59.4455 69.9095C59.6788 75.3428 62.0455 79.4928 63.0871 84.5137C63.4455 86.2428 63.4121 88.3178 63.2705 90.0595C63.158 91.4053 63.4496 92.797 61.8163 93.3887C62.1996 97.897 61.9538 102.022 60.5413 106.33C62.2621 108.143 63.3663 110.714 64.6288 112.81C64.7996 113.097 64.8413 113.38 65.2746 113.355C65.0163 108.789 67.4288 102.46 68.283 97.8303C69.083 93.5095 69.058 90.497 68.3663 86.1762V86.1803Z" fill="#BEEF74"/>
<path d="M64.3623 62.3298C64.3748 62.2423 64.4581 62.1673 64.5456 62.1465C64.5331 62.234 64.454 62.3132 64.3623 62.3298Z" fill="#68D1C6"/>
<path d="M60.7205 112.623C61.308 112.639 61.6163 111.927 61.7538 111.348C62.5163 108.118 63.5871 104.977 64.0288 101.673C64.6621 96.9225 64.0413 92.1309 62.8955 87.5059C59.5746 74.0934 51.9996 61.9142 53.8871 47.5684C54.183 45.3267 54.7538 43.11 54.7288 40.8475C54.7205 40.2559 54.5038 39.4184 53.8455 39.785C53.5371 39.9559 53.3371 41.7725 53.2538 42.1184C52.7746 44.0184 52.3121 45.9225 51.9246 47.8475C51.1705 51.5767 50.6788 55.385 50.8538 59.2017C51.1871 66.435 53.8788 73.3059 56.058 80.2017C58.2371 87.0975 60.4871 93.1434 56.8246 105.514L60.7205 112.623Z" fill="#408F4D"/>
<path d="M28.0454 57.1476C25.9579 52.7393 23.2329 48.7435 21.2496 44.2351C18.9662 39.0393 17.3621 33.1893 17.4704 27.4601C17.4829 26.781 18.0579 24.8851 17.2537 24.5393C15.7537 23.8976 14.6371 27.1851 14.2954 28.3018C10.6912 40.0018 17.4746 49.8476 21.9079 60.0685C24.0621 65.0351 25.5454 70.5601 24.4454 75.8685C23.5662 80.106 21.1454 83.7435 19.3121 87.5851C17.2496 91.9018 17.0787 96.3143 17.0746 101.056C17.0746 101.056 23.7454 103.31 23.7496 103.314C22.5954 102.923 24.3079 93.2601 24.6329 92.0435C25.6829 88.056 28.1037 84.9518 29.6912 81.231C32.2871 75.1393 31.8662 68.0685 29.8787 61.7476C29.3746 60.1476 28.7496 58.6268 28.0537 57.1518L28.0454 57.1476Z" fill="#BEEF74"/>
<path d="M164.354 100.597C163.075 97.2173 160.862 94.2757 159.279 91.0257C157.65 87.684 156.396 84.1048 156.15 80.359C155.871 76.0673 156.916 71.7757 156.637 67.484C156.6 66.9257 156.379 66.2048 155.825 66.209C155.429 66.209 155.162 66.609 154.975 66.9632C152.15 72.3757 151.429 79.159 152.591 85.1382C153.183 88.1715 154.204 91.1673 155.691 93.8673C157.6 97.3298 159.658 100.188 160.196 104.251C160.587 107.192 160.408 110.176 160.196 113.134C159.8 118.538 159.266 123.934 158.433 129.288C158.387 129.572 158.35 129.884 158.512 130.122C158.85 130.617 159.612 130.284 160.083 129.909C160.987 129.188 164.854 124.897 165.983 126.113C166.2 126.347 166.287 126.601 166.687 126.497C165.575 122.301 166.604 115.93 166.512 111.455C166.429 107.276 165.829 104.48 164.358 100.592L164.354 100.597Z" fill="#408F4D"/>
<path d="M165.658 54.4333C165.716 54.4708 165.771 54.5208 165.812 54.5875C166.137 55.0875 166.075 55.7667 165.833 56.3125C165.591 56.8583 165.191 57.3125 164.833 57.7917C161.675 61.9917 162.491 66.6042 163.833 71.2959C164.604 73.9959 165.275 76.75 165.408 79.5709C165.641 84.4709 164.504 89.3084 162.896 93.8959C160.771 99.9459 157.796 105.617 156.191 111.867C155.391 114.975 154.9 118.179 154.941 121.396C154.983 124.733 155.866 127.879 156.575 131.113C155.433 131.638 153.691 132.575 152.596 133.221C152.383 133.346 150.521 125.729 150.437 125.096C150 121.75 150.041 118.333 150.583 115.004C151.021 112.317 151.771 109.692 152.266 107.017C153.229 101.842 152.383 96.9917 150.512 92.125C147.904 85.3334 144.054 79.1209 140.266 72.9584C139.829 72.2459 139.033 71.3292 139.304 70.4167C139.621 69.3459 141.041 70.5792 141.521 70.9959C143.85 73.0125 145.762 75.475 147.554 77.9834C149.491 80.6917 151.412 83.5 153.021 86.4542C154.616 89.3917 156.154 92.7084 156.608 96.0667C156.671 96.525 156.6 97.1584 156.921 97.5375C157.275 97.9542 158.121 96.0084 158.237 95.7584C159.808 92.45 161.404 89.0709 161.866 85.3875C162.3 81.9625 162.021 78.4417 161.008 75.1417C159.966 71.7542 158.946 68.1625 159.075 64.5792C159.154 62.3792 159.787 60.1209 160.846 58.2C161.396 57.2042 162.083 56.2583 162.962 55.5375C163.4 55.1792 165.008 54.0125 165.662 54.425L165.658 54.4333Z" fill="#4EAB60"/>
<path d="M181.77 53.317C181.312 52.5545 180.275 51.1503 179.637 50.5712C179 49.992 178.391 49.5753 177.512 49.8587C177.362 51.4628 178.729 52.6878 179.279 54.1878C180.529 57.5795 180.708 61.0545 180.479 64.6087C180.237 68.342 178.395 71.7462 176.579 74.9128C174.183 79.0837 172.283 83.1295 171.762 87.9712C171.445 90.917 172.254 93.6337 172.375 96.5545C172.42 97.692 172.325 98.8295 172.154 99.9545C171.504 104.229 169.425 107.871 167.725 111.767C166.016 115.675 165.925 120.217 165.645 124.421C165.633 124.629 165.625 124.863 165.745 125.029C165.841 125.163 166.004 125.229 166.154 125.292C167.825 125.975 169.491 126.659 171.162 127.342C170.75 121.963 171.387 117.338 174.387 112.809C176.05 110.292 177.941 107.854 178.85 104.967C180.504 99.7003 178.408 94.6503 177.662 89.4795C177.225 86.4295 177.65 83.3462 178.883 80.5337C180.058 77.8545 181.658 75.3878 182.75 72.667C182.804 72.5295 182.858 72.392 182.912 72.2545C183.945 69.5003 184.362 66.5295 184.337 63.5878C184.312 60.1462 183.562 56.292 181.779 53.3295L181.77 53.317Z" fill="#408F4D"/>
<path d="M160.529 131.825C163.696 129.187 165.65 125.179 166.012 121.054C166.429 116.333 164.121 111.95 163.646 107.329C162.704 98.1833 168.871 91.35 172.292 83.5292C173.804 80.0708 175.279 76.5208 175.692 72.7583C175.862 71.1792 175.833 69.5125 175.146 68.0833C175.017 67.8125 174.829 67.525 174.537 67.4667C174.05 67.3667 173.708 67.9333 173.55 68.4125C172.858 70.4958 172.646 72.7042 172.217 74.8583C170.933 81.3 167.654 87.3125 162.958 91.8333C162.958 91.8333 158.154 97.4875 158.575 104.542C158.775 107.888 160.104 111.05 160.808 114.325C161.517 117.6 161.579 121.288 159.667 124.021L160.533 131.821L160.529 131.825Z" fill="#80CA59"/>
<path d="M148.916 115.739C147.975 114.722 146.783 113.905 146.108 112.684C145.237 111.114 145.396 109.18 145.666 107.397C146.016 105.084 146.516 102.797 147.016 100.514L146.954 100.401C146.987 100.326 147.012 100.251 147.021 100.18C147.362 96.4344 146.225 92.9719 144.529 89.7219C143.671 88.076 142.55 86.5927 141.671 84.9885C140.183 82.2635 139.908 80.0094 140.15 76.9552C140.275 75.3927 141.35 68.4552 141.296 67.6135C141.075 64.1635 140.262 60.5844 138.062 57.8844C137.971 57.8969 137.716 57.7635 137.462 57.8177C136.687 57.9802 136.975 58.751 137.062 59.3635C137.687 63.6719 139.254 66.4635 137.733 70.7802C135.237 77.8677 135.266 80.9219 136.412 84.9927C137.546 89.0344 140.475 92.4677 141.1 96.6219C141.691 100.559 140.141 104.509 140.154 108.493C140.154 109.414 140.304 110.447 140.487 111.376C140.816 113.051 141.525 114.63 142.541 115.993C144.804 119.022 147.083 122.109 147.75 125.809L151.291 124.747L151.191 120.351C150.891 118.634 150.091 117.009 148.916 115.739Z" fill="#408F4D"/>
<path d="M150.146 77.9501C148.629 75.4085 146.829 72.9876 145.866 70.1501C145.462 68.9585 145.158 67.7293 144.975 66.4751C144.908 66.021 144.887 65.1751 144.562 64.8126C144.35 64.5751 143.975 64.5918 143.75 64.796C143.158 65.321 143.283 66.9043 143.266 67.6085C143.237 68.9085 143.341 70.1751 143.65 71.4376C144.558 75.1876 146.908 78.1585 148.7 81.4793C149.462 82.8876 150.066 84.3876 150.616 85.9085C152.283 90.5376 150.791 93.3876 150.35 95.8835C150.179 96.8543 150.004 97.821 149.9 98.8001C149.841 99.346 149.804 99.9043 149.912 100.442C150.146 101.608 150.946 102.558 151.166 103.733C151.408 105.008 151.371 106.329 151.354 107.621C151.225 118.208 149.021 119.721 149.796 121.617C150.925 120.833 152.125 120.146 153.237 119.35C152.929 116.663 152.912 114.188 153.5 111.55C153.666 110.808 154.654 107.992 154.621 107.558C154.587 107.092 154.241 106.508 154.091 106.063C153.833 105.296 153.583 104.542 153.416 103.746C153.091 102.158 153.004 100.529 153.066 98.9085C153.141 97.0001 153.425 95.1085 153.75 93.2293C154.046 91.5293 154.046 89.8585 153.833 88.1335C153.387 84.5126 151.996 81.0543 150.141 77.9501H150.146Z" fill="#BEEF74"/>
<path d="M128.437 80.1378C128.946 81.8961 129.229 83.8461 129.821 85.6378C131.542 90.8836 134.346 95.6128 135.508 101.054C136.733 106.788 136.704 112.704 136.442 118.538C136.275 122.234 134.942 125.784 135.142 129.479C135.821 142.217 131.883 136.259 131.775 133.509C131.608 129.242 131.775 124.846 132.067 120.584C132.458 114.796 132.442 109.113 131.571 103.367C130.725 97.7919 128.037 92.7878 127.158 87.2503C126.742 84.6211 126.542 81.6836 127.029 79.0586C127.758 79.0586 128.242 79.4461 128.442 80.1378H128.437Z" fill="#80CA59"/>
<path d="M166.971 134.11C168.742 124.605 172.087 115.401 176.817 107.005C179.642 101.989 182.962 97.2554 185.467 92.0679C188.546 85.6887 190.342 78.7054 191.075 71.6387C191.104 71.3387 191.142 71.022 191.321 70.7845C191.692 70.297 192.504 70.4137 192.921 70.8637C193.337 71.3137 193.458 71.9637 193.542 72.572C194.554 79.847 193.196 87.4429 189.725 93.8887C187.362 98.2762 184.087 102.089 181.508 106.351C176.958 113.86 174.654 122.747 174.971 131.555L166.971 134.105V134.11Z" fill="#BEEF74"/>
<path d="M143.929 120.351C142.625 120.059 141.233 119.751 139.917 119.543C139.7 114.672 138.229 109.797 138.575 104.934C138.958 104.072 139.771 104.151 140.146 105.018C140.871 106.701 141.167 109.047 141.633 110.818C142.237 113.105 142.912 115.393 143.479 117.689C143.675 118.48 143.987 119.555 143.933 120.351H143.929Z" fill="#BEEF74"/>
<path d="M431.6 41.5473C433.175 38.1764 438.895 34.1973 438.895 34.1973L439.345 36.4431C436.683 39.1473 432.758 44.9014 433.104 49.0431C433.445 53.1806 431.6 41.5514 431.6 41.5514V41.5473Z" fill="#BEEF74"/>
<path d="M427.22 63.872C427.212 67.2179 426.179 71.2429 424.82 74.2845C424.704 74.547 424.458 75.1845 424.079 75.1262C424.479 70.5179 426.795 63.7804 427.22 63.872Z" fill="#469B5B"/>
<path d="M415.758 91.5431C416.55 91.3765 416.216 91.9515 416.358 92.4015C416.962 94.3181 419.966 103.126 419.079 104.472C418.821 104.868 417.558 104.768 417.346 105.535C416.916 105.506 416.433 105.589 416.021 105.535C416.137 104.481 414.425 104.772 413.637 104.726C413.587 103.801 413.621 102.835 413.637 101.901C413.687 99.664 413.816 97.3223 413.637 95.0348C413.921 95.0306 414.504 95.5223 414.696 95.139C414.841 94.8473 415.716 91.889 415.754 91.5348L415.758 91.5431Z" fill="#408F4D"/>
<path d="M401.354 85.5554C400.82 83.9054 400.087 82.6221 399.825 80.8304C399.466 82.3513 399.208 87.6554 398.829 90.7554C398.533 90.7513 398.116 89.8929 397.962 89.6179C396.37 86.7846 395.237 84.1888 395.545 80.8263C396.025 75.5971 398.1 73.1638 396.766 67.1804C396.137 64.3554 393.187 59.4804 390.587 58.1846C389.92 57.8513 389.162 57.7263 389.42 58.7346C390.925 60.8638 392.504 62.7263 393.462 65.2054C394.375 67.5721 394.779 70.1638 394.387 72.6846C393.9 75.8263 392.5 78.7221 391.858 81.8263C391.216 84.9304 391.758 87.7721 393.387 90.4846C394.133 91.7304 394.995 92.9554 395.812 94.1721C396.241 94.8138 396.645 95.4763 397.07 96.1221C398.445 98.2096 397.833 100.218 397.404 100.814C397.958 100.818 403.491 100.855 403.487 100.985C403.558 99.3763 403.441 97.5054 404.1 96.0221C403.633 92.3888 402.475 89.0179 401.354 85.5513V85.5554Z" fill="#80CA59"/>
<path d="M415.85 90.2433C414.912 88.9266 413.658 87.8058 413.062 86.2974C412.292 84.3516 412.758 82.1474 413.333 80.1349C414.079 77.5224 414.992 74.9599 415.908 72.4058L415.854 72.2683C415.904 72.1849 415.946 72.1016 415.962 72.0224C416.908 67.7599 416.112 63.5933 414.633 59.5849C413.887 57.5558 412.812 55.6766 412.037 53.6933C410.725 50.3266 410.742 47.6849 411.471 44.2016C411.846 42.4183 412.487 40.7183 412.954 38.9599C412.921 38.9099 412.946 38.5891 412.833 38.3891C412.442 37.6766 411.504 36.8308 411.758 35.9683C412.037 35.0224 413.292 36.1141 413.712 36.4766C413.892 35.5224 414.108 34.5849 414.171 33.6058C414.425 29.5974 414.017 25.3474 411.883 21.8974C411.775 21.8974 411.504 21.7058 411.2 21.7308C410.283 21.7974 410.5 22.7308 410.508 23.4516C410.596 28.5141 411.983 31.9724 409.596 36.7141C405.671 44.5016 405.258 48.0266 405.971 52.8974C406.683 57.7308 409.55 62.1308 409.658 67.0183C409.758 71.6474 407.392 75.9641 406.817 80.5558C406.467 83.3516 407.158 87.2266 407.158 87.2266C409.654 91.8349 412.746 96.4224 413.012 101.672L417.254 100.985L417.787 95.9016C417.696 93.8766 417.012 91.8808 415.846 90.2391L415.85 90.2433Z" fill="#80CA59"/>
<path d="M408.15 89.9691C407.258 86.8316 405.345 84.0774 404.562 80.8941C403.95 78.3983 404.366 75.7233 405.383 73.3983C405.783 72.4816 406.262 71.6024 406.629 70.6733C406.941 69.8733 407.175 69.0191 407.175 68.1524C407.175 67.8941 406.904 65.9566 406.7 65.9399C406.204 63.9066 404.97 62.1316 403.512 60.6816C402.404 59.5816 401.137 58.7108 400.15 57.4774C399.495 56.6566 398.966 55.6899 398.758 54.6441C398.541 53.5399 398.945 52.7649 399.308 51.7399C400.866 47.3691 399.725 42.2816 397.533 38.3441C397.312 37.9524 396.908 37.5066 396.508 37.6983C396.254 37.8191 396.17 38.1399 396.137 38.4233C395.929 40.1191 396.512 41.8024 396.716 43.5024C396.958 45.5316 396.654 47.6066 396.012 49.5441C395.6 50.7774 395.05 51.9899 394.775 53.2483C394.67 53.7191 394.608 54.1941 394.604 54.6774C394.587 56.3816 395.32 57.9399 396.062 59.4274C396.791 60.8899 396.57 62.6066 396.704 64.1983C396.837 65.8316 397.041 67.4566 397.316 69.0691C397.845 72.1899 398.641 75.2649 399.712 78.2441C399.712 78.2899 399.708 78.3358 399.704 78.3816C399.379 84.7816 404.375 90.1108 404.416 101.14C406.112 101.269 407.72 101.511 409.454 101.607C409.562 100.669 409.92 96.1691 408.158 89.9649L408.15 89.9691ZM402.162 72.1858C401.483 70.3358 400.275 65.0774 400.133 63.7733C400.5 63.3566 402.02 65.9441 402.141 66.2108C402.187 66.3149 402.645 67.3274 402.825 67.8941C402.833 68.0108 402.85 68.1358 402.879 68.2691C403.125 69.3566 403.258 70.7274 402.162 72.1858Z" fill="#BEEF74"/>
<path d="M420.891 54.0014C421.275 53.9598 421.562 54.8431 421.683 55.1348C422.829 57.9348 423.812 61.9014 423.637 64.9306C423.375 69.5223 421.366 73.9973 421.341 78.5723C421.333 79.9431 421.821 82.2431 421.5 83.4639C421.491 83.5014 421.308 83.6139 421.271 83.7681C420.546 86.8514 419.85 90.0848 420.583 93.2348C419.537 94.0181 417.037 96.2764 416.154 97.2681C415.766 96.6639 415.612 95.8098 415.466 95.0973C414.916 92.4598 414.946 90.7723 415.237 88.1181C415.5 85.7431 415.875 84.0306 416.612 81.7598C417.191 79.9723 419.937 73.9389 420.046 73.6931C421.296 70.8848 422.25 67.1681 422.258 64.0806C422.266 61.5056 421.396 58.2139 421.037 55.5514C420.966 55.0431 420.95 54.5014 420.883 54.0014H420.891Z" fill="#408F4D"/>
<path d="M444.445 79.7932C443.27 81.5099 441.795 84.0266 440.808 85.8891C440.649 86.1891 440.724 86.5682 440.212 86.4557C440.679 84.1974 440.945 79.2474 441.587 76.9599C442.17 74.8891 442.816 72.6016 443.808 70.7266C443.795 72.7016 444.274 77.8266 444.445 79.7891V79.7932Z" fill="#408F4D"/>
<path d="M439.596 20.018C437.879 15.5347 436.7 14.0805 435.946 9.28465C435.629 7.26799 435.483 5.22632 435.537 3.17632C435.558 2.43465 435.754 1.07632 435.337 0.405488C435.062 -0.0320116 434.462 -0.111179 434.046 0.147155C432.958 0.817988 432.716 3.37632 432.5 4.49299C432.096 6.55549 431.916 8.60132 432.054 10.7097C432.471 16.943 434.371 19.4347 436.312 25.2388C437.137 27.7013 437.691 30.2638 438.146 32.8388C439.529 40.693 436.366 44.8097 434.971 48.6597C434.429 50.1555 433.887 51.6513 433.454 53.1805C433.212 54.0347 433 54.9138 433.025 55.8013C433.075 57.7305 434.087 59.4638 434.116 61.4055C434.15 63.5055 433.775 65.6097 433.346 67.6555C432.275 72.743 430.654 77.7472 429.6 82.8472C429.241 82.9263 429.354 82.7972 429.258 82.6472C428.104 80.8305 427.112 77.843 426.854 75.7138C426.766 75.0055 426.6 72.3305 426.7 71.5888C426.037 72.668 425.541 78.2555 425.479 79.6722C425.337 83.0347 426.296 86.2805 427.004 89.518C429.021 88.5888 431.121 87.8347 433.112 86.8805C433.362 82.5097 434.012 78.5638 435.683 74.5263C436.15 73.393 438.504 69.1847 438.571 68.4805C438.646 67.7222 438.258 66.6972 438.141 65.943C437.941 64.6472 437.75 63.3763 437.708 62.0597C437.625 59.4388 437.937 56.8138 438.483 54.2513C439.129 51.2305 440.1 48.2972 441.137 45.3972C442.079 42.768 442.537 40.1097 442.675 37.2972C442.962 31.3972 441.696 25.4972 439.596 20.018Z" fill="#408F4D"/>
<path d="M399.674 27.0166C400.303 28.2833 400.783 29.7208 401.478 30.9999C403.503 34.7416 406.283 37.9374 407.908 41.9083C409.624 46.0916 410.412 50.5916 411.012 55.0583C411.391 57.8874 410.866 60.7749 411.52 63.5541C413.783 73.1333 416.128 71.1458 416.616 81.7583C415.883 84.0291 415.503 85.7416 415.241 88.1166C412.624 81.1749 415.037 78.5458 411.633 72.9874C410.528 71.1833 409.97 69.1624 409.512 67.0874C408.799 63.8666 408.324 60.5041 407.962 57.2291C407.466 52.7791 406.678 48.4624 405.228 44.2208C403.82 40.1041 401.095 36.6833 399.67 32.5999C398.995 30.6624 398.441 28.4583 398.449 26.3958C399.003 26.2916 399.424 26.5208 399.67 27.0166H399.674Z" fill="#BEEF74"/>
<path d="M432.954 55.8588C433.091 57.1797 433.837 58.813 434.004 60.2963C434.275 62.713 433.841 65.2797 433.341 67.6463C432.27 72.7338 430.65 77.738 429.595 82.838C429.237 82.9172 429.35 82.788 429.254 82.638C428.1 80.8213 427.108 77.8338 426.85 75.7047C427.3 74.9547 427.445 74.0297 427.766 73.2255C428.795 70.6213 430.77 67.3338 430.825 64.4547C430.837 63.8797 430.537 63.3213 430.516 62.6797C430.483 61.6088 431.42 59.763 431.808 58.6422C432.037 57.9797 432.166 57.2672 432.4 56.6088C432.479 56.3838 432.612 55.7672 432.958 55.8588H432.954Z" fill="#BEEF74"/>
<path d="M425.779 31.0475C426.262 31.7475 426.346 33.1142 426.483 33.8433C426.704 35.0267 426.846 36.2225 426.916 37.4225C427.2 42.4975 425.875 47.485 424.941 52.4308C424.925 52.5267 424.858 52.685 424.879 52.785C424.483 52.7767 424.446 51.7017 424.279 51.41C423.383 49.8517 422.612 47.9225 421.654 46.3975C421.483 46.1267 421.821 45.6058 421.921 45.3475C422.116 44.835 422.271 44.3058 422.429 43.785C422.737 42.7642 423.012 41.735 423.246 40.6933C423.737 38.5017 424.075 36.26 424.216 34.0142C424.271 33.1642 424.108 32.0808 424.496 31.2975C424.683 30.9225 425.162 30.4558 425.575 30.8183C425.65 30.8808 425.716 30.96 425.775 31.0475H425.779Z" fill="#469B5B"/>
<path d="M431.816 41.0547C432.387 41.0506 432.3 41.3131 432.387 41.7256C433.441 46.8797 432.304 52.8672 430.033 57.5547C429.875 57.8839 429.425 58.9006 428.987 58.8881C429.033 58.8881 428.654 57.2589 428.617 57.1256C428.442 56.5047 428.329 55.8631 428.25 55.2214C427.817 51.7464 428.354 47.9006 429.837 44.7256C430.354 43.6214 431.066 42.6339 431.604 41.5464C431.683 41.3881 431.758 41.2214 431.821 41.0547H431.816Z" fill="#BEEF74"/>
<path d="M431.429 24.3807C431.475 24.3266 431.533 24.2807 431.583 24.2266L431.429 24.3807Z" fill="#73DECD"/>
<path d="M434.021 22.0565C434.071 22.0232 434.112 21.9315 434.175 21.9023L434.021 22.0565Z" fill="#73DECD"/>
<path d="M435.017 21.8593C435.071 21.8926 435.112 21.9384 435.15 21.9926C435.433 22.4343 435.383 23.0301 435.167 23.5134C434.95 23.9968 434.6 24.3968 434.283 24.8176C431.496 28.5218 432.221 32.5926 433.4 36.7343C434.079 39.1176 434.671 41.5468 434.787 44.0343C434.992 48.3551 433.992 52.6259 432.571 56.6718C430.696 62.0093 428.071 67.0134 426.654 72.5301C425.95 75.2718 425.517 78.1009 425.55 80.9384C425.587 83.8843 426.367 86.6593 426.992 89.5134C425.983 89.9759 424.446 90.8051 423.479 91.3759C423.292 91.4884 421.65 84.7676 421.575 84.2093C421.187 81.2551 421.229 78.2468 421.704 75.3051C422.087 72.9343 422.75 70.6176 423.192 68.2593C424.042 63.6926 423.296 59.4176 421.646 55.1218C419.346 49.1301 415.946 43.6468 412.604 38.2134C412.217 37.5843 411.517 36.7759 411.754 35.9718C412.033 35.0259 413.287 36.1176 413.708 36.4801C415.762 38.2593 417.45 40.4301 419.033 42.6426C420.742 45.0301 422.437 47.5093 423.858 50.1176C425.267 52.7093 426.625 55.6343 427.025 58.5968C427.079 59.0009 427.017 59.5593 427.3 59.8968C427.612 60.2676 428.358 58.5468 428.462 58.3301C429.846 55.4134 431.254 52.4301 431.662 49.1801C432.046 46.1593 431.8 43.0509 430.904 40.1426C429.983 37.1551 429.087 33.9843 429.2 30.8259C429.271 28.8843 429.829 26.8926 430.762 25.1968C431.246 24.3176 431.854 23.4843 432.629 22.8468C433.012 22.5301 434.433 21.5009 435.012 21.8634L435.017 21.8593Z" fill="#4EAB60"/>
<path d="M432.833 86.8396C433.4 81.2729 434.883 75.8063 437.204 70.7354C438.591 67.7063 440.275 64.8146 441.47 61.7021C442.937 57.8729 443.637 53.7604 443.721 49.6521C443.721 49.4771 443.729 49.2938 443.821 49.1479C444.012 48.8479 444.487 48.8771 444.745 49.1146C445.004 49.3521 445.108 49.7229 445.187 50.0688C446.12 54.2104 445.7 58.6521 444.012 62.5396C442.862 65.1854 441.158 67.5438 439.875 70.1271C437.616 74.6771 436.712 79.9146 437.321 84.9729L432.833 86.8396Z" fill="#BEEF74"/>
<path d="M451.504 82.6523V225.873H-2.07939C-2.08356 207.74 -2.06689 106.236 -2.07939 88.1023C21.9331 91.8648 44.7831 93.5565 63.6331 101.761C74.8123 106.627 84.1123 112.627 97.9748 115.79C111.358 118.844 125.308 120.307 139.191 122.102C150.341 123.544 158.579 126.982 169.891 128.015C210.546 131.732 274.358 118.057 312.491 116.019C341.641 114.461 363.25 117.352 391.821 110.998C417.671 105.244 426.729 95.4023 444.721 85.6815C446.637 84.644 449.108 83.3607 451.504 82.6523Z" fill="#1A4252"/>
<path d="M451.467 71.1081C451.467 77.3622 451.467 83.6122 451.471 89.8664C437.137 96.1539 425.862 104.687 410.887 110.433C380.862 121.954 346.217 119.066 312.462 120.866C290.104 122.062 268.083 125.246 246.037 127.633C233.833 128.954 221.575 130.154 209.225 130.912C196.671 131.683 185.454 132.733 172.854 130.912C162.917 129.479 153.362 127.225 143.408 125.829C127.054 123.533 109.6 123.541 94.2749 119.479C81.7083 116.146 71.6249 110.35 60.5791 105.504C41.9666 97.3372 20.2958 91.7956 -2.0459 88.0372C-2.01673 86.0997 -1.99173 84.1581 -1.96257 82.2206C19.7666 82.9164 41.6999 83.6331 62.6458 87.0997C75.0541 89.1539 87.0916 92.2372 97.6624 96.6039C108.592 101.121 115.658 107.646 126.954 111.787C134.833 114.679 142.15 116.133 151.075 117.421C163.6 119.229 175.279 121.225 188.283 121.379C201.35 121.537 214.379 120.579 227.204 119.171C253.333 116.3 278.821 111.525 305.25 109.571C321.729 108.354 338.292 108.437 354.633 110.275C356.258 110.458 357.958 110.654 359.546 110.383C364.054 109.608 367.104 105.75 370.404 103.912C374.712 101.516 379.65 99.5247 384.85 97.8581C391.608 95.6872 398.762 93.9789 406.029 92.4956C412.604 91.1539 419.021 90.6622 423.912 87.4664C428.158 84.6956 430.75 81.1747 435.158 78.4831C439.862 75.6081 445.608 73.0539 451.475 71.0664V71.0997L451.467 71.1081Z" fill="#225366"/>
<path d="M68.7539 44.6318V44.2109C68.9956 44.5651 68.8206 44.4401 68.7539 44.6318Z" fill="#73DECD"/>
</svg>
